SplineFontDB: 3.0
FontName: ygoth-Regular
FullName: Yannis Gotisch Regular
FamilyName: ygoth
Weight: Regular
Copyright: (c) 2002 Torsten Bronger, original glyphs (c) 1990 Yannis Haralambous
Version: 001.001
ItalicAngle: 0
UnderlinePosition: -100
UnderlineWidth: 50
Ascent: 800
Descent: 200
InvalidEm: 0
LayerCount: 2
Layer: 0 0 "Back" 1
Layer: 1 0 "Fore" 0
UniqueID: 444466
StyleMap: 0x0000
FSType: 0
OS2Version: 0
OS2_WeightWidthSlopeOnly: 0
OS2_UseTypoMetrics: 0
CreationTime: 1420933825
ModificationTime: 1620834617
OS2TypoAscent: 0
OS2TypoAOffset: 1
OS2TypoDescent: 0
OS2TypoDOffset: 1
OS2TypoLinegap: 90
OS2WinAscent: 0
OS2WinAOffset: 1
OS2WinDescent: 0
OS2WinDOffset: 1
HheadAscent: 0
HheadAOffset: 1
HheadDescent: 0
HheadDOffset: 1
OS2Vendor: 'PfEd'
Lookup: 258 0 0 "'dist' Distance in Latin lookup 0" { "'dist' Distance in Latin lookup 0-1" [100,0,1] } ['dist' ('DFLT' <'dflt' > 'latn' <'dflt' > ) ]
DEI: 91125
KernClass2: 1+ 2 "'dist' Distance in Latin lookup 0-1"
 1 l
 1 l
 0 {} -10 {}
Encoding: UnicodeFull
Compacted: 1
UnicodeInterp: none
NameList: AGL For New Fonts
DisplaySize: -48
AntiAlias: 1
FitToEm: 0
WinInfo: 0 38 14
BeginPrivate: 6
StdHW 4 [22]
StemSnapH 24 [21 22 31 64 67 84 100 ]
StdVW 4 [84]
StemSnapV 11 [22 83 84 ]
BlueValues 2 []
lenIV 1 4
EndPrivate
BeginChars: 1114151 214

StartChar: acute
Encoding: 180 180 0
Width: 128
Flags: HMW
HStem: 543 134<22 29>
LayerCount: 2
Fore
SplineSet
22 677 m 1
 106 677 l 1
 68 555 l 1
 63 545 l 1
 55.8 543.2 47.52 542.84 39.024 542.84 c 0
 33.36 542.84 27.6 543 22 543 c 1
 22 677 l 1
EndSplineSet
Validated: 1
EndChar

StartChar: dieresis
Encoding: 168 168 1
Width: 344
Flags: HMW
HStem: 516 114<97 99>
VStem: 35 86 41 114<570.5 575.5 570 576> 160 113<570 576> 224 84<91 105 76 398> 224 125<398 398>
LayerCount: 2
Fore
SplineSet
94 630 m 0x80
 100 630 121 607 125 603 c 2
 144 584 l 2
 146 582 152 578 152 573 c 0
 152 567 144 562 141 559 c 2
 110 528 l 2
 106 524 101 517 96 516 c 0
 90 516 69 539 65 543 c 2
 46 562 l 2
 44 564 38 568 38 573 c 0
 38 579 46 584 49 587 c 2
 80 618 l 2
 84 622 89 629 94 630 c 0x80
216 632 m 1
 232 620 245 604 259 590 c 0
 263 586 273 579 273 573 c 0
 273 567 263 560 259 556 c 2
 217 514 l 1
 216 514 l 1
 174 556 l 2
 170 560 160 567 160 573 c 0x90
 160 579 170 586 174 590 c 2
 216 632 l 1
EndSplineSet
Validated: 1
EndChar

StartChar: c_t
Encoding: 733 733 2
Width: 241
Flags: W
HStem: 542.84 134.16<22 63 138 179>
VStem: 22 46<555 577.474> 138 46<554 576.474>
LayerCount: 2
Fore
SplineSet
138 676 m 1
 222 676 l 1
 184 554 l 1
 179 544 l 1
 171.8 542.2 163.52 541.84 155.024 541.84 c 0
 149.36 541.84 143.6 542 138 542 c 1
 138 676 l 1
22 677 m 1
 106 677 l 1
 68 555 l 1
 63 545 l 1
 55.8 543.2 47.52 542.84 39.024 542.84 c 0
 33.36 542.84 27.6 543 22 543 c 1
 22 677 l 1
EndSplineSet
Validated: 1
EndChar

StartChar: quotesinglbase
Encoding: 8218 8218 3
Width: 278
Flags: HMW
LayerCount: 2
Fore
SplineSet
138 98 m 1
 153 86 166 71 180 57 c 0
 186 51 198 43 198 32 c 0
 198 22 193 1 190 -9 c 0
 174 -58 130 -96 79 -105 c 1
 79 -83 l 1
 102 -81 123 -67 133 -46 c 0
 135 -41 138 -34 138 -28 c 0
 138 -16 125 -8 119 -2 c 2
 79 38 l 1
 79 39 l 1
 138 98 l 1
EndSplineSet
Validated: 1
EndChar

StartChar: quotedblleft
Encoding: 8220 8220 4
Width: 500
Flags: HMW
HStem: 395 106<212 214.5 406 408.5>
VStem: 151 23<504 509 504 539> 345 23<504 509 504 539>
LayerCount: 2
Fore
SplineSet
175 480 m 1
 186 492 198 501 219 501 c 0
 233 501 248 496 258 486 c 0
 267 476 272 462 272 448 c 0
 272 426 256 396 227 396 c 0
 222 395 217 395 212 395 c 0
 169 401 151 453 151 503 c 0
 151 575 189 648 233 687 c 0
 237 691 241 694 246 694 c 0
 249 694 256 690 256 686 c 2
 256 683 l 2
 256 677 249 671 245 667 c 0
 206 628 177 573 174 509 c 0
 174 499 175 490 175 480 c 1
369 480 m 1
 380 492 392 501 413 501 c 0
 427 501 442 496 452 486 c 0
 461 476 466 462 466 448 c 0
 466 426 450 396 421 396 c 0
 416 395 411 395 406 395 c 0
 363 401 345 453 345 503 c 0
 345 575 383 648 427 687 c 0
 431 691 435 694 440 694 c 0
 443 694 450 690 450 686 c 2
 450 683 l 2
 450 677 443 671 439 667 c 0
 400 628 371 573 368 509 c 0
 368 499 369 490 369 480 c 1
EndSplineSet
Validated: 1
EndChar

StartChar: quotedblright
Encoding: 8221 8221 5
Width: 500
Flags: HMW
HStem: 589 105<63.5 96.5>
VStem: 131 23<581 586> 325 23<581 586>
LayerCount: 2
Fore
SplineSet
130 610 m 1
 119 598 107 589 86 589 c 0
 72 589 57 594 47 604 c 0
 38 614 33 628 33 642 c 0
 33 664 49 694 78 694 c 0
 83 695 88 695 93 695 c 0
 136 689 154 637 154 587 c 0
 154 515 116 442 72 403 c 0
 68 399 64 396 59 396 c 0
 56 396 49 400 49 404 c 2
 49 407 l 2
 49 413 56 419 60 423 c 0
 99 462 128 517 131 581 c 0
 131 591 130 600 130 610 c 1
324 610 m 1
 313 598 301 589 280 589 c 0
 266 589 251 594 241 604 c 0
 232 614 227 628 227 642 c 0
 227 664 243 694 272 694 c 0
 277 695 282 695 287 695 c 0
 330 689 348 637 348 587 c 0
 348 515 310 442 266 403 c 0
 262 399 258 396 253 396 c 0
 250 396 243 400 243 404 c 2
 243 407 l 2
 243 413 250 419 254 423 c 0
 293 462 322 517 325 581 c 0
 325 591 324 600 324 610 c 1
EndSplineSet
Validated: 1
EndChar

StartChar: quotedblbase
Encoding: 8222 8222 6
Width: 500
Flags: HMW
HStem: 589 105<63.5 96.5>
VStem: 131 23<581 586> 325 23<581 586>
LayerCount: 2
Fore
SplineSet
130 610 m 1
 119 598 107 589 86 589 c 0
 72 589 57 594 47 604 c 0
 38 614 33 628 33 642 c 0
 33 664 49 694 78 694 c 0
 83 695 88 695 93 695 c 0
 136 689 154 637 154 587 c 0
 154 515 116 442 72 403 c 0
 68 399 64 396 59 396 c 0
 56 396 49 400 49 404 c 2
 49 407 l 2
 49 413 56 419 60 423 c 0
 99 462 128 517 131 581 c 0
 131 591 130 600 130 610 c 1
324 610 m 1
 313 598 301 589 280 589 c 0
 266 589 251 594 241 604 c 0
 232 614 227 628 227 642 c 0
 227 664 243 694 272 694 c 0
 277 695 282 695 287 695 c 0
 330 689 348 637 348 587 c 0
 348 515 310 442 266 403 c 0
 262 399 258 396 253 396 c 0
 250 396 243 400 243 404 c 2
 243 407 l 2
 243 413 250 419 254 423 c 0
 293 462 322 517 325 581 c 0
 325 591 324 600 324 610 c 1
EndSplineSet
Validated: 1
EndChar

StartChar: dotlessi
Encoding: 305 305 7
Width: 166
Flags: HMW
VStem: 52 86
LayerCount: 2
Fore
SplineSet
99 495 m 1
 181 399 l 1
 181 398 l 1
 166 385 151 373 138 359 c 1
 136.934846923 326.690356659 136.626061231 293.498284703 136.626061231 259.916123992 c 0
 136.626061231 213.579596428 137.213938769 166.500403572 137.213938769 119.971876008 c 0
 137.213938769 105.245756118 137.155051026 90.5747964178 137 76 c 1
 119 76 l 1
 143 47 l 2
 146 44 152 39 152 34 c 2
 152 33 l 2
 152 27 142 22 138 19 c 2
 91 -21 l 1
 90 -21 l 1
 9 75 l 1
 9 76 l 1
 24 89 39 101 52 115 c 1
 53.0651530772 147.309643341 53.3739387691 180.501715297 53.3739387691 214.083876008 c 0
 53.3739387691 260.420403572 52.7860612309 307.499596428 52.7860612309 354.028123992 c 0
 52.7860612309 368.754243882 52.8449489743 383.425203582 53 398 c 1
 71 398 l 1
 47 427 l 2
 44 430 38 435 38 440 c 2
 38 441 l 2
 38 447 48 452 52 455 c 2
 99 495 l 1
EndSplineSet
Validated: 1
EndChar

StartChar: ff
Encoding: 64256 64256 8
Width: 438
Flags: HMW
HStem: 347 67<107 223 107 223 307 391>
VStem: 23 84<117 347 347 347> 223 84<187 347 347 347 347 429>
LayerCount: 2
Fore
SplineSet
159 664 m 1
 181 647 203 630 222 610 c 1
 223 588 223 564 223 541 c 1
 276 573 326 612 359 664 c 1
 366 660 371 655 377 650 c 2
 405 627 l 2
 409 623 419 618 419 611 c 0
 419 604 412 596 409 591 c 2
 379 540 l 1
 360 555 341 571 323 587 c 1
 322 587 l 1
 308 570 l 1
 306.934846923 552.247448714 306.626061231 533.990652504 306.626061231 515.498160387 c 0
 306.626061231 489.982295637 307.213938769 464.017704363 307.213938769 438.309839613 c 0
 307.213938769 430.173388316 307.155051026 422.062653338 307 414 c 1
 391 414 l 1
 391 347 l 1
 307 347 l 1
 307.155051026 333.355509736 307.213938769 319.59081537 307.213938769 305.750647547 c 0
 307.213938769 262.021366864 306.626061231 217.538633136 306.626061231 173.713352453 c 0
 306.626061231 141.95120504 306.934846923 110.534388212 308 80 c 1
 318 65 329 52 340 38 c 1
 414 81 l 2
 416 82 418 83 420 83 c 0
 428 83 432 71 434 66 c 1
 427 62 303 -9 294 -15 c 0
 291 -16 287 -19 283 -19 c 0
 277 -19 270 -7 267 -3 c 0
 256 10 245 24 233 37 c 0
 229 42 223 53 216 54 c 0
 212 54 209 52 206 50 c 2
 187 39 l 2
 156 21 125 2 93 -15 c 0
 90 -17 87 -19 83 -19 c 0
 78 -19 67 -2 64 1 c 2
 20 53 l 1
 20 53 3 69 3 76 c 0
 3 82 11 89 15 93 c 0
 22 101 23 107 23 117 c 2
 23 347 l 1
 1 347 l 1
 6 361 21 406 22 414 c 0
 23 420 24 426 24 432 c 0
 24 440 23 448 23 456 c 2
 23 514 l 2
 23 518 22 524 22 529 c 0
 22 545 31 545 40 551 c 0
 78 575 108 599 137 634 c 0
 145 644 153 653 159 664 c 1
107 414 m 1
 223 414 l 1
 223 426 223.16 438.16 223.16 450.16 c 0
 223.16 468.16 222.8 485.8 221 502 c 1
 191 533 155 558 123 587 c 1
 122 587 l 1
 108 570 l 1
 106.934846923 552.247448714 106.626061231 533.990652504 106.626061231 515.498160387 c 0
 106.626061231 489.982295637 107.213938769 464.017704363 107.213938769 438.309839613 c 0
 107.213938769 430.173388316 107.155051026 422.062653338 107 414 c 1
202 73 m 1
 203 87 221 93 223 107 c 2
 223 187 l 1
 223 347 l 1
 107 347 l 1
 107.155051026 333.355509736 107.213938769 319.59081537 107.213938769 305.750647547 c 0
 107.213938769 262.021366864 106.626061231 217.538633136 106.626061231 173.713352453 c 0
 106.626061231 141.95120504 106.934846923 110.534388212 108 80 c 1
 118 65 129 52 140 38 c 1
 160 50 181 62 202 73 c 1
EndSplineSet
Validated: 1
EndChar

StartChar: ffi
Encoding: 64259 64259 9
Width: 511
Flags: HMW
HStem: 347 67<108 224 108 224 308 350> 475 20<470 471 471 471> 506 146<470 471 470 470>
VStem: 24 84<117 347 347 347> 224 84<187 347 347 347 347 429> 423 85 424 125<398 398>
LayerCount: 2
Fore
SplineSet
160 664 m 1xfc
 182 647 204 630 223 610 c 1
 224 588 224 564 224 541 c 1
 277 573 327 612 360 664 c 1
 365 661 375 657 375 648 c 2
 375 641 l 1
 375 624 l 2
 376 613 377 602 377 591 c 0
 378 574 380 557 380 540 c 1
 361 555 342 571 324 587 c 1
 323 587 l 1
 309 570 l 1
 307.934846923 552.247448714 307.626061231 533.990652504 307.626061231 515.498160387 c 0
 307.626061231 489.982295637 308.213938769 464.017704363 308.213938769 438.309839613 c 0
 308.213938769 430.173388316 308.155051026 422.062653338 308 414 c 1
 350 414 l 1
 350 347 l 1
 308 347 l 1
 308.155051026 333.355509736 308.213938769 319.59081537 308.213938769 305.750647547 c 0
 308.213938769 262.021366864 307.626061231 217.538633136 307.626061231 173.713352453 c 0
 307.626061231 141.95120504 307.934846923 110.534388212 309 80 c 1
 319 65 330 52 341 38 c 1
 389 65 l 1
 380 77 l 1
 395 89 410 101 423 115 c 1xfc
 424.065153077 147.309643341 424.373938769 180.501715297 424.373938769 214.083876008 c 0
 424.373938769 260.420403572 423.786061231 307.499596428 423.786061231 354.028123992 c 0
 423.786061231 368.754243882 423.844948974 383.425203582 424 398 c 1xfa
 442 398 l 1
 417 427 l 2
 415 430 409 435 409 440 c 2
 409 441 l 2
 409 447 419 452 423 456 c 2xfc
 470 495 l 1
 471 495 l 1
 542 410 l 2
 544 408 549 404 549 399 c 0xfa
 549 393 542 389 538 386 c 2
 519 370 l 2
 514 365 508 362 508 354 c 2
 508 76 l 1
 490 76 l 1
 514 47 l 2
 517 44 523 39 523 34 c 2
 523 33 l 2
 523 27 513 22 509 19 c 0
 493 5 477 -7 462 -21 c 1
 461 -21 l 1
 442 2 422 24 404 48 c 1
 373 33 344 14 314 -4 c 2
 292 -16 l 2
 290 -17 288 -19 285 -19 c 0
 277 -19 271 -7 267 -2 c 2
 235 36 l 1
 235 36 222 54 217 54 c 0
 213 54 210 52 207 50 c 2
 188 39 l 2
 157 21 126 2 94 -15 c 0
 91 -17 88 -19 84 -19 c 0
 79 -19 68 -2 65 1 c 2
 21 53 l 1
 21 53 4 69 4 76 c 0
 4 82 12 89 16 93 c 0
 23 101 24 107 24 117 c 2
 24 347 l 1
 2 347 l 1
 7 361 22 406 23 414 c 0
 24 420 25 426 25 432 c 0
 25 440 24 448 24 456 c 2
 24 514 l 2
 24 518 23 524 23 529 c 0
 23 545 32 545 41 551 c 0
 79 575 109 599 138 634 c 0
 146 644 154 653 160 664 c 1xfc
463 652 m 1
 530 652 l 1
 471 506 l 1
 470 506 l 1
 463 652 l 1
108 414 m 1
 224 414 l 1
 224 426 224.16 438.16 224.16 450.16 c 0
 224.16 468.16 223.8 485.8 222 502 c 1
 192 533 156 558 124 587 c 1
 123 587 l 1
 109 570 l 1
 107.934846923 552.247448714 107.626061231 533.990652504 107.626061231 515.498160387 c 0
 107.626061231 489.982295637 108.213938769 464.017704363 108.213938769 438.309839613 c 0
 108.213938769 430.173388316 108.155051026 422.062653338 108 414 c 1
203 73 m 1
 204 87 222 93 224 107 c 2
 224 187 l 1
 224 347 l 1
 108 347 l 1
 108.155051026 333.355509736 108.213938769 319.59081537 108.213938769 305.750647547 c 0
 108.213938769 262.021366864 107.626061231 217.538633136 107.626061231 173.713352453 c 0
 107.626061231 141.95120504 107.934846923 110.534388212 109 80 c 1
 119 65 130 52 141 38 c 1
 161 50 182 62 203 73 c 1
EndSplineSet
Validated: 1
EndChar

StartChar: exclam
Encoding: 33 33 11
Width: 278
Flags: HMW
VStem: 79 119<38 39 38 39>
LayerCount: 2
Fore
SplineSet
138 706 m 1
 158 686 179 667 197 646 c 1
 183 482 165 320 150 157 c 1
 127 157 l 1
 113 321 93 480 80 646 c 1
 98 667 118 686 138 706 c 1
138 98 m 1
 198 39 l 1
 198 38 l 1
 139 -21 l 1
 138 -21 l 1
 79 38 l 1
 79 39 l 1
 138 98 l 1
EndSplineSet
Validated: 1
EndChar

StartChar: quoteright
Encoding: 8217 8217 13
Width: 128
Flags: HMW
HStem: 543 134<22 29>
LayerCount: 2
Fore
SplineSet
22 677 m 1
 106 677 l 1
 68 555 l 1
 63 545 l 1
 55.8 543.2 47.52 542.84 39.024 542.84 c 0
 33.36 542.84 27.6 543 22 543 c 1
 22 677 l 1
EndSplineSet
Validated: 1
EndChar

StartChar: parenleft
Encoding: 40 40 14
Width: 389
Flags: HMW
VStem: 100 69<161 314 161 314>
LayerCount: 2
Fore
SplineSet
301 739 m 0
 305 742 313 751 321 751 c 0
 327 751 332 747 332 742 c 0
 332 733 323 727 318 722 c 0
 285 685 263 653 239 607 c 0
 185 498 169 374 169 254 c 0
 169 68 207 -83 296 -194 c 0
 307 -208 318 -220 329 -232 c 0
 331 -234 332 -237 332 -240 c 0
 332 -245 328 -249 323 -249 c 0
 308 -249 274 -212 265 -203 c 0
 162 -100 100 62 100 251 c 0
 100 377 126 493 183 596 c 0
 218 657 252 695 301 739 c 0
EndSplineSet
Validated: 1
EndChar

StartChar: parenright
Encoding: 41 41 15
Width: 389
Flags: HMW
VStem: 219 69<194.5 257.5 192.5 345.5>
LayerCount: 2
Fore
SplineSet
56 742 m 0
 56 747 60 751 66 751 c 0
 79 751 111 717 119 709 c 0
 217 611 281 461 287 287 c 0
 287 275 288 263 288 252 c 0
 288 133 264 14 206 -91 c 0
 178 -142 131 -202 83 -240 c 0
 80 -243 74 -249 67 -249 c 0
 60 -249 56 -245 56 -239 c 0
 56 -231 67 -223 71 -218 c 0
 80 -208 89 -198 98 -187 c 0
 121 -157 140 -124 156 -90 c 0
 205 17 219 136 219 253 c 0
 219 438 178 592 88 701 c 2
 69 723 l 2
 66 726 56 734 56 742 c 0
EndSplineSet
Validated: 1
EndChar

StartChar: comma
Encoding: 44 44 16
Width: 278
Flags: W
HStem: -105 22<79 109.036>
VStem: 138 60<-38.0881 37.5>
LayerCount: 2
Fore
SplineSet
138 98 m 1
 153 86 166 71 180 57 c 0
 186 51 198 43 198 32 c 0
 198 22 193 1 190 -9 c 0
 174 -58 130 -96 79 -105 c 1
 79 -83 l 1
 102 -81 123 -67 133 -46 c 0
 135 -41 138 -34 138 -28 c 0
 138 -16 125 -8 119 -2 c 2
 79 38 l 1
 79 39 l 1
 138 98 l 1
EndSplineSet
Validated: 1
EndChar

StartChar: hyphen
Encoding: 45 45 17
Width: 500
Flags: W
HStem: 282 22<0 499>
LayerCount: 2
Fore
SplineSet
0 304 m 1
 499 304 l 1
 499 282 l 1
 0 282 l 1
 0 304 l 1
EndSplineSet
Validated: 1
EndChar

StartChar: period
Encoding: 46 46 18
Width: 278
Flags: HMW
VStem: 79 119<38 39 38 39>
LayerCount: 2
Fore
SplineSet
138 98 m 1
 198 39 l 1
 198 38 l 1
 139 -21 l 1
 138 -21 l 1
 79 38 l 1
 79 39 l 1
 138 98 l 1
EndSplineSet
Validated: 1
EndChar

StartChar: zero
Encoding: 48 48 19
Width: 435
Flags: HMW
VStem: 343 77<255 307>
LayerCount: 2
Fore
SplineSet
147 547 m 1
 167 562 217 600 222 603 c 0
 225 606 228 608 232 608 c 0
 239 608 247 602 253 599 c 0
 345 548 408 452 419 343 c 0
 420 333 420 324 420 314 c 0
 420 196 358 120 295 55 c 0
 291 51 289 47 285 43 c 0
 270 29 252 17 236 5 c 0
 227 -3 217 -12 207 -18 c 0
 206 -19 204 -19 203 -19 c 0
 194 -19 166 3 160 8 c 0
 86 65 14 168 14 293 c 0
 14 396 69 468 124 523 c 0
 131 530 139 539 148 544 c 1
 147 547 l 1
267 61 m 1
 275 72 285 82 293 93 c 0
 321 135 343 185 343 249 c 0
 343 365 277 461 200 515 c 1
 200 515 179 532 171 532 c 0
 165 530 149 512 145 506 c 0
 121 478 101 444 94 408 c 0
 91 408 90 364 90 364 c 1
 90 364 91 321 93 321 c 0
 105 246 142 178 194 123 c 0
 216 99 242 81 267 61 c 1
EndSplineSet
Validated: 1
EndChar

StartChar: one
Encoding: 49 49 20
Width: 283
Flags: HMW
VStem: 137 100<193 464 464 464>
LayerCount: 2
Fore
SplineSet
217 593 m 1
 223 590 233 587 236 582 c 0
 237 582 237.25 574.75 237.25 567 c 0
 237.25 559.25 237 551 237 549 c 2
 237 176 l 1
 237 176 237 152 240 152 c 0
 244 141 252 134 259 125 c 1
 188 124 134 74 84 29 c 0
 74 21 65 12 55 4 c 0
 52 1 48 -4 43 -4 c 0
 37 -4 30 5 27 10 c 1
 42 20 55 33 68 45 c 0
 93 68 116 95 129 127 c 0
 137 149 137 170 137 193 c 2
 137 464 l 1
 100 441 62 419 17 404 c 1
 11 425 l 1
 99 452 177 513 217 593 c 1
EndSplineSet
Validated: 1
EndChar

StartChar: two
Encoding: 50 50 21
Width: 450
Flags: HMW
VStem: 59 24<357.5 366 354.5 393> 296 101
LayerCount: 2
Fore
SplineSet
76 298 m 1
 65 321 59 345 59 370 c 0
 59 416 77 461 108 494 c 0
 125 511 222 574 254 595 c 0
 257 597 269 608 277 608 c 0
 284 606 300 590 304 586 c 0
 339 551 380 501 392 443 c 0
 396 426 397 409 397 392 c 0
 397 334 360 287 317 253 c 0
 245 196 156 164 89 101 c 1
 143 124 207 133 277 133 c 0
 342 133 394 108 435 70 c 1
 435 69 l 1
 365 -21 l 1
 357 -16 350 -10 342 -5 c 0
 304 21 242 46 179 46 c 2
 154 46 l 1
 131 46 l 2
 96 46 51 45 31 13 c 0
 28 8 26 3 25 -2 c 1
 20 -1 16 0 11 2 c 0
 9 2 6 3 5 6 c 2
 5 6 5 15 7 15 c 0
 9 23 12 30 16 37 c 0
 49 104 103 141 158 186 c 0
 207 228 289 290 296 380 c 0
 297 385 297 391 297 397 c 0
 297 449 246 482 194 482 c 0
 129 482 90 430 84 376 c 0
 84 372 83 368 83 364 c 0
 83 345 89 326 96 307 c 1
 76 298 l 1
EndSplineSet
Validated: 1
EndChar

StartChar: three
Encoding: 51 51 22
Width: 445
Flags: HMW
HStem: -21 23 296 22<111 117.5>
VStem: 77 22<429 444.5>
LayerCount: 2
Fore
SplineSet
77 429 m 1
 77 460 87 492 109 514 c 0
 125 529 230 581 265 601 c 0
 269 604 277 608 282 608 c 0
 289 608 317 581 322 576 c 0
 359 539 395 486 413 428 c 0
 414 425 416 421 416 417 c 0
 416 409 406 403 402 400 c 0
 373 374 322 345 283 329 c 0
 268 323 252 319 237 313 c 1
 298 310 371 292 403 253 c 0
 422 231 430 204 430 176 c 0
 430 129 410 85 384 56 c 0
 341 6 275 -21 209 -21 c 0
 137 -21 79 9 38 50 c 1
 20 71 l 2
 18 74 16 77 16 80 c 0
 16 85 35 112 38 117 c 0
 54 142 72 167 87 193 c 1
 93 188 103 183 103 171 c 0
 103 166 102 162 102 158 c 0
 102 91 126 14 192 2 c 0
 200 1 208 1 216 1 c 0
 240 2 262 15 278 32 c 0
 304 60 317 100 317 138 c 2
 317 142 l 2
 317 152 315 162 312 172 c 0
 294 244 217 283 149 293 c 0
 136 295 124 296 111 296 c 1
 111 318 l 1
 190 318 241 342 291 371 c 0
 295 374 305 378 305 386 c 0
 305 390 302 395 301 399 c 0
 295 414 288 429 278 442 c 0
 255 473 220 496 178 496 c 0
 139 496 99 470 99 429 c 1
 77 429 l 1
EndSplineSet
Validated: 1
EndChar

StartChar: four
Encoding: 52 52 23
Width: 517
Flags: HMW
HStem: -10 22<147 163> 204 84<93 273 93 273 14 273 373 384>
VStem: 273 100<196.5 204 186.5 481>
LayerCount: 2
Fore
SplineSet
357 604 m 1
 372 587 l 1
 373.065153077 552.915101531 373.373938769 517.821713215 373.373938769 482.301691253 c 0
 373.373938769 433.291310684 372.786061231 383.468689316 372.786061231 334.362308747 c 0
 372.786061231 318.820307196 372.844948974 303.350051546 373 288 c 1
 423 288 l 1
 438 288 l 2
 459 288 473 294 483 307 c 1
 491 305 495 299 502 296 c 1
 480 266 461 233 437 205 c 1
 417 204 395 204 373 204 c 1
 373 169 373 134 374 100 c 1
 380 84 386 69 395 56 c 1
 396 35 l 1
 342 35 292 12 241 -2 c 0
 210 -10 179 -10 147 -10 c 1
 147 12 l 1
 198 12 255 40 269 93 c 1
 272.6 93 273.32 127.56 273.32 158.448 c 0
 273.32 179.04 273 198 273 204 c 1
 14 204 l 1
 15 235 l 1
 41 268 71 296 99 327 c 2
 357 604 l 1
93 288 m 1
 273 288 l 1
 273 481 l 1
 93 288 l 1
EndSplineSet
Validated: 1
EndChar

StartChar: five
Encoding: 53 53 24
Width: 435
Flags: HMW
HStem: -21 33<194 202.5 194 202.5>
LayerCount: 2
Fore
SplineSet
34 275 m 1
 35 282 153 598 155 603 c 0
 157 606 158 610 163 610 c 0
 168 610 175 607 180 606 c 0
 222 598 270 591 312 583 c 0
 312 580 358 577 358 577 c 2
 379 577 399 588 416 598 c 1
 423 578 l 1
 408 545 391 514 374 483 c 1
 367 476 l 1
 293 485 225 501 153 513 c 1
 88 352 l 1
 121 391 167 431 236 431 c 0
 330 431 399 357 416 275 c 0
 419 275 420 232 420 232 c 1
 420 232 419 194 417 194 c 0
 405 102 345 16 254 -12 c 0
 234 -18 213 -21 192 -21 c 0
 112 -21 38 25 3 87 c 0
 1 90 -6 100 -6 107 c 0
 -6 113 2 118 7 121 c 2
 55 162 l 2
 59 165 66 174 72 174 c 0
 79 174 85 164 86 159 c 0
 88 153 88 146 88 140 c 0
 94 84 120 27 173 14 c 0
 181 12 190 12 198 12 c 0
 207 12 217 14 226 17 c 0
 291 34 332 102 332 167 c 0
 332 239 286 293 229 316 c 0
 211 323 192 326 174 326 c 0
 120 326 81 302 57 270 c 0
 55 268 53 266 51 266 c 0
 45 266 38 272 34 275 c 1
EndSplineSet
Validated: 1
EndChar

StartChar: six
Encoding: 54 54 25
Width: 435
Flags: HMW
HStem: 577 22<325 375>
VStem: 14 96<278.5 286 286 287 278.5 294> 333 87<157.5 248.5>
LayerCount: 2
Fore
SplineSet
108 319 m 1
 117 325 212 407 239 428 c 0
 243 432 248 437 253 438 c 0
 261 438 287 428 294 425 c 0
 337 405 374 371 395 329 c 0
 409 303 420 267 420 230 c 0
 420 200 402 174 388 154 c 0
 361 117 289 40 251 0 c 0
 249 -2 236 -18 230 -20 c 2
 228 -20 l 2
 221 -20 212 -16 207 -13 c 0
 111 23 42 103 20 202 c 0
 16 224 14 246 14 269 c 0
 14 319 29 369 47 406 c 0
 108 528 241 599 375 599 c 1
 375 577 l 1
 275 577 181 519 136 429 c 0
 119 394 111 357 108 319 c 1
110 286 m 2
 110 271 114 256 118 242 c 0
 138 170 192 106 261 75 c 0
 266 73 274 68 280 68 c 0
 287 68 299 86 302 90 c 0
 321 115 333 142 333 173 c 0
 333 244 275 304 210 319 c 0
 200 322 189 323 179 323 c 0
 162 323 145 319 129 308 c 0
 121 303 110 297 110 287 c 2
 110 286 l 2
EndSplineSet
Validated: 1
EndChar

StartChar: seven
Encoding: 55 55 26
Width: 450
Flags: HMW
HStem: 488 100<97 152>
LayerCount: 2
Fore
SplineSet
419 604 m 1
 423 601 433 594 433 588 c 0
 433 584 428 580 426 578 c 0
 407 559 378 524 361 502 c 0
 298 418 252 316 243 210 c 0
 242 197 241 184 241 171 c 0
 241 132 249 87 258 52 c 0
 258 45 251 44 246 42 c 0
 195 22 148 -2 97 -21 c 1
 128 174 214 351 317 487 c 1
 182 487 l 2
 170 487 158 488 146 488 c 0
 90 488 50 464 35 421 c 1
 14 429 l 1
 74 595 l 1
 97 588 l 1
 108.93274899 588.11814603 120.935290402 588.166499638 132.987834561 588.166499638 c 0
 187.355022 588.166499638 242.739652557 587.182612788 297.32531974 587.182612788 c 0
 333.062585433 587.182612788 368.457389223 587.604338959 403 589 c 1
 419 604 l 1
EndSplineSet
Validated: 1
EndChar

StartChar: eight
Encoding: 56 56 27
Width: 435
Flags: W
HStem: -21.4053 113.405<141.333 281.999> 275 76<163 270> 589 20G<201 213.5>
VStem: 14 72<129.643 213.96> 36 60<385.5 476.737> 329 69<401.057 478.505> 358 63<141.688 235>
LayerCount: 2
Fore
SplineSet
132 287 m 1xf2
 105 299 79 311 59 333 c 0
 42 351 36 374 36 397 c 0xe8
 36 448 60 486 86 516 c 0
 100 531 117 543 133 556 c 2
 183 595 l 2
 189 600 197 609 205 609 c 2
 208 609 l 2
 219 609 259 598 270 594 c 0
 326 576 390 549 398 478 c 1
 398 469 l 2xf4
 398 414 365 383 332 359 c 0
 322 352 311 347 302 339 c 1
 331 333 374 309 393 288 c 0
 409 269 421 250 421 220 c 0
 421 183 403 145 384 115 c 0
 378 105 295 -8 291 -13 c 0
 288 -16 286 -19 282 -21 c 0
 282 -21.2823978457 280.684149036 -21.4052986049 278.412780178 -21.4052986049 c 0
 264.597844604 -21.4052986049 215.435204309 -16.8588010772 212 -16 c 0
 158 -8 100 9 59 46 c 0
 31 71 14 108 14 145 c 0
 14 220 79 263 132 287 c 1xf2
96 455 m 0
 96 385 193 371 256 354 c 0
 260 353 265 351 270 351 c 0
 279 351 288 359 294 363 c 0
 314 378 329 399 329 425 c 0xec
 329 506 231 518 157 530 c 0
 154 531 150 532 146 532 c 0
 136 532 132 525 125 521 c 0
 107 505 96 479 96 455 c 0
86 185 m 0xf2
 86 140 116 116 149 105 c 0
 187 92 228 92 267 92 c 0
 284 92 301 92 318 93 c 0
 321 93 324 92 328 92 c 0
 339 92 343 105 346 113 c 0
 352 129 358 147 358 164 c 0
 358 226 290 242 241 255 c 2
 214 262 l 2
 202 265 168 275 163 275 c 0
 153 275 143 267 136 262 c 0
 108 244 86 218 86 185 c 0xf2
EndSplineSet
Validated: 1
EndChar

StartChar: nine
Encoding: 57 57 28
Width: 435
Flags: HMW
HStem: -10 22<59 109 59 126>
VStem: 324 95
LayerCount: 2
Fore
SplineSet
326 270 m 1
 317 264 222 182 195 161 c 0
 191 157 186 152 181 151 c 0
 173 151 147 161 140 164 c 0
 97 184 60 218 39 260 c 0
 25 286 14 322 14 359 c 0
 14 389 32 415 46 435 c 0
 73 472 145 549 183 589 c 0
 185 591 198 607 204 609 c 2
 206 609 l 2
 213 609 222 605 227 602 c 0
 323 566 392 486 414 387 c 0
 418 365 420 343 420 320 c 0
 420 268 406 221 387 183 c 0
 326 61 193 -10 59 -10 c 1
 59 12 l 1
 159 12 253 70 298 160 c 0
 315 195 323 232 326 270 c 1
101 407 m 1
 109 340 159 285 224 270 c 0
 234 267 245 266 255 266 c 0
 272 266 289 270 305 281 c 0
 313 286 324 292 324 302 c 2
 324 303 l 2
 324 318 320 333 316 348 c 0
 300 404 264 454 217 488 c 0
 203 499 159 521 154 521 c 0
 147 521 134 503 131 498 c 0
 113 474 101 447 101 417 c 2
 101 407 l 1
EndSplineSet
Validated: 1
EndChar

StartChar: colon
Encoding: 58 58 29
Width: 278
Flags: HMW
VStem: 79 119<38 39 38 39 435 436>
LayerCount: 2
Fore
SplineSet
138 495 m 1
 198 436 l 1
 198 435 l 1
 139 376 l 1
 138 376 l 1
 79 435 l 1
 79 436 l 1
 138 495 l 1
138 98 m 1
 198 39 l 1
 198 38 l 1
 139 -21 l 1
 138 -21 l 1
 79 38 l 1
 79 39 l 1
 138 98 l 1
EndSplineSet
Validated: 1
EndChar

StartChar: semicolon
Encoding: 59 59 30
Width: 278
Flags: HMW
VStem: 79 119<-105 37.5 -83 37.5 27 39 27 39 435 436>
LayerCount: 2
Fore
SplineSet
138 495 m 1
 198 436 l 1
 198 435 l 1
 139 376 l 1
 138 376 l 1
 79 435 l 1
 79 436 l 1
 138 495 l 1
138 98 m 1
 153 86 166 71 180 57 c 0
 186 51 198 43 198 32 c 0
 198 22 193 1 190 -9 c 0
 174 -58 130 -96 79 -105 c 1
 79 -83 l 1
 102 -81 123 -67 133 -46 c 0
 135 -41 138 -34 138 -28 c 0
 138 -16 125 -8 119 -2 c 2
 79 38 l 1
 79 39 l 1
 138 98 l 1
EndSplineSet
Validated: 1
EndChar

StartChar: equal
Encoding: 61 61 31
Width: 156
Flags: HMW
LayerCount: 2
Fore
SplineSet
140 430 m 1
 140.5 416.5 141 402 141 387.625 c 0
 141 373.25 140.5 359 139 346 c 1
 105 313 68 284 31 254 c 1
 31 282 31 310 32 337 c 1
 66 370 104 399 140 430 c 1
140 220 m 1
 140.5 206.5 141 192 141 177.625 c 0
 141 163.25 140.5 149 139 136 c 1
 105 103 68 74 31 44 c 1
 31 72 31 100 32 127 c 1
 66 160 104 189 140 220 c 1
EndSplineSet
Validated: 1
EndChar

StartChar: question
Encoding: 63 63 32
Width: 450
Flags: HMW
VStem: 58 26<407 413.5 404 456.5> 214 22<157 198.5 157 210> 297 100<455 485.5>
LayerCount: 2
Fore
SplineSet
224 706 m 1
 235 697 301 634 314 621 c 0
 348 587 397 533 397 459 c 0
 397 416 380 386 357 355 c 0
 311 294 236 240 236 157 c 1
 214 157 l 1
 214 263 292 342 297 455 c 0
 297 516 256 550 220 579 c 0
 214 584 197 598 194 598 c 2
 193 598 l 2
 187 598 182 590 179 586 c 0
 148 553 112 505 95 460 c 0
 89 442 84 423 84 404 c 0
 85 386 89 370 96 353 c 1
 76 344 l 1
 64 368 58 394 58 420 c 0
 58 493 101 564 139 611 c 0
 144 618 154 626 154 635 c 2
 154 636 l 1
 224 706 l 1
224 98 m 1
 284 39 l 1
 284 38 l 1
 225 -21 l 1
 224 -21 l 1
 165 38 l 1
 165 39 l 1
 224 98 l 1
EndSplineSet
Validated: 1
EndChar

StartChar: at
Encoding: 64 64 33
Width: 360
Flags: W
HStem: 208 21<133.697 225> 427 66<171 229>
VStem: 35.6569 84.3431<113.412 158.689> 42 21<281.97 351.428> 225.16 84.0539<114.817 208 230 415.391>
LayerCount: 2
Fore
SplineSet
101 225 m 1xe8
 76 242 42 268 42 311 c 0xd8
 42 350 55 366 75 386 c 0
 98 409 127 426 153 445 c 2
 202 479 l 2
 206 481 217 493 226 493 c 0
 232 493 320 440 341 429 c 1
 331 419 320 410 310 400 c 1
 308.934846923 363.784795376 308.626061231 326.056855982 308.626061231 287.621828866 c 0
 308.626061231 234.589336145 309.213938769 180.210663855 309.213938769 126.602171134 c 0
 309.213938769 109.635266479 309.155051026 92.7455107779 309 76 c 1
 291 76 l 1
 326 32 l 1
 263 -21 l 1
 262 -21 l 1
 202 50 l 1
 195 55 l 1
 155 34 120 8 83 -15 c 1
 73 -19 l 1
 43 9 20 44 -8 75 c 1
 -8 76 l 1
 6 88 21 100 34 113 c 1
 35.1715728753 121.786796564 35.6568542495 130.573593129 35.6568542495 139.56139982 c 0
 35.6568542495 145.916738879 35.4142135624 152.372583002 35 159 c 1
 14 202 l 1
 101 225 l 1xe8
225 230 m 1
 225 386 l 1
 225 392 l 2
 225 405 214 407 207 413 c 0
 199 418 190 427 178 427 c 0
 164 427 133 404 123 396 c 0
 104 383 82 367 70 347 c 0
 65 338 63 329 63 320 c 0
 63 275 102 244 141 234 c 0
 156 230 171 229 186 229 c 0
 199 229 212 230 225 230 c 1
181 77 m 1
 195 89 210 100 223 114 c 1
 224.8 131.4 225.16 150.24 225.16 169.44 c 0
 225.16 182.24 225 195.2 225 208 c 1
 172 208 l 1
 163 208 l 2
 129 208 120 185 120 153 c 2
 120 136 l 1
 120 76 l 1xe8
 102 76 l 1
 111 65 119 53 131 45 c 1
 150 53 165 64 182 74 c 1
 181 77 l 1
EndSplineSet
Validated: 1
EndChar

StartChar: A
Encoding: 65 65 34
Width: 619
Flags: W
HStem: 228 84<254 407> 534 21G<269.5 274> 633 99<200.477 371.538> 676 11.0625<575.572 604>
VStem: 27 43<336.988 499.417> 74 41<-4.33851 72.5698> 407 100<153.141 228 312 575.094>
LayerCount: 2
Fore
SplineSet
169 210 m 1xde
 121 234 78 279 53 327 c 0
 35 363 27 401 27 440 c 0
 27 545 87 651 181 701 c 0
 218 720 259 732 301 732 c 0xee
 363 732 415 710 457 684 c 0
 463 681 480 670 484 670 c 1
 484 669 498 675 499 675 c 0
 507 678 515 680 523 682 c 1
 523 686.5 560.125 687.0625 585.015625 687.0625 c 0
 593.3125 687.0625 600.25 687 604 687 c 1
 604 676 l 1
 548 676 522 624 512 581 c 0
 507 560 507 539 507 518 c 2
 507 159 l 1
 507 152 l 2
 507 137 508 123 520 112 c 0
 528 105 539 100 550 100 c 0
 579 100 587 128 604 142 c 1
 604 131 604 120 603 110 c 1
 571 71 536 35 503 -3 c 1
 485 -20 l 1
 460 18 431 53 408 93 c 1
 407 120 l 1
 290 -10 l 1
 279 -19 l 1
 221 8 171 43 116 73 c 1
 115 71 115 68 115 66 c 0
 115 59 120 52 122 44 c 0
 126 34 128 22 128 11 c 0
 128 -8 117 -21 101 -21 c 0
 82 -21 74 -3 74 14 c 0
 74 47 92 76 106 100 c 2
 146 169 l 2
 154 183 163 196 169 210 c 1xde
255 534 m 1
 284 567 329 593 373 613 c 1
 340 623 322 633 283 633 c 0
 254 633 225 626 198 613 c 0
 122 577 70 492 70 407 c 0
 70 319 123 263 181 228 c 1
 236 325 l 1
 380 575 l 1
 332 568 293 555 255 534 c 1
254 312 m 1
 407 312 l 1
 407 576 l 1
 406 576 l 1
 350 477 l 1
 254 312 l 1
167 159 m 1
 182 153 195 143 209 135 c 2
 282 93 l 1
 282 93 322 69 327 68 c 0
 332 68 336 73 338 76 c 2
 361 101 l 2
 371 112 403 146 406 153 c 0
 407 156 408 160 408 163 c 0
 408 168 407 173 407 177 c 2
 407 228 l 1
 223 228 l 1
 207 226 l 1
 192 205 180 182 167 159 c 1
EndSplineSet
Validated: 1
EndChar

StartChar: B
Encoding: 66 66 35
Width: 623
Flags: W
HStem: 581 21G<25 32.5> 645 65<98.5895 177.727>
VStem: 196 100<166 263.242 384 505 515.953 554.483 582 626.4> 325 20<161 374 399 577> 488 100<164 308>
LayerCount: 2
Fore
SplineSet
15 582 m 1
 20 596 30 610 39 623 c 0
 65 663 103 710 169 710 c 0
 214 710 257 686 280 645 c 0
 290 626 295 604 296 582 c 1
 458 706 l 1
 459 706 l 1
 568 563 l 1
 575 550 l 1
 550 523 517 505 489 482 c 1
 608 428 l 1
 597 412 588 414 588 391 c 2
 588 380 l 2
 588 348 588 311 588 273 c 0
 588 236 588 198 587 164 c 1
 587 164 588 142 589 142 c 0
 590 131 593 122 603 116 c 1
 603 115 l 1
 589 113 576 111 563 106 c 0
 510 83 475 28 448 -21 c 1
 439 -14 432 -6 423 1 c 0
 407 13 391 24 373 34 c 0
 329 57 280 69 230 69 c 0
 159 69 91 42 46 7 c 0
 35 -2 25 -12 14 -21 c 1
 25 50 74 112 137 144 c 0
 155 153 176 162 196 164 c 1
 196 282 119 360 37 409 c 1
 44 418 64 431 74 439 c 2
 156 502 l 1
 181 521 l 2
 191 527 196 532 196 545 c 2
 196 564 l 2
 196 577 196 591 191 603 c 0
 181 629 154 645 127 645 c 0
 90 645 62 619 45 595 c 0
 40 588 38 581 27 581 c 0
 23 581 18 582 15 582 c 1
345 399 m 1
 389 432 431 467 476 498 c 1
 390 612 l 1
 381 618 l 1
 367 610 354 601 345 588 c 1
 345 399 l 1
196 505 m 1
 174 489 154 471 131 456 c 1
 127 450 l 1
 131 443 138 438 144 432 c 2
 196 384 l 1
 196 505 l 1
296 166 m 1
 325 161 l 1
 325 577 l 1
 316 570 306 563 298 555 c 1
 296 544 295 531 295 518 c 0
 295 502 296 486 296 470 c 0
 296 467 296 463 296 459 c 2
 296 166 l 1
345 156 m 1
 402 144 445 117 489 89 c 1
 489 156 488 223 488 291 c 1
 486 308 l 1
 440 331 393 352 346 374 c 1
 345 348 345 321 345 294 c 0
 345 265 345 235 345 205 c 0
 345 189 345 172 345 156 c 1
EndSplineSet
Validated: 1
EndChar

StartChar: C
Encoding: 67 67 36
Width: 633
Flags: HMW
VStem: 14 77<340 352.5 340 369.5> 192 120<308 350 350 533 533 533> 424 22<112.5 114 114 496 496 501.5>
LayerCount: 2
Fore
SplineSet
327 633 m 1
 425 679 l 1
 436 682 l 1
 481 649 521 611 565 576 c 1
 577 568 l 1
 591 572 603 578 615 584 c 1
 614 562 l 1
 538 470 l 1
 529 464 l 1
 500 485 474 510 446 532 c 1
 446 114 l 2
 446 111 446 107 448 105 c 0
 451 103 456 103 459 103 c 0
 469 102 479 102 489 102 c 0
 534 103 576 117 615 139 c 1
 615 136 616 131 616 126 c 0
 616 114 609 113 602 107 c 2
 576 87 l 1
 448 -12 l 2
 443 -16 438 -20 432 -20 c 0
 414 -20 351 -2 334 4 c 0
 229 41 128 111 65 199 c 0
 35 241 14 292 14 343 c 0
 14 396 37 437 63 467 c 0
 112 527 185 558 257 594 c 0
 260 595 317 625 329 630 c 1
 327 633 l 1
192 533 m 1
 137 501 103 441 93 379 c 0
 92 369 91 358 91 347 c 0
 91 333 92 318 97 305 c 0
 112 267 145 238 177 215 c 1
 188 245 192 270 192 308 c 2
 192 350 l 1
 192 533 l 1
424 107 m 1
 424 496 l 2
 424 507 425 518 425 529 c 0
 425 552 421 553 408 564 c 0
 394 576 380 588 366 599 c 0
 361 603 354 612 347 613 c 0
 342 613 336 609 331 606 c 0
 321 602 312 599 312 585 c 2
 312 574 l 1
 312 298 l 1
 312 288 l 2
 312 268 318 256 330 246 c 0
 334 243 338 241 341 237 c 1
 205 196 l 1
 271 149 334 122 424 107 c 1
EndSplineSet
Validated: 1
EndChar

StartChar: D
Encoding: 68 68 37
Width: 698
Flags: HMW
HStem: 291 20<490.5 511.5> 394 20<493.5 511.5> 584 100<147.5 157 157 167 167 183 183 310 358 358 358 406 425 511 425 425 511 513 513 517>
VStem: 187 100<361 392 392 399.5> 338 20<192 192 192 584> 406 19<188 246 292 414 439 443 443 449 449 584> 583 100<128 259 259 264 264 270.5 292 414 414 414 444 450 450 479 101 522 101 530.5>
LayerCount: 2
Fore
SplineSet
14 728 m 1
 25 728 l 1
 27 687 83 684 125 684 c 2
 167 684 l 1
 513 684 l 2
 558 684 585 679 613 661 c 0
 650 638 675 599 681 556 c 0
 683 544 684 530 684 518 c 0
 684 504 683 492 683 479 c 2
 683 101 l 1
 640 97 607 43 588 10 c 0
 582 0 575 -10 570 -21 c 1
 537 7 517 23 478 42 c 0
 433 62 384 71 334 71 c 0
 223 71 117 30 39 -14 c 0
 36 -16 31 -19 27 -19 c 0
 22 -18 17 -12 14 -8 c 1
 111 49 211 103 307 162 c 0
 317 172 327 182 338 192 c 1
 339.065153077 236.381378215 339.373938769 282.275491201 339.373938769 328.83193374 c 0
 339.373938769 393.070322139 338.786061231 458.569677861 338.786061231 523.09606626 c 0
 338.786061231 543.518447568 338.844948974 563.843366656 339 584 c 1
 292 535 287 465 287 400 c 2
 287 327 l 2
 287 305 287 283 284 261 c 0
 274 200 237 140 191 108 c 0
 181 100 110 60 95 51 c 2
 70 37 l 2
 68 36 61 30 56 30 c 0
 51 30 43 37 43 42 c 0
 43 48 51 54 55 58 c 0
 94 100 143 169 143 252 c 0
 143 273 139 294 125 310 c 0
 118 318 105 330 92 330 c 0
 82 330 81 325 76 320 c 1
 75 320 l 1
 80 352 105 370 137 370 c 0
 154 370 172 366 187 361 c 1
 187 392 l 2
 187 407 187 423 191 438 c 0
 204 483 238 518 272 549 c 0
 284 560 296 574 310 583 c 1
 310 584 l 1
 183 584 l 1
 157 584 l 2
 138 584 119 585 100 591 c 0
 52 609 14 661 14 728 c 1
425 584 m 1
 425 449 l 1
 425 443 l 2
 425 435 430 431 436 429 c 0
 454 420 481 414 506 414 c 0
 517 414 569 422 580 433 c 0
 583 436 583 440 583 444 c 2
 583 450 l 1
 583 522 l 2
 583 539 580 557 571 566 c 0
 556 583 538 584 517 584 c 2
 511 584 l 1
 425 584 l 1
425 292 m 1
 449 302 471 311 503 311 c 0
 543 311 555 303 583 292 c 1
 583 414 l 1
 559 400 532 394 504 394 c 0
 476 394 449 400 425 414 c 1
 425 292 l 1
358 192 m 1
 406 188 l 1
 406 584 l 1
 358 584 l 1
 358 192 l 1
425 185 m 1
 477 178 541 153 583 128 c 1
 583 259 l 1
 583 264 l 2
 583 277 563 281 552 284 c 0
 536 289 520 291 503 291 c 0
 478 291 455 285 436 277 c 0
 428 272 424 271 424 259 c 0
 424 254 425 250 425 246 c 2
 425 185 l 1
EndSplineSet
Validated: 1
EndChar

StartChar: E
Encoding: 69 69 38
Width: 661
Flags: HMW
VStem: 14 77<337 355> 192 120 382 22<108 308 380 601 601 601 640 646 646 684> 523 26<485 495>
LayerCount: 2
Fore
SplineSet
482 706 m 1
 614 569 l 1
 625 559 l 1
 646 567 l 1
 646 556 l 2
 646 541 636 540 626 536 c 2
 579 515 l 2
 570 511 552 507 549 495 c 0
 549 487 565 482 571 479 c 0
 589 469 607 461 624 451 c 0
 631 448 646 444 646 433 c 0
 646 425 638 419 632 415 c 2
 569 367 l 1
 568 367 l 2
 565 369 489 411 481 411 c 0
 475 411 469 405 465 401 c 2
 435 378 l 1
 415 363 l 2
 411 360 406 357 405 352 c 0
 404 352 403.75 342.25 403.75 331.875 c 0
 403.75 321.5 404 310.5 404 308 c 2
 404 108 l 2
 404 92 417 90 428 85 c 0
 448 78 471 71 492 71 c 0
 508 71 528 76 541 83 c 0
 548 87 554 93 561 98 c 2
 594 123 l 2
 601 128 607 134 615 138 c 1
 615 135 616 130 616 126 c 0
 616 115 610 112 603 107 c 2
 577 87 l 1
 449 -11 l 2
 445 -14 441 -19 435 -19 c 2
 434 -19 l 2
 426 -19 324 35 314 41 c 2
 181 108 l 2
 178 109 116 140 107 147 c 0
 65 180 35 228 22 279 c 0
 16 302 14 325 14 349 c 0
 14 361 16 374 19 386 c 0
 39 467 119 508 189 539 c 2
 232 557 l 2
 297 583 319 592 369 620 c 0
 378 624 382 627 382 639 c 2
 382 646 l 1
 382 684 l 1
 404 684 l 1
 404 640 l 1
 410 643 450 658 458 666 c 0
 469 677 476 692 482 706 c 1
404 380 m 1
 432 404 463 425 492 448 c 0
 504 457 521 469 523 485 c 0
 523 491 519 495 515 499 c 2
 494 521 l 1
 404 615 l 1
 404 380 l 1
192 499 m 1
 145 471 91 422 91 345 c 0
 91 295 116 245 161 219 c 0
 171 213 181 208 192 205 c 1
 192 499 l 1
202 199 m 1
 382 108 l 1
 382 601 l 1
 359 589 336 577 314 563 c 1
 311.869693846 526.784795376 311.252122462 488.804733521 311.252122462 450.089252327 c 0
 311.252122462 396.669790222 312.427877538 341.850209778 312.427877538 288.334747673 c 0
 312.427877538 271.39728689 312.310102051 254.590459752 312 238 c 1
 258 238 238 218 202 200 c 1
 202 199 l 1
EndSplineSet
Validated: 1
EndChar

StartChar: F
Encoding: 70 70 39
Width: 783
Flags: W
HStem: -160 138<193.808 318.067> -58 59<78.9393 190> 323 90.3052<192.677 327 537 645> 505 21G<670 706.333> 551 20G<323 326.273> 686 20G<541.5 566>
VStem: 14 23<-108.169 -74.5922> 327 80<-16.4238 323 413 538.966> 457 80<22.4436 323 413 537.856>
LayerCount: 2
Fore
SplineSet
559 706 m 1xbf80
 573 699 586 689 600 681 c 2
 671 637 l 2
 686 627 702 614 719 614 c 0
 735 614 746 625 753 634 c 1
 760 633 762 627 768 625 c 1
 694 505 l 1
 646 532 602 562 555 590 c 1
 538 559 l 1
 536.934846923 542.667652817 536.626061231 525.578938248 536.626061231 508.181437988 c 0
 536.626061231 484.176438509 537.213938769 459.583561491 537.213938769 435.578562012 c 0
 537.213938769 427.981061752 537.155051026 420.442449235 537 413 c 1
 673 413 l 1
 649 332 l 1
 645 325 l 1
 633.827204925 323.197936278 621.225539042 322.694846019 608.037702212 322.694846019 c 0
 591.365225116 322.694846019 573.755882151 323.498925607 556.91243009 323.498925607 c 0
 550.112793945 323.498925607 543.437975464 323.367884312 537 323 c 1
 537 181 l 1
 537 156 l 2
 537 61 515 0 467 -58 c 0x7f80
 426 -107 347 -160 255 -160 c 0xbf80
 200 -160 176 -119 142 -88 c 0
 125 -72 103 -58 80 -58 c 0
 57 -58 46 -76 37 -93 c 0
 30 -107 31 -116 14 -116 c 1
 14 -45 80 -11 136 -2 c 0
 146 0 156 1 166 1 c 0x7f80
 214 1 232 -16 273 -21 c 0
 277 -22 281 -22 285 -22 c 0
 324 -22 327 21 327 50 c 2
 327 323 l 1
 292 323 l 2
 248 323 204 321 164 304 c 0
 145 295 130 284 114 271 c 1
 107 286 l 1
 128 323 154 355 176 391 c 1
 192 411 l 1
 206.416509774 412.802063722 222.261890356 413.305153981 238.693441885 413.305153981 c 0
 259.466724877 413.305153981 281.176873739 412.501074393 302.121131695 412.501074393 c 0
 310.576247245 412.501074393 318.906545131 412.632115688 327 413 c 1
 327 549 l 1
 319 571 l 1
 327 566 333 562 344 562 c 0
 360 562 385 568 399 573 c 0
 465 595 524 646 559 706 c 1xbf80
347 -92 m 1
 382 -71 430 -38 449 0 c 0
 457 19 457 38 457 58 c 2
 457 517 l 2
 457 527 457 535 446 538 c 0
 442 539 437 539 431 539 c 0
 414 539 406 534 406 517 c 0
 406 512 407 506 407 501 c 2
 407 70 l 1
 407 39 l 2
 407 4 392 -21 375 -43 c 0
 370 -49 350 -69 348 -74 c 0
 347 -76 347 -80 347 -83 c 2
 347 -92 l 1
EndSplineSet
Validated: 1
EndChar

StartChar: G
Encoding: 71 71 40
Width: 728
Flags: HMW
VStem: 42 75<250 360.5> 202 105<371 378.5 371 524> 375 22<64 78 169 181 263 320 378 559 559 560>
LayerCount: 2
Fore
SplineSet
403 706 m 1
 409 704 484 666 495 660 c 0
 519 648 539 636 572 636 c 0
 620 636 639 654 666 676 c 1
 682 662 l 1
 682 661 l 1
 516 476 l 2
 520 477 524 477 528 477 c 0
 629 477 713 396 713 296 c 0
 713 228 672 183 631 152 c 0
 582 112 525 83 472 48 c 0
 450 34 428 18 407 3 c 0
 390 -9 383 -22 357 -22 c 2
 341 -22 l 2
 250 -22 171 23 124 75 c 0
 71 133 42 211 42 289 c 0
 42 320 46 350 55 379 c 0
 85 475 167 569 277 596 c 0
 278 596 307 602 311 605 c 0
 316 608 319 613 323 617 c 2
 342 638 l 2
 362 660 384 682 403 706 c 1
397 378 m 1
 509 504 l 1
 397 560 l 1
 397 378 l 1
375 64 m 1
 375 559 l 2
 375 573 370 574 361 578 c 0
 351 582 339 589 327 589 c 0
 316 589 311 584 311 574 c 0
 311 563 310 551 310 540 c 0
 310 492 308 445 308 397 c 0
 308 390 307 382 307 375 c 0
 307 367 308 347 318 347 c 2
 319 347 l 1
 329 328 l 1
 266 293 206 255 142 221 c 1
 178 134 276 69 375 64 c 1
397 263 m 1
 565 359 l 1
 543 376 515 385 487 385 c 0
 456 385 425 372 408 355 c 0
 401 348 396 345 396 333 c 0
 396 328 397 324 397 320 c 2
 397 263 l 1
202 524 m 1
 190 512 179 500 169 487 c 0
 137 443 117 388 117 333 c 0
 117 314 120 288 125 269 c 0
 127 260 131 250 133 241 c 1
 159 255 185 275 197 303 c 0
 202 315 202 327 202 340 c 2
 202 524 l 1
397 169 m 1
 613 293 l 1
 592 332 l 1
 580 343 l 1
 529 321 486 289 438 264 c 0
 425 256 411 249 399 239 c 1
 397.2 226.4 396.84 212.36 396.84 197.96 c 0
 396.84 188.36 397 178.6 397 169 c 1
397 64 m 1
 499 69 591 129 615 217 c 0
 618 228 619 239 619 250 c 0
 619 258 618 266 618 274 c 1
 417 158 l 1
 399 146 l 1
 397.2 131 396.84 114.56 396.84 97.76 c 0
 396.84 86.56 397 75.2 397 64 c 1
EndSplineSet
Validated: 1
EndChar

StartChar: H
Encoding: 72 72 41
Width: 664
Flags: W
HStem: -111 90<49.1906 108.793> 9 104<309.222 372.375> 236 60<56.4065 116.14> 239 18<384.281 497.266> 339 17<385.362 493.845> 375 73<57.49 96.5664> 582 21G<14 26> 595 20G<527.167 551> 631 75<44.4142 161.445> 662 22<464.945 547> 671 13<311.362 345>
VStem: 14 101<-97.1836 -43.6591> 14 11<582 599.66> 134 91<142.779 218.427 435 571.29> 134 61<113.208 174.84> 270 90<168.828 230.138 240 357 388 403.906 428 605.594> 355 89<-160.252 -29.0032> 549 100<227 281>
LayerCount: 2
Fore
SplineSet
14 582 m 1xee8c40
 14 634 33 706 92 706 c 0xee8c40
 122 706 150 687 178 678 c 0
 190 673 202 671 214 670 c 0
 214 669.666666667 215.194444444 669.527777778 217.194444444 669.527777778 c 0
 227.194444444 669.527777778 257.333333333 673 259 673 c 0
 288 677 316 684 345 684 c 1
 345 671 l 1
 279 671 247 611 234 562 c 0
 226 530 225 497 225 465 c 2
 225 429 l 1
 225 293 l 1
 225 224 l 2xcc2c40
 224 193 215 163 202 140 c 0
 197 127 195 128 195 113 c 1
 223 135 253 158 265 193 c 0
 270 209 270 226 270 243 c 2
 270 493 l 2
 270 506 269 519 269 532 c 0
 269 560 272 587 289 610 c 0
 335 671 444 684 547 684 c 1
 547 662 l 1
 472 662 386 639 365 577 c 0
 361 566 360 554 360 542 c 2
 360 521 l 1
 360 428 l 1xcc4340
 523 591 l 1
 548 615 l 1
 554 604 561 594 568 584 c 0
 610 517 640 427 647 338 c 0
 648 338 649 281 649 281 c 1
 640 173 556 109 491 53 c 2
 442 11 l 2
 433 3 425 -6 415 -14 c 1
 415 -15 l 1
 440 -37 444 -76 444 -107 c 2
 444 -117 l 2
 444 -126 444 -134 440 -142 c 0
 432 -158 416 -166 399 -166 c 0
 372 -166 355 -147 355 -120 c 0xcd40c0
 355 -88 361 -56 376 -30 c 0
 391 -3 415 17 436 40 c 0
 473 82 508 132 530 189 c 0
 532 195 535 201 536 207 c 0
 536 218 506 227 496 231 c 0
 478 237 459 239 440 239 c 0
 418 239 391 235 373 227 c 0
 364 224 360 221 360 211 c 2
 360 197 l 2
 360 185 355 180 348 176 c 2
 331 162 l 2
 310 146 292 128 270 114 c 1
 270 113 l 1
 367 113 l 1
 389 113 l 2
 436 113 450 135 477 156 c 1
 477 146 l 2
 477 132 472 129 465 122 c 2
 361 18 l 2
 358 15 354 9 349 9 c 0
 343 9 330 19 326 22 c 0
 292 41 246 56 198 56 c 0
 126 56 81 23 48 -21 c 1
 65 -21 l 2
 74 -21 84 -22 93 -26 c 0
 108 -34 115 -50 115 -66 c 0xdd5140
 115 -92 96 -111 71 -111 c 0
 34 -111 14 -76 14 -43 c 0
 14 14 62 52 91 84 c 0
 109 103 134 129 134 165 c 0
 134 200 109 236 72 236 c 0
 57 236 46 230 35 222 c 1
 35 259 64 296 108 296 c 0
 117 296 126 294 135 292 c 1
 133 302 132 312 127 322 c 0
 106 363 56 372 14 375 c 1
 14 416 47 448 88 448 c 0
 104 448 120 443 135 435 c 1
 135 450 134 465 134 480 c 0
 134 534 153 577 184 613 c 1
 174 613 164 615 154 618 c 0
 132 624 112 631 90 631 c 0
 72 631 57 626 46 617 c 0
 34 611 27 598 25 582 c 1
 14 582 l 1xee8c40
478 523 m 1
 381 426 l 2
 375 420 365 412 361 404 c 0
 360 402 360 399 360 396 c 2
 360 388 l 1xcc0140
 360 388 360 376 361 376 c 0
 365 370 386 364 394 362 c 0
 409 358 424 356 439 356 c 0
 470 356 505 365 527 379 c 0
 532 382 537 383 537 390 c 0
 537 393 528 420 527 424 c 0
 519 446 510 467 499 487 c 0
 492 499 484 510 478 523 c 1
542 227 m 1
 549 282 l 1
 548 313 547 343 542 369 c 1
 512 352 483 339 439 339 c 0
 411 339 383 344 360 357 c 1
 360 240 l 1
 386 249 407 257 440 257 c 0xdc0140
 487 257 511 244 542 227 c 1
EndSplineSet
Validated: 1
EndChar

StartChar: I
Encoding: 73 73 42
Width: 614
Flags: HMW
HStem: 196 69<190 272> 446 100<82.5 107> 627 79<105.5 211.5>
VStem: 14 22<563 571.5 560 594.5> 318 69 427 90<239 346>
LayerCount: 2
Fore
SplineSet
48 522 m 1
 59 537 72 546 93 546 c 0
 123 546 142 524 142 496 c 0
 142 466 120 446 94 446 c 0
 40 446 18 503 15 549 c 0
 15 554 14 560 14 566 c 0
 14 623 44 656 80 679 c 0
 109 695 139 706 181 706 c 0
 242 706 299 681 358 669 c 0
 383 664 409 660 434 660 c 0
 505 660 535 669 587 685 c 0
 589 686 591 687 593 687 c 0
 597 687 600 684 600 680 c 0
 600 672 574 647 569 642 c 0
 561 634 550 628 543 619 c 0
 516 582 502 530 502 469 c 0
 502 401 517 333 517 264 c 0
 517 214 509 166 494 122 c 0
 459 19 385 -68 285 -114 c 0
 259 -126 230 -137 201 -141 c 1
 182 -107 143 -87 104 -87 c 0
 78 -87 58 -95 41 -107 c 0
 30 -114 30 -119 14 -119 c 2
 3 -119 l 1
 3 -32 85 14 155 21 c 0
 155 22 176 22 176 22 c 1
 209 18 l 2
 235 12 255 -3 273 -21 c 1
 278 -11 285 -3 290 7 c 0
 303 31 318 65 318 102 c 0
 312 162 259 196 205 196 c 0
 175 196 153 185 131 172 c 1
 145 233 213 265 272 265 c 1
 246 295 211 314 171 315 c 0
 157 315 144 311 131 309 c 1
 135 323 140 337 150 348 c 0
 168 371 196 382 224 382 c 0
 242 382 259 378 275 369 c 1
 277 387 285 406 292 422 c 0
 310 461 334 496 363 527 c 0
 376 541 390 558 406 568 c 1
 406 569 l 1
 398 568 390 567 383 567 c 0
 322 567 272 585 219 603 c 0
 187 614 158 627 121 627 c 0
 90 627 51 618 39 586 c 0
 38 581 36 575 36 568 c 0
 36 552 42 537 48 522 c 1
310 -76 m 1
 333 -63 352 -44 369 -24 c 0
 418 37 429 117 429 193 c 2
 427 346 l 2
 429 432 445 518 492 591 c 1
 471 585 471 581 459 569 c 0
 407 510 363 425 363 319 c 0
 363 253 388 183 388 117 c 0
 388 45 361 -24 310 -76 c 1
EndSplineSet
Validated: 1
EndChar

StartChar: J
Encoding: 74 74 43
Width: 614
Flags: HMW
HStem: 196 69<190 272> 446 100<82.5 107> 627 79<105.5 211.5>
VStem: 14 22<563 571.5 560 594.5> 318 69 427 90<239 346>
LayerCount: 2
Fore
SplineSet
48 522 m 1
 59 537 72 546 93 546 c 0
 123 546 142 524 142 496 c 0
 142 466 120 446 94 446 c 0
 40 446 18 503 15 549 c 0
 15 554 14 560 14 566 c 0
 14 623 44 656 80 679 c 0
 109 695 139 706 181 706 c 0
 242 706 299 681 358 669 c 0
 383 664 409 660 434 660 c 0
 505 660 535 669 587 685 c 0
 589 686 591 687 593 687 c 0
 597 687 600 684 600 680 c 0
 600 672 574 647 569 642 c 0
 561 634 550 628 543 619 c 0
 516 582 502 530 502 469 c 0
 502 401 517 333 517 264 c 0
 517 214 509 166 494 122 c 0
 459 19 385 -68 285 -114 c 0
 259 -126 230 -137 201 -141 c 1
 182 -107 143 -87 104 -87 c 0
 78 -87 58 -95 41 -107 c 0
 30 -114 30 -119 14 -119 c 2
 3 -119 l 1
 3 -32 85 14 155 21 c 0
 155 22 176 22 176 22 c 1
 209 18 l 2
 235 12 255 -3 273 -21 c 1
 278 -11 285 -3 290 7 c 0
 303 31 318 65 318 102 c 0
 312 162 259 196 205 196 c 0
 175 196 153 185 131 172 c 1
 145 233 213 265 272 265 c 1
 246 295 211 314 171 315 c 0
 157 315 144 311 131 309 c 1
 135 323 140 337 150 348 c 0
 168 371 196 382 224 382 c 0
 242 382 259 378 275 369 c 1
 277 387 285 406 292 422 c 0
 310 461 334 496 363 527 c 0
 376 541 390 558 406 568 c 1
 406 569 l 1
 398 568 390 567 383 567 c 0
 322 567 272 585 219 603 c 0
 187 614 158 627 121 627 c 0
 90 627 51 618 39 586 c 0
 38 581 36 575 36 568 c 0
 36 552 42 537 48 522 c 1
310 -76 m 1
 333 -63 352 -44 369 -24 c 0
 418 37 429 117 429 193 c 2
 427 346 l 2
 429 432 445 518 492 591 c 1
 471 585 471 581 459 569 c 0
 407 510 363 425 363 319 c 0
 363 253 388 183 388 117 c 0
 388 45 361 -24 310 -76 c 1
EndSplineSet
Validated: 1
EndChar

StartChar: K
Encoding: 75 75 44
Width: 756
Flags: W
HStem: 44 70<249.421 309.888 321 380.548> 258 44<144.755 156.148> 414 43<144.699 201.33> 532 21G<51.5 60.5> 543 85<267.455 363.124> 554 20G<536.051 579> 596 78<104.006 208.744> 686 20G<450 466>
VStem: 37 18<536.769 550.903> 234 98<288.818 322 322.007 384.998>
LayerCount: 2
Fore
SplineSet
454 706 m 1xe9c0
 466 687 l 1
 459 682 453 677 447 671 c 0
 426 647 415 615 400 586 c 0
 377 539 345 498 336 445 c 1
 333 445 332 425 332 402 c 0
 332 380 333 354 333 341 c 0
 333 331 332 322 332 322 c 2
 327 229 300 159 249 105 c 1
 258 107 266 108 275 109 c 0
 290 109 294 115 300 123 c 0
 337 165 354 224 362 284 c 0
 368 339 362 394 370 449 c 0
 381 515 414 578 455 630 c 0
 470 649 487 669 506 684 c 1
 509 679 515 673 515 667 c 0
 515 661 508 656 504 652 c 0
 470 618 438 571 417 526 c 0
 409 509 404 492 398 475 c 1
 571 574 l 1xe5c0
 579 556 l 1
 570 546 556 541 544 534 c 1
 559 504 576 476 592 448 c 1
 601 452 626 467 629 467 c 0
 636 467 640 455 642 450 c 1
 500 369 l 1
 500 369 500 368 500 368 c 1
 504 368 507 369 510 369 c 0
 546 369 554 345 566 319 c 2
 566 319 646 127 653 112 c 0
 657 102 662 88 676 88 c 0
 682 88 689 91 694 94 c 0
 712 104 728 121 740 138 c 1
 741 138 l 1
 741 127 l 2
 741 114 736 110 731 102 c 2
 731 102 653 -2 648 -10 c 0
 644 -16 641 -21 633 -21 c 0
 629 -21 625 -20 622 -19 c 0
 582 -7 566 38 552 73 c 2
 537 108 l 1
 442 -21 l 1
 433 -14 425 -6 416 1 c 0
 379 29 337 44 279 44 c 0
 187 44 96 22 19 -9 c 1
 9 11 l 1
 36 30 61 41 90 57 c 0
 103 65 114 76 125 87 c 0
 146 108 165 131 179 157 c 0
 183 163 184 169 184 176 c 0
 184 184 182 191 180 199 c 0
 169 232 140 258 104 258 c 1
 116 284 146 302 177 302 c 0
 194 302 210 297 225 288 c 1
 227 305 234 351 234 356 c 0
 234 371 222 379 213 385 c 0
 189 404 159 414 128 414 c 1
 133 422 139 430 146 437 c 0
 160 450 180 457 199 457 c 0
 219 457 235 450 249 443 c 1
 257 485 285 520 314 549 c 1
 303 545 292 543 281 543 c 0xe9c0
 239 543 216 575 185 588 c 0
 173 594 160 596 147 596 c 0
 104 596 66 567 55 532 c 1
 48 534 37 538 37 548 c 2
 37 555 l 1
 51 618 102 674 181 674 c 0xf3c0
 200 674 220 670 238 663 c 0
 271 650 302 628 338 628 c 0
 379 628 404 662 430 687 c 0
 437 694 446 700 454 706 c 1xe9c0
407 657 m 1
 407 657 404 653 404 653 c 1
 404 653 407 657 407 657 c 1
386 328 m 1
 506 397 l 1
 457 483 l 1
 435 471 413 459 393 445 c 1
 385 412 387 368 386 328 c 1
500 367 m 1
 500 367 498 368 498 368 c 1
 498 368 500 367 500 367 c 1
321 113 m 1
 334 113 346 114 359 114 c 0
 414 112 439 103 479 89 c 0
 482 88 485 86 488 86 c 0
 496 86 513 114 518 120 c 0
 521 124 525 128 525 133 c 0
 525 141 481 240 476 252 c 0
 470 267 465 284 455 296 c 0
 447 307 431 315 417 315 c 0
 407 315 399 310 392 306 c 0
 384 301 385 293 384 284 c 2
 378 241 l 2
 369 195 351 150 321 113 c 1
EndSplineSet
Validated: 9
EndChar

StartChar: L
Encoding: 76 76 45
Width: 654
Flags: W
HStem: 67 59<356 396.344 397.005 432.578> 274 45<164.685 182.804> 397 51<162.98 194.394> 522 21G<83 101.5> 587 63<302.771 400.542> 626 80<176.581 263.608> 636 17<556.7 608>
VStem: 83 18<532 550.106> 247 107<308.344 351.624> 387 92<255.483 453.639>
LayerCount: 2
Fore
SplineSet
83 532 m 2xf5c0
 83 533 114 595 120 606 c 0
 143 650 174 705 230 706 c 0xf5c0
 276 706 302 680 336 663 c 0
 352 655 367 650 384 650 c 0xf9c0
 426 650 443 690 471 706 c 1xf5c0
 474 701 480 695 480 689 c 0
 480 684 474 680 471 677 c 0
 457 663 435 619 424 599 c 0
 395 553 367 507 357 446 c 0
 354 424 354 403 354 381 c 2
 354 335 l 2
 354 270 345 218 317 177 c 0
 301 151 265 116 235 102 c 1
 235 101 l 1
 247 104 260 107 272 109 c 0
 280 111 288 111 295 116 c 0
 316 128 339 156 352 178 c 0
 380 227 385 284 387 339 c 2
 387 367 l 1
 391 462 386 568 455 622 c 0
 464 628 473 633 483 638 c 0
 518 652 556 653 594 653 c 2
 608 653 l 1
 608 636 l 1xf3c0
 559 636 510 615 488 569 c 0
 477 545 472 520 472 493 c 0
 472 482 473 455 474 455 c 0
 476 426 479 395 479 365 c 0
 479 292 452 226 409 173 c 0
 394 155 376 135 356 123 c 1
 356 122 l 1
 370 122 383 124 397 125 c 0
 397 126 404 126 413 126 c 0
 431 126 459 125 463 125 c 0
 498 123 528 115 565 115 c 0
 604 115 624 127 643 149 c 1
 644 149 l 1
 661 136 l 1
 661 135 l 1
 545 -21 l 1
 544 -21 l 1
 482 36 399 67 304 67 c 0
 211 67 122 41 51 7 c 0
 40 2 29 -4 18 -9 c 1
 10 12 l 1
 23 18 36 26 49 33 c 0
 64 40 80 46 94 54 c 0
 137 79 177 115 204 157 c 0
 208 163 217 174 217 185 c 0
 217 195 214 206 210 215 c 0
 196 250 162 274 124 274 c 1
 138 305 169 319 200 319 c 0
 216 319 232 315 246 308 c 1
 246 312 247 316 247 320 c 0
 247 334 224 353 216 360 c 0
 187 384 150 397 113 397 c 1
 126 427 164 448 199 448 c 0
 220 448 242 441 260 429 c 1
 262 443 267 457 272 470 c 0
 292 519 326 557 362 595 c 0
 376 610 392 623 404 639 c 1
 380 615 355 587 315 587 c 0xf9c0
 285 587 262 608 235 619 c 0
 223 624 211 626 198 626 c 0
 159 626 123 601 110 569 c 0
 105 558 101 545 101 533 c 0
 101 529 101 525 102 522 c 2
 83 532 l 2xf5c0
426 664 m 1
 426 664 421 658 421 658 c 1
 421 658 426 664 426 664 c 1
413 649 m 1
 420 657 l 1
 413 649 l 1
404 639 m 1
 413 649 l 1
 404 639 l 1
EndSplineSet
Validated: 5
EndChar

StartChar: M
Encoding: 77 77 46
Width: 938
Flags: HMW
HStem: 277 80<330 441 330 382 541 632> 686 20<430 430 728 729 729 729>
VStem: 3 22<-110 -107 -110 -81> 59 216 308 22<156 166 166 191 191 357> 441 100<165 175 175 184 184 277 165 277> 632 22<150 277 164 277 164 277 164 277 357 572 572 572> 746 99
LayerCount: 2
Fore
SplineSet
430 706 m 1
 460 673 l 2
 486 641 516 613 540 579 c 1
 541 550 541 520 541 490 c 1
 542 490 l 1
 602 564 667 633 728 706 c 1
 729 706 l 1
 861 553 l 1
 862 553 l 1
 885 580 l 1
 886 580 l 1
 901 565 l 1
 901 564 l 1
 888 550 877 536 864 522 c 0
 854 508 845 507 845 487 c 0
 845 481 846 474 846 469 c 2
 846 183 l 2
 846 172 845 161 845 150 c 0
 845 129 847 109 859 92 c 0
 865 82 877 71 889 71 c 0
 898 71 902 75 907 79 c 1
 908 79 l 1
 923 64 l 1
 923 63 l 1
 839 -21 l 1
 838 -21 l 1
 808 10 774 37 747 70 c 1
 745.894427191 107.589475506 745.552786405 146.401242248 745.552786405 185.844092496 c 0
 745.552786405 249.663964809 746.447213595 315.136035191 746.447213595 379.755907504 c 0
 746.447213595 419.693184943 746.105572809 459.304951685 745 498 c 1
 739 510 730 519 721 529 c 0
 700 553 679 577 659 602 c 1
 654 598 654 592 654 587 c 2
 654 581 l 1
 654 357 l 1
 714 357 l 1
 700 330 686 303 670 279 c 1
 654 277 l 1
 654 164 l 1
 694 204 l 1
 695 204 l 1
 710 189 l 1
 710 188 l 1
 500 -21 l 1
 499 -21 l 1
 407 69 l 1
 438 75 441 111 441 147 c 2
 441 175 l 1
 441 277 l 1
 382 277 l 1
 396 304 411 329 426 355 c 1
 441 357 l 1
 441 451 l 1
 441 465 l 2
 441 513 429 544 400 567 c 0
 396 570 390 576 385 576 c 0
 378 576 368 557 365 552 c 0
 340 510 329 471 329 410 c 0
 329 392 330 375 330 357 c 2
 330 166 l 2
 330 59 315 -73 203 -73 c 0
 170 -73 144 -67 112 -64 c 0
 104 -63 95 -63 86 -63 c 0
 61 -63 36 -68 27 -93 c 0
 26 -99 25 -104 25 -110 c 1
 3 -110 l 1
 3 -52 27 14 82 41 c 0
 93 46 105 49 118 51 c 0
 127 52 135 51 144 53 c 0
 173 60 195 83 204 111 c 0
 207 111 208 141 208 141 c 1
 208 141 207 165 206 165 c 0
 198 218 163 273 105 277 c 1
 101 277 l 2
 86 277 72 272 58 266 c 1
 58 310 97 351 145 356 c 1
 149 356 l 2
 162 356 162 367 164 378 c 0
 172 428 191 483 216 521 c 0
 237 553 267 575 297 599 c 2
 382 667 l 2
 398 680 415 692 430 706 c 1
215 27 m 1
 267 36 298 72 306 120 c 0
 308 132 308 144 308 156 c 2
 308 191 l 1
 308 416 l 1
 308 437 l 2
 308 490 332 548 362 588 c 1
 361 588 360 589 358 589 c 0
 349 589 333 570 328 564 c 0
 301 534 284 498 277 459 c 0
 275 443 275 428 275 412 c 2
 275 174 l 1
 275 153 l 2
 275 95 255 52 215 28 c 1
 215 27 l 1
541 357 m 1
 632 357 l 1
 632 572 l 1
 551 479 l 1
 542 466 l 1
 541.261203875 453.440465874 541.068227464 440.198657106 541.068227464 426.677823184 c 0
 541.068227464 411.888243946 541.299119474 396.764817279 541.299119474 381.835296349 c 0
 541.299119474 373.46490858 541.22654092 365.155473108 541 357 c 1
541 277 m 1
 541 184 l 2
 541 176 540.822714681 167.778393352 540.822714681 159.661758274 c 0
 540.822714681 129.224376731 543.315789474 100.263157895 567 90 c 0
 569 89 571 89 572 89 c 0
 581 89 603 113 609 119 c 0
 616 126 627 134 631 143 c 0
 632 145 632 147 632 150 c 2
 632 157 l 1
 632 277 l 1
 541 277 l 1
EndSplineSet
Validated: 1
EndChar

StartChar: N
Encoding: 78 78 47
Width: 738
Flags: W
HStem: 1 110<518.693 649> 200 42<120.251 199.426> 306 22<378.084 515.446> 322 35<97.8384 137.49> 405 22<373.746 491.953> 427 19<89.5625 93.718> 428 31<91 166>
VStem: 14 22<-110 -81.3151> 193.444 99.5556<455 564> 226 68<146 174.391> 326 22<98.8429 281.905 306 428 443.994 589> 548 99<373 437.969>
LayerCount: 2
Fore
SplineSet
193 455 m 1xc370
 193 458.333333333 193.444444444 496.333333333 193.444444444 527.518518519 c 0
 193.444444444 543.111111111 193.333333333 557 193 564 c 1
 193 564 193 570 194 570 c 0
 196 575 204 577 208 580 c 2
 406 698 l 2
 410 701 414 704 419 704 c 0
 424 704 449 688 454 685 c 0
 477 669 500 654 521 636 c 0
 570 596 614 546 635 485 c 0
 644 460 647 434 647 408 c 0
 647 308 609 218 563 142 c 0
 548 116 533 89 514 66 c 1
 524 72 534 80 545 86 c 0
 573 101 604 111 636 111 c 0
 656 111 669 107 685 102 c 1
 704 135 l 1
 723 124 l 1
 703 88 680 53 659 17 c 2
 659 17 639 -18 636 -19 c 0
 631 -19 619 -13 615 -11 c 0
 598 -4 575 1 552 1 c 0
 516 1 479 -12 451 -33 c 0
 439 -43 428 -55 418 -67 c 1
 417 -67 l 1
 400 -55 l 1
 408 -40 420 -26 429 -11 c 0
 479 66 515 148 537 249 c 0
 539 261 540 274 543 286 c 1
 513 296 487 306 450 306 c 0xe3b0
 426 306 401 302 378 295 c 0
 375 294 352 288 350 282 c 0
 348 280 348 276 348 273 c 2
 348 117 l 1
 342 40 309 -45 232 -62 c 0
 232 -63.6 224.64 -64.08 215.488 -64.08 c 0
 201.76 -64.08 184 -63 181 -63 c 1
 181 -62 111 -60 111 -60 c 2
 82 -60 50 -64 39 -91 c 0
 37 -97 36 -104 36 -110 c 1
 14 -110 l 1
 14 -40 72 17 140 34 c 0
 147 36 155 37 162 40 c 0
 169 43 174 49 180 53 c 0
 201 69 223 94 226 127 c 0
 226 150 223 162 212 175 c 0
 195 193 174 200 152 200 c 0
 128 200 104 192 84 182 c 1
 100 212 131 233 164 240 c 0
 176 242 188 242 200 242 c 1
 191 255 183 268 172 279 c 0
 146 306 110 322 73 322 c 1
 73 325 98 340 102 342 c 0
 123 352 146 357 169 357 c 0
 176 357 182 357 189 356 c 1
 179 390 150 418 115 426 c 0
 108 428 101 428 94 428 c 0xd370
 88 428 81 428 74 427 c 1
 74 431 98 444 102 446 c 0xc570
 121 454 141 459 161 459 c 0
 171 459 182 457 193 455 c 1xc370
348 589 m 1
 348 464 l 1
 348 459 l 2
 348 449 354 446 361 443 c 0
 381 434 407 427 434 427 c 0xcb30
 481 427 497 441 529 456 c 1
 496 530 428 581 348 589 c 1
545 307 m 0
 547 307 548 373 548 373 c 2
 547 396 542 417 536 439 c 1
 506 420 478 405 433 405 c 0
 403 405 372 412 348 428 c 1
 348 306 l 1
 377 319 411 328 450 328 c 0xeb30
 483 328 516 321 545 307 c 0
234 46 m 1
 273 54 313 77 324 118 c 0
 326 126 326 136 326 145 c 2
 326 173 l 1
 326 590 l 1
 319 589 311 589 304 588 c 0
 297 588 293 585 293 578 c 2
 293 574 l 2xc1b0
 293 556 292.75 471.75 292.75 380.625 c 0
 292.75 289.5 293 191.5 294 146 c 1xc170
 294 146 293 117 291 117 c 0
 285 87 262 60 234 47 c 1
 234 46 l 1
EndSplineSet
Validated: 1
EndChar

StartChar: O
Encoding: 79 79 48
Width: 742
Flags: HMW
VStem: 14 80<312.5 359.5 299.5 366> 228 99 420 22<85 89 89 98 98 151 356 596> 647 79
LayerCount: 2
Fore
SplineSet
442 -21 m 1
 368 -3 270 34 206 69 c 0
 134 109 63 162 31 241 c 0
 22 265 14 297 14 328 c 0
 14 404 71 432 116 465 c 2
 268 575 l 2
 303 600 341 623 368 658 c 0
 376 669 384 681 391 693 c 0
 393 698 396 705 402 706 c 0
 406 706 409 705 413 705 c 0
 506 695 574 659 628 605 c 0
 689 543 727 455 727 367 c 0
 727 249 659 165 588 110 c 0
 523 61 480 44 442 -21 c 1
442 356 m 1
 613 479 l 1
 602 494 591 509 577 522 c 0
 552 545 523 564 492 578 c 0
 476 585 459 590 442 596 c 1
 442 356 l 1
442 222 m 1
 463 236 619 349 632 359 c 0
 639 363 647 367 647 378 c 0
 647 405 631 442 622 464 c 1
 458 345 l 1
 443 332 l 1
 441.934846923 319.928265125 441.626061231 307.100162866 441.626061231 293.963274914 c 0
 441.626061231 275.837050817 442.213938769 257.122949183 442.213938769 238.996725086 c 0
 442.213938769 233.259837134 442.155051026 227.581836926 442 222 c 1
647 347 m 1
 504 244 l 1
 462 213 l 2
 456 209 447 205 444 199 c 0
 442.2 199 441.84 183.88 441.84 170.488 c 0
 441.84 161.56 442 153.4 442 151 c 2
 442 98 l 1
 442 89 l 2
 442 77 452 76 463 76 c 2
 470 76 l 2
 496 78 520 91 541 105 c 0
 560 117 579 131 594 149 c 0
 638 203 647 280 647 347 c 1
228 520 m 1
 219 514 164 475 152 464 c 0
 120 434 94 387 94 332 c 0
 94 267 129 221 168 191 c 0
 180 182 194 171 209 165 c 1
 216 182 222 200 226 220 c 0
 227.732338917 261.576134015 228.151741155 304.652767091 228.151741155 348.255134385 c 0
 228.151741155 389.186808803 227.782143142 430.581786238 227.782143142 471.633671025 c 0
 227.782143142 487.825650626 227.839642543 503.964254341 228 520 c 1
420 601 m 1
 404 603 363 608 359 608 c 0
 347 608 337 600 331 594 c 0
 328 591 328 587 328 583 c 2
 328 573 l 1
 328 387 l 2
 328 372 327 355 327 340 c 0
 327 321 332 268 340 247 c 0
 341 245 341 242 341 240 c 0
 341 234 334 230 331 228 c 2
 310 213 l 2
 283 193 254 174 228 153 c 1
 287 125 354 105 420 85 c 1
 420 601 l 1
EndSplineSet
Validated: 1
EndChar

StartChar: P
Encoding: 80 80 49
Width: 713
Flags: HMW
HStem: -150 50<342 372 342 394> 94 81<208 213> 276 23<476 508.5 469 509> 370 22<473.5 506.5 473.5 507> 614 70<116 229>
VStem: 242 100<-100 91 91 91 173 204.5 367 538 538 538> 372 22<-100 44 137 242 276 393 421.5 428 428 435 435 520 520 527 559 684> 599 99<268 289>
LayerCount: 2
Fore
SplineSet
537 706 m 1
 560 681 591 627 609 595 c 0
 653 513 698 393 698 277 c 0
 698 232 690 174 678 137 c 0
 675 129 667 124 661 118 c 0
 626 83 605 57 580 15 c 0
 573 3 568 -9 561 -21 c 1
 506 1 451 27 394 44 c 1
 394 -150 l 1
 242 -150 l 1
 242 91 l 1
 231 93 219 94 207 94 c 0
 147 94 107 51 99 1 c 1
 77 1 l 1
 78 13 81 26 83 38 c 0
 95 89 117 143 168 165 c 0
 183 171 199 175 217 175 c 0
 225 175 234 174 242 173 c 1
 242 236 211 309 152 338 c 0
 139 345 125 348 110 348 c 0
 100 348 90 346 81 343 c 0
 78 342 71 338 66 338 c 0
 64 338 60 340 60 343 c 0
 60 349 75 365 78 369 c 0
 99 394 122 418 141 444 c 1
 176 419 209 393 242 367 c 1
 242 374.333333333 241.555555556 432.333333333 241.555555556 480.555555556 c 0
 241.555555556 504.666666667 241.666666667 526.333333333 242 538 c 1
 242 538 242 548 241 548 c 0
 238 558 230 568 223 576 c 0
 202 600 170 614 138 614 c 0
 94 614 62 590 44 561 c 0
 38 553 38 546 26 546 c 0
 22 546 17 547 14 547 c 1
 18 563 26 577 35 591 c 0
 71 649 137 684 205 684 c 0
 253 684 292 668 322 645 c 0
 334 635 342 633 342 615 c 2
 342 604 l 1
 342 -100 l 1
 372 -100 l 1
 372 684 l 1
 394 684 l 1
 394 559 l 1
 537 706 l 1
575 410 m 1
 563 447 538 506 507 532 c 0
 492 544 473 550 454 550 c 0
 442 550 406 546 396 536 c 0
 394 534 394 530 394 527 c 2
 394 520 l 1
 394 435 l 1
 394 428 l 2
 394 415 398 413 407 409 c 0
 431 399 458 392 489 392 c 0
 524 392 549 401 575 410 c 1
394 276 m 1
 425 289 449 299 489 299 c 0
 528 299 566 288 599 268 c 1
 599 310 590 350 581 391 c 1
 556 378 525 370 489 370 c 0
 456 370 422 377 394 393 c 1
 394 276 l 1
587 83 m 1
 589 101 593 119 595 137 c 0
 597 160 600 202 600 230 c 2
 600 236 l 2
 600 245 595 249 588 252 c 0
 559 266 528 276 490 276 c 0
 462 276 428 270 407 259 c 0
 398 257 394 252 394 242 c 2
 394 137 l 1
 587 83 l 1
EndSplineSet
Validated: 1
EndChar

StartChar: Q
Encoding: 81 81 50
Width: 742
Flags: HMW
VStem: 15 79 228 99 420 22<85 89 89 98 98 151 356 596> 647 79
LayerCount: 2
Fore
SplineSet
442 -21 m 1
 405 -12 369 1 333 14 c 0
 207 59 26 144 15 313 c 0
 14 319 14 325 14 331 c 0
 14 398 62 427 102 455 c 2
 249 561 l 1
 308 604 l 2
 345 631 369 652 390 692 c 0
 393 698 396 705 403 706 c 0
 435 706 486 692 512 682 c 0
 633 633 718 517 726 387 c 0
 727 379 727 371 727 363 c 0
 727 272 683 205 637 154 c 0
 633 150 625 145 625 139 c 0
 625 132 641 120 646 116 c 0
 660 104 678 91 698 91 c 0
 712 91 718 97 727 103 c 1
 726 81 l 1
 695 45 659 13 626 -21 c 1
 625 -21 l 1
 617 -13 609 -4 600 3 c 0
 578 20 544 38 505 38 c 2
 498 38 l 2
 487 38 479 28 473 22 c 0
 461 9 451 -5 442 -21 c 1
442 356 m 1
 613 479 l 1
 602 494 591 509 577 522 c 0
 552 545 523 564 492 578 c 0
 476 585 459 590 442 596 c 1
 442 356 l 1
442 222 m 1
 463 236 619 349 632 359 c 0
 639 363 647 367 647 378 c 0
 647 405 631 442 622 464 c 1
 458 345 l 1
 443 332 l 1
 441.934846923 319.928265125 441.626061231 307.100162866 441.626061231 293.963274914 c 0
 441.626061231 275.837050817 442.213938769 257.122949183 442.213938769 238.996725086 c 0
 442.213938769 233.259837134 442.155051026 227.581836926 442 222 c 1
647 347 m 1
 504 244 l 1
 462 213 l 2
 456 209 447 205 444 199 c 0
 442.2 199 441.84 183.88 441.84 170.488 c 0
 441.84 161.56 442 153.4 442 151 c 2
 442 98 l 1
 442 89 l 2
 442 77 452 76 463 76 c 2
 470 76 l 2
 496 78 520 91 541 105 c 0
 560 117 579 131 594 149 c 0
 638 203 647 280 647 347 c 1
228 520 m 1
 219 514 164 475 152 464 c 0
 120 434 94 387 94 332 c 0
 94 267 129 221 168 191 c 0
 180 182 194 171 209 165 c 1
 216 182 222 200 226 220 c 0
 227.732338917 261.576134015 228.151741155 304.652767091 228.151741155 348.255134385 c 0
 228.151741155 389.186808803 227.782143142 430.581786238 227.782143142 471.633671025 c 0
 227.782143142 487.825650626 227.839642543 503.964254341 228 520 c 1
420 601 m 1
 404 603 363 608 359 608 c 0
 347 608 337 600 331 594 c 0
 328 591 328 587 328 583 c 2
 328 573 l 1
 328 387 l 2
 328 372 327 355 327 340 c 0
 327 321 332 268 340 247 c 0
 341 245 341 242 341 240 c 0
 341 234 334 230 331 228 c 2
 310 213 l 2
 283 193 254 174 228 153 c 1
 287 125 354 105 420 85 c 1
 420 601 l 1
EndSplineSet
Validated: 1
EndChar

StartChar: R
Encoding: 82 82 51
Width: 737
Flags: W
HStem: -19 132<607 662> 39 84<111.054 195.362> 133 11<705 722> 581 21G<25 32.5> 645 65<98.5895 177.727>
VStem: 196 100<123 263.67 384 505 515.953 554.475 582 626.4> 325 20<116 330.86 360 577>
LayerCount: 2
Fore
SplineSet
15 582 m 1x7e
 20 596 30 610 39 623 c 0
 65 663 103 710 169 710 c 0
 214 710 257 686 280 645 c 0
 290 626 295 604 296 582 c 1
 458 706 l 1
 459 706 l 1
 578 550 l 1
 585 537 l 1
 557 507 522 484 492 456 c 2
 456 427 l 1
 456 426 l 1
 477 410 495 371 508 346 c 0
 537 282 552 209 600 154 c 0
 609 143 636 113 662 113 c 0
 674 113 685 124 693 132 c 0
 696 135 700 144 705 144 c 0
 711 144 718 136 722 133 c 1
 722 133 623 -1 617 -10 c 0
 614 -13 611 -18 607 -19 c 0xbe
 603 -19 585 -8 581 -5 c 0
 557 9 534 24 517 47 c 0
 466 114 464 225 423 304 c 0
 415 318 406 334 394 345 c 0
 390 349 383 353 377 353 c 0
 368 353 349 339 346 331 c 0
 345 328 345 326 345 322 c 2
 345 313 l 1
 345 115 l 1
 329 115 l 1
 329 114 l 1
 361 107 390 97 419 87 c 1
 439 133 l 1
 459 125 l 1
 395 -21 l 1
 374 -13 355 -4 334 4 c 0
 283 23 225 39 169 39 c 0
 116 39 71 23 38 -1 c 0
 30 -7 22 -15 14 -21 c 1
 25 51 79 93 143 114 c 0
 160 119 178 123 196 123 c 1
 196 144 l 2
 196 170 195 195 190 219 c 0
 171 302 108 366 37 409 c 1
 44 418 64 431 74 439 c 2
 156 502 l 1
 181 521 l 2
 191 527 196 532 196 545 c 2
 196 564 l 2
 196 577 196 591 191 603 c 0
 181 629 154 645 127 645 c 0
 90 645 62 619 45 595 c 0
 40 588 38 581 27 581 c 0
 23 581 18 582 15 582 c 1x7e
345 360 m 1
 345 360 468 463 477 471 c 0
 480 474 486 477 486 481 c 2
 486 482 l 2
 486 489 470 506 467 510 c 2
 406 590 l 2
 400 598 395 606 389 613 c 0
 386 616 384 618 381 618 c 0
 377 618 371 612 369 611 c 0
 362 605 348 598 345 589 c 2
 345 581 l 1
 345 565 l 1
 345 360 l 1
196 505 m 1
 174 489 154 471 131 456 c 1
 127 450 l 1
 131 443 138 438 144 432 c 2
 196 384 l 1
 196 505 l 1
296 120 m 1
 325 116 l 1
 325 577 l 1
 316 570 306 563 298 555 c 1
 296.197936278 543.827204925 295.694846019 531.485333734 295.694846019 518.629819653 c 0
 295.694846019 502.377475403 296.498925607 485.304185496 296.498925607 468.734316312 c 0
 296.498925607 462.045124511 296.367884312 455.437975464 296 449 c 2
 296 120 l 1
EndSplineSet
Validated: 1
EndChar

StartChar: S
Encoding: 83 83 52
Width: 710
Flags: W
HStem: -55 21<89.3 241.637> 71 81<96.926 268> 193 111<119.196 281> 220 97<336.739 524.683> 376 107<145.16 332.675> 398 98<388.319 557.996> 607 98<192.486 292.171>
VStem: 13 51<-21.0729 55.9183> 33 57<333.875 397.125> 64 54<509.437 592.75> 499 69<161.5 265.5> 656 39<248.776 366.5>
LayerCount: 2
Fore
SplineSet
95 442 m 1xe6b0
 95 442 85 458 81 466 c 0
 69 490 64 516 64 543 c 2
 64 563 l 2xe670
 64 576 69 579 77 585 c 2
 95 601 l 2
 104 608 181 673 199 689 c 0
 204 693 212 705 223 705 c 0
 226 705 397 660 412 655 c 1
 426 706 l 1
 448 700 l 1
 387 488 l 1
 403 491 492 496 515 496 c 2
 529 496 l 2
 599 496 638 475 668 437 c 0
 687 412 695 382 695 351 c 0
 695 253 643 176 595 117 c 0
 558 74 498 21 456 -21 c 1
 455 -21 l 1
 444 -12 408 11 402 11 c 0
 396 11 376 -1 371 -4 c 0
 308 -36 222 -55 132 -55 c 0
 87 -55 51 -43 30 -16 c 0
 19 -2 13 16 13 34 c 0xe730
 13 67 31 92 52 106 c 0
 104 146 184 152 268 152 c 1
 281 197 l 1
 262 195 243 193 223 193 c 0
 187 193 150 199 116 216 c 0
 71 239 33 280 33 333 c 2
 33 335 l 2
 33 380 69 420 95 442 c 1xe6b0
382 556 m 2
 382 562 371 563 366 564 c 2
 314 579 l 2
 288 587 221 607 179 607 c 2
 172 607 l 2
 136 607 118 588 118 558 c 0
 118 523 141 502 167 493 c 0
 192 484 219 483 246 483 c 2
 261 483 l 1
 293 483 l 2xca70
 294 483 355 483 361 488 c 0
 367 492 376 530 379 539 c 0
 380 543 382 549 382 554 c 2
 382 556 l 2
313 308 m 1
 334 382 l 1
 302 380 271 378 239 377 c 0
 233 377 228 376 222 376 c 0
 168 376 138 398 109 423 c 1
 98 402 90 395 90 368 c 0
 92 340 116 321 141 313 c 0
 164 306 201 304 232 304 c 0xeab0
 275 304 274 307 313 308 c 1
336 310 m 1
 357 313 454 317 494 317 c 0
 516 317 539 314 554 297 c 0
 564 285 568 272 568 259 c 0
 568 230 543 182 528 155 c 0
 520 137 512 120 501 103 c 1
 508 100 527 88 530 88 c 2
 532 88 l 2
 541 88 587 143 598 157 c 0
 626 193 656 238 656 285 c 0
 656 316 639 348 622 365 c 0
 605 382 582 393 558 396 c 1
 558 397 552 398 543 398 c 0xd630
 504 398 403 388 382 386 c 2
 374 386 l 2
 368 386 362 386 359 383 c 0
 354 379 353 368 351 362 c 2
 336 310 l 1
476 116 m 1
 484 135 499 151 499 172 c 0
 499 195 481 214 462 218 c 1
 462 219 459 220 453 220 c 0
 433 220 386 214 382 213 c 0
 373 212 364 210 355 209 c 2
 322 203 l 2
 317 202 311 202 307 200 c 0
 302 196 293 160 291 152 c 1
 354 152 417 139 476 116 c 1
375 24 m 1
 328 44 276 52 226 60 c 0
 199 65 172 71 144 71 c 0
 109 71 64 58 64 17 c 0xc330
 64 11 65 6 68 1 c 0
 79 -26 107 -34 133 -34 c 0
 210 -34 291 -18 347 10 c 0
 356 14 365 20 375 24 c 1
EndSplineSet
Validated: 1
EndChar

StartChar: T
Encoding: 84 84 53
Width: 740
Flags: HMW
HStem: -20 101<447.5 491> 611 95<174 303.5>
VStem: 14 22<479 526.5 479 530> 91 91<337 375.5> 316 101<321 323 305 592> 469 22<81 542 81 546 81 546>
LayerCount: 2
Fore
SplineSet
14 479 m 1
 14 581 78 651 152 685 c 0
 181 697 216 706 255 706 c 0
 352 706 456 641 544 628 c 0
 555 627 566 626 577 626 c 0
 623 626 666 639 699 658 c 0
 704 661 710 666 716 666 c 0
 722 666 729 659 734 656 c 1
 703 588 618 539 533 539 c 2
 521 539 l 2
 511 539 501 540 491 542 c 1
 491 81 l 1
 499 83 507 83 515 85 c 0
 597 97 654 144 696 198 c 1
 697 198 l 1
 712 183 l 2
 712 180 658 123 652 117 c 0
 600 67 539 24 472 -10 c 0
 465 -14 457 -20 449 -20 c 0
 446 -20 417 -12 413 -11 c 0
 300 21 191 74 134 169 c 0
 106 217 91 272 91 326 c 0
 91 425 137 506 196 558 c 0
 217 577 242 592 268 604 c 1
 268 605 l 1
 231 608 244 611 212 611 c 0
 136 611 36 574 36 479 c 1
 14 479 l 1
316 592 m 1
 285 573 258 549 236 520 c 0
 201 472 182 415 182 357 c 0
 182 317 191 276 210 239 c 0
 222 216 236 190 256 173 c 1
 262 183 271 191 279 201 c 0
 306 238 316 265 316 321 c 2
 316 592 l 1
279 149 m 1
 297 136 314 123 333 113 c 0
 375 91 422 80 469 80 c 1
 469 546 l 1
 416 560 l 1
 416 357 l 2
 416 344 417 330 417 316 c 0
 417 294 415 272 405 253 c 0
 388 221 358 200 328 181 c 0
 312 170 296 160 279 150 c 1
 279 149 l 1
EndSplineSet
Validated: 1
EndChar

StartChar: U
Encoding: 85 85 54
Width: 790
Flags: HMW
HStem: 294 22<494.5 511.5> 360 22<493.5 512> 606 100<150 171.5>
VStem: 3 22<461 477> 54 100<275 360.5> 414 22<94 94 94 255 255 261 294 382 433.5 436 436 596 596 596> 573 100<89 172 136 172 170 172 172 179 179 189 189 257 257 263 263 270.5 295 381 381 381 427 553 553 557 557 568>
LayerCount: 2
Fore
SplineSet
3 461 m 1
 3 493 5 515 10 542 c 0
 22 605 54 681 121 701 c 0
 131 703 144 706 156 706 c 0
 200 706 237 682 275 665 c 0
 294 656 315 647 337 647 c 2
 340 647 l 2
 374 647 413 667 414 706 c 1
 436 706 l 1
 436 436 l 2
 436 431 435 425 435 419 c 0
 435 406 438 404 445 399 c 0
 460 389 482 382 504 382 c 0
 520 382 563 389 571 405 c 0
 573 408 574 412 574 416 c 0
 574 420 573 424 573 427 c 2
 573 557 l 1
 573 569 l 2
 573 582 569 593 558 593 c 0
 551 593 544 590 539 587 c 0
 517 575 500 555 486 534 c 1
 467 546 l 1
 573 706 l 1
 686 598 l 1
 686 597 l 1
 677 590 673 582 673 568 c 2
 673 553 l 1
 673 189 l 1
 673 172 l 2
 673 163 673 154 675 146 c 0
 680 124 701 106 724 106 c 0
 739 106 749 113 759 122 c 1
 760 122 l 1
 775 107 l 1
 775 106 l 1
 656 -21 l 1
 655 -21 l 1
 637 -1 618 18 599 38 c 0
 589 48 572 56 572 76 c 0
 572 80 573 85 573 89 c 2
 573 136 l 1
 568 133 402 28 389 19 c 2
 343 -10 l 2
 337 -14 331 -20 324 -20 c 0
 315 -20 297 -11 288 -7 c 0
 203 26 128 86 86 163 c 0
 64 203 54 248 54 293 c 0
 54 428 141 523 239 572 c 0
 249 577 260 583 271 586 c 1
 271 587 l 1
 259 588 246 592 234 595 c 0
 210 601 184 606 159 606 c 0
 80 606 25 534 25 461 c 1
 3 461 l 1
236 129 m 1
 242 141 250 152 256 164 c 0
 280 214 290 282 292 350 c 0
 293 374 291 397 295 421 c 0
 304 482 338 545 373 589 c 1
 246 561 154 441 154 314 c 0
 154 236 189 165 236 129 c 1
414 596 m 1
 403 585 397 552 393 534 c 0
 390 516 390 498 390 479 c 0
 390 460 390 442 391 424 c 0
 392 424 392 367 392 367 c 1
 382 255 322 179 257 112 c 1
 268 107 279 100 290 96 c 0
 313 86 338 81 363 81 c 0
 380 81 397 86 414 87 c 1
 414 596 l 1
436 294 m 1
 456 309 480 316 505 316 c 0
 536 316 552 306 573 295 c 1
 573 381 l 1
 551 370 536 360 506 360 c 0
 481 360 457 368 436 382 c 1
 436 294 l 1
436 94 m 1
 472 103 506 122 538 140 c 2
 561 152 l 2
 570 156 573 158 573 170 c 2
 573 179 l 1
 573 257 l 1
 573 263 l 2
 573 278 557 282 547 286 c 0
 533 291 519 294 504 294 c 0
 485 294 460 287 446 278 c 0
 439 273 436 271 436 261 c 2
 436 255 l 1
 436 94 l 1
EndSplineSet
Validated: 33
EndChar

StartChar: V
Encoding: 86 86 55
Width: 886
Flags: W
HStem: -11 21<254.487 354.471> 2 21<183 227.022> 387 86<461.927 521.534> 568 21G<3 25.5 864 871> 582 89<766.975 842.178> 593 91<553.372 596.991> 630 77<49.2905 102.765>
VStem: 3 22<568 599.897> 222 93<414.343 561.051> 281 93<126.959 296.962> 346 22<522.126 606.341> 408 22<201.843 331.98> 682 33<331.305 514.519>
LayerCount: 2
Fore
SplineSet
3 568 m 1x3398
 3 622 23 669 57 692 c 0
 67 699 88 707 105 707 c 2
 107 707 l 2x3398
 151 707 187 674 225 656 c 0
 240 649 261 642 283 642 c 0
 316 642 318 652 339 663 c 0
 365 678 401 689 439 689 c 0
 447 689 454 689 461 688 c 0
 467 688 485 688 485 680 c 2
 485 676 l 2
 484 671 483 667 483 662 c 1
 483 664 462 665 462 665 c 1
 432 661 423 659 401 648 c 0
 395 644 388 641 383 636 c 0
 371 623 368 607 368 590 c 0
 368 540 391 482 405 438 c 1
 424 451 441 473 471 473 c 0
 506 473 539 446 539 407 c 0
 539 398 536 390 533 381 c 1
 524 384 516 387 506 387 c 0
 471 387 447 352 438 324 c 0
 431 303 431 283 430 262 c 0
 424 166 380 89 313 42 c 0
 295 29 275 20 254 12 c 0
 254 11 258 10 264 10 c 0
 276 10 294 12 296 12 c 0
 373 17 436 43 489 77 c 0
 597 149 666 271 680 399 c 0
 681 412 682 426 682 439 c 0
 682 491 671 543 628 575 c 0
 619 582 608 587 597 590 c 0
 597 593 585 593 575 593 c 0
 570 593 566 593 564 593 c 0
 547 591 531 585 516 578 c 1
 516 633 553 684 610 684 c 0xa5b8
 660 684 693 639 701 594 c 1
 702 594 l 1
 711 631 744 671 792 671 c 0
 848 671 871 613 871 567 c 1
 857 574 844 582 825 582 c 0
 768 582 723 526 716 466 c 0
 715 452 716 437 715 423 c 0
 702 234 605 111 470 36 c 0
 414 6 347 -9 283 -11 c 0xa9b8
 274 -11 265 -10 256 -10 c 0
 254 -10 192 -7 185 2 c 0
 183 4 182 8 182 12 c 0
 182 16 183 20 183 23 c 1
 198 23 221 29 232 36 c 0
 275 63 281 119 281 165 c 0x6158
 281 209 272 252 260 294 c 0
 253 320 242 345 235 371 c 0
 227 400 222 431 222 462 c 0
 222 496 228 530 244 560 c 1
 239 559 234 559 230 559 c 0
 207 559 184 568 167 582 c 0x6998
 147 598 129 620 103 628 c 0
 98 629 92 630 87 630 c 0
 54 630 26 602 25 568 c 1
 3 568 l 1x3398
345 607 m 1
 340 596 333 587 328 576 c 0
 320 558 315 535 315 511 c 0x21b8
 315 485 322 459 330 434 c 0
 351 373 374 324 374 248 c 0x2158
 374 178 359 134 333 88 c 1
 379 134 408 203 408 284 c 0
 408 328 400 374 388 417 c 0
 368 492 346 524 346 607 c 1x2138
 345 607 l 1
EndSplineSet
Validated: 33
EndChar

StartChar: W
Encoding: 87 87 56
Width: 836
Flags: HMW
HStem: 1 119 245 23<307.5 330 565 584> 387 22<381.5 403 381.5 403.5> 686 20<499 499 780 781 781 781>
VStem: 3 22<479 479> 195 100<436.5 441 441 447 435.5 454.5> 450 106<435 439 439 474.5> 715 106<449.5 450 450 479 395.5 481.5>
LayerCount: 2
Fore
SplineSet
282 555 m 1
 472 688 l 1
 499 706 l 1
 527 664 546 605 552 546 c 1
 780 706 l 1
 781 706 l 1
 819 654 822 586 822 524 c 0
 822 509 821 494 821 479 c 2
 821 450 l 2
 821 341 765 258 711 194 c 0
 652 125 582 67 520 1 c 1
 519 1 l 1
 497 21 467 39 429 39 c 0
 390 39 372 22 353 1 c 1
 352 1 l 1
 314 28 265 44 218 44 c 0
 152 44 109 18 74 -17 c 1
 73 -17 l 1
 69 -13 65 -9 61 -6 c 0
 59 -4 57 -2 57 1 c 0
 57 7 65 13 68 17 c 0
 105 61 147 133 147 201 c 0
 147 242 129 278 91 286 c 0
 83 288 74 288 66 288 c 0
 52 287 38 282 25 277 c 1
 25 322 42 378 93 378 c 0
 136 378 174 352 185 314 c 1
 186 314 l 1
 187 333 190 351 192 370 c 0
 194 397 195 423 195 450 c 0
 195 459 196 469 196 478 c 0
 194 524 169 555 131 568 c 0
 126 569 120 570 114 570 c 0
 62 570 26 528 25 479 c 1
 3 479 l 1
 3 538 27 600 77 634 c 0
 94 646 118 657 148 657 c 0
 210 657 264 613 282 555 c 1
289 533 m 1
 293 516 296 497 296 478 c 0
 296 467 295 457 295 447 c 2
 295 441 l 2
 295 430 316 425 324 421 c 0
 346 413 370 409 393 409 c 0
 413 409 424 411 440 415 c 0
 444 416 448 417 449 421 c 0
 451 421 450 434 450 436 c 0
 450 513 423 556 396 607 c 1
 289 533 l 1
678 607 m 1
 589 544 l 2
 587 543 560 526 556 520 c 0
 555 519 554 517 554 515 c 0
 554 512 555 509 555 507 c 0
 555 497 556 487 556 477 c 2
 556 439 l 1
 556 433 l 2
 556 422 560 421 568 419 c 0
 593 413 605 410 633 410 c 0
 682 410 677 415 714 421 c 1
 714 432 715 444 715 455 c 0
 715 508 702 563 678 607 c 1
429 233 m 1
 440 284 447 338 450 396 c 1
 432 389 413 387 394 387 c 0
 358 387 323 395 292 414 c 1
 284 360 271 302 251 256 c 1
 272 262 295 268 320 268 c 0
 359 268 397 254 429 233 c 1
666 240 m 1
 684 284 709 345 712 399 c 1
 688 392 663 388 639 388 c 0
 611 388 582 393 555 400 c 1
 550 348 533 298 515 256 c 1
 535 261 553 268 577 268 c 0
 608 268 640 258 666 240 c 1
412 86 m 1
 455 109 489 121 544 121 c 0
 552 121 560 120 568 120 c 0
 572 119 578 118 583 118 c 0
 594 118 605 138 610 146 c 0
 627 171 644 197 657 224 c 1
 645 228 635 234 623 238 c 0
 608 243 592 245 576 245 c 0
 553 245 517 239 502 227 c 0
 498 224 479 187 475 181 c 0
 455 149 434 116 412 86 c 1
382 97 m 1
 391 120 416 175 422 210 c 1
 422 212 l 2
 420 220 389 232 382 235 c 0
 362 242 341 245 319 245 c 0
 296 245 259 240 243 229 c 0
 238 226 235 219 233 213 c 0
 219 182 198 148 181 120 c 2
 150 75 l 1
 193 99 242 111 291 111 c 0
 322 111 353 106 382 97 c 1
EndSplineSet
Validated: 1
EndChar

StartChar: X
Encoding: 88 88 57
Width: 503
Flags: HMW
HStem: -62 12<15 19> 279 31<36 174 36 174 274 440> 341 31<36 174 36 174 274 440>
VStem: 174 100<184 279 279 279 310 341 279 341 279 372>
LayerCount: 2
Fore
SplineSet
162 706 m 1
 199 663 237 621 273 577 c 1
 274 577 l 1
 277 583 321 642 328 651 c 0
 338 664 348 682 371 682 c 0
 393 682 406 667 417 654 c 0
 429 642 440 629 451 617 c 0
 463 604 478 591 488 576 c 1
 391 509 l 1
 374 529 355 547 338 567 c 0
 333 572 328 579 318 579 c 0
 302 579 290 562 282 552 c 0
 277 545 274 540 274 530 c 2
 274 520 l 1
 274 372 l 1
 440 372 l 1
 440 341 l 1
 274 341 l 1
 274 310 l 1
 440 310 l 1
 440 279 l 1
 274 279 l 1
 274.310102051 272.022703843 274.427877538 264.8290403 274.427877538 257.501015558 c 0
 274.427877538 234.347448714 273.252122462 209.852551286 273.252122462 186.602984442 c 0
 273.252122462 169.75298011 273.869693846 153.557092055 276 139 c 1
 305 114 338 92 369 68 c 1
 370 68 l 1
 374 73 432 126 443 134 c 0
 445 136 447 138 450 138 c 0
 455 138 463 130 463 125 c 0
 463 120 457 117 454 114 c 2
 340 12 l 1
 316 -10 l 2
 314 -12 309 -19 303 -19 c 0
 299 -19 295 -16 292 -13 c 2
 264 8 l 2
 238 27 210 54 176 54 c 0
 143 54 127 33 110 17 c 2
 48 -38 l 1
 24 -60 l 2
 22 -61 20 -62 18 -62 c 0
 16 -62 14 -61 13 -59 c 0
 12 -59 14 -50 16 -50 c 0
 19 -46 146 107 146 107 c 2
 148 110 170 133 173 141 c 0
 174 141 174.25 150.5 174.25 160.625 c 0
 174.25 170.75 174 181.5 174 184 c 2
 174 279 l 1
 36 279 l 1
 36 310 l 1
 174 310 l 1
 174 341 l 1
 36 341 l 1
 36 372 l 1
 174 372 l 1
 173.844948974 379.907602312 173.786061231 387.935408726 173.786061231 396.038688597 c 0
 173.786061231 421.641745184 174.373938769 447.998254816 174.373938769 473.697311403 c 0
 174.373938769 492.322570863 174.065153077 510.60249974 173 528 c 1
 154 553 134 576 113 598 c 1
 46 500 l 1
 27 512 l 1
 162 706 l 1
EndSplineSet
Validated: 1
EndChar

StartChar: Y
Encoding: 89 89 58
Width: 537
Flags: W
HStem: -73 44<312.009 355.858> -73 22<82.9144 172.477> 8 39<14.1929 22.8356> 59 21<317.606 383.454> 321 19<-7.64952 40.5457> 443 14<2 23.5> 565 20<241.062 247.812> 686 20G<105.708 137.5>
VStem: 14 22<-5.78262 8> 109 100<180.108 301 355.938 419 483 562.276> 253 22.4989<154 292.306 317 421.316 440 560.798> 400.748 99.2521<194.7 340 364.474 463 486.517 562.413> 404 22<-21.9863 39.3372>
LayerCount: 2
Fore
SplineSet
15 617 m 1x7fe8
 132 706 l 1
 143 692 157 680 169 668 c 2
 224 612 l 1
 245 591 l 2
 248 588 250 585 254 585 c 0
 258 585 264 590 267 593 c 2
 290 610 l 1
 374 675 l 1
 374 675 410 704 414 704 c 0
 421 704 439 682 443 677 c 2
 522 597 l 1
 522 596 l 1
 505 579 500 564 500 534 c 2
 500 258 l 1
 500 246 l 2
 500 220 510 209 522 194 c 1
 509 191 220 112 149 94 c 0
 119 86 58 76 41 48 c 0
 37 42 36 36 36 30 c 0
 36 24 37 18 39 12 c 0
 47 -15 68 -36 95 -46 c 0
 103 -49 112 -50 121 -51 c 0x7ff0
 199 -51 237 13 286 53 c 0
 306 68 330 80 354 80 c 0
 393 80 426 50 426 10 c 0
 426 -20 406 -50 377 -64 c 0
 361 -68 356 -73 338 -73 c 0xbfe8
 325 -73 312 -67 312 -51 c 0x7fe8
 312 -39 323 -29 335 -29 c 0xbfe8
 348 -29 353 -39 356 -48 c 1
 367 -44 378 -38 387 -30 c 0
 397 -19 404 -5 404 10 c 0
 404 37 380 59 351 59 c 0
 315 59 286 24 263 0 c 0
 229 -35 187 -70 135 -73 c 0
 74 -73 29 -43 17 8 c 0
 15 8 14 31 14 31 c 1
 14 31 15 47 16 47 c 0
 25 78 46 105 63 132 c 0
 84 165 108 222 108 277 c 0
 108 282 109 286 109 291 c 0
 107 299 94 300 87 301 c 0
 64 306 6 320 0 321 c 0
 -4 322 -8 324 -8 329 c 0
 -8 337 12 339 19 340 c 0
 39 345 59 349 79 354 c 2
 96 358 l 2
 105 361 109 360 109 371 c 2
 109 376 l 1
 109 419 l 1
 2 443 l 1
 -6 447 l 1
 -8 457 l 1
 109 483 l 1
 109 530 l 1
 109 541 l 2
 109 597 57 612 15 616 c 1
 15 617 l 1x7fe8
275 440 m 1
 312 453 349 468 387 480 c 1
 398 486 l 1
 400 497 400.75 510 400.75 523.375 c 0
 400.75 536.75 400 550.5 399 563 c 1
 382 585 361 603 342 623 c 1
 320 606 297 589 277 570 c 1
 275.197936278 556.304315715 274.694846019 541.049863275 274.694846019 525.17297586 c 0
 274.694846019 505.100916644 275.498925607 484.034031453 275.498925607 463.864272257 c 0
 275.498925607 455.721818847 275.367884312 447.725570556 275 440 c 1
275 317 m 1
 313 331 350 345 388 358 c 1
 398 364 l 1
 399.802063722 374.091556842 400.305153981 385.611984492 400.305153981 397.718583089 c 0
 400.305153981 413.024124886 399.501074393 429.266532553 399.501074393 444.743049315 c 0
 399.501074393 450.990858992 399.632115688 457.113851005 400 463 c 1
 359 448 317 432 275 418 c 1
 275 317 l 1
275 154 m 1
 387 184 l 1
 398 189 l 1
 400.130306154 204.977296157 400.747877538 222.467327085 400.747877538 240.574929397 c 0
 400.747877538 265.559724774 399.572122462 291.720275226 399.572122462 316.705070603 c 0
 399.572122462 324.612672915 399.689897949 332.40249974 400 340 c 1
 362 326 325 312 287 299 c 1
 277 293 l 1
 275.197936278 278.223077482 274.694846019 261.887386809 274.694846019 244.929261161 c 0
 274.694846019 223.490266646 275.498925607 201.056446156 275.498925607 179.519751662 c 0
 275.498925607 170.825471784 275.367884312 162.277397025 275 154 c 1
209 136 m 1
 253 148 l 1
 253 546 l 2
 252 552 246 557 242 561 c 0
 240 563 239 565 236 565 c 2
 235 565 l 2
 232 565 230 563 228 562 c 0
 217 555 208 551 208 535 c 0
 208 530 209 525 209 520 c 2
 209 136 l 1
EndSplineSet
Validated: 1
EndChar

StartChar: Z
Encoding: 90 90 59
Width: 620
Flags: HMW
HStem: -21 91<424 511.5> 109 90<562.5 569> 375 23<92 121.5 92 137> 417 87<145 159> 577 132<134 189.5>
VStem: 113 88<447 473 435.5 473.5> 514 91<147 150 150 158 116 167>
LayerCount: 2
Fore
SplineSet
159 417 m 1
 131 417 113 434 113 460 c 0
 113 487 132 504 156 504 c 0
 182 504 201 487 201 459 c 0
 201 412 161 375 113 375 c 0
 68 375 40 405 24 435 c 0
 13 457 5 487 5 518 c 0
 5 613 77 709 191 709 c 0
 236 709 271 691 301 674 c 0
 348 647 397 608 454 608 c 0
 498 608 536 634 566 664 c 0
 579 677 590 693 605 705 c 1
 604 675 l 1
 562 622 514 574 469 523 c 2
 57 64 l 1
 36 42 l 1
 36 52 36 63 37 72 c 1
 69 112 105 148 139 187 c 2
 447 530 l 1
 427 522 406 518 386 518 c 0
 370 518 354 521 338 525 c 0
 279 540 220 577 159 577 c 0
 95 577 35 533 35 474 c 0
 35 428 73 398 111 398 c 0
 132 398 146 406 159 417 c 1
604 643 m 1
 605 633 605 622 604 612 c 1
 573 575 540 540 508 504 c 2
 172 130 l 1
 204 144 227 158 269 158 c 0
 339 158 384 112 433 86 c 0
 452 77 473 70 493 70 c 0
 530 70 552 88 569 109 c 1
 556 109 543 109 532 117 c 0
 520 126 514 140 514 154 c 0
 514 180 534 199 558 199 c 0
 581 199 604 183 605 158 c 2
 605 150 l 2
 605 82 559 16 497 -9 c 0
 477 -16 459 -21 434 -21 c 0
 414 -21 395 -18 376 -12 c 0
 313 7 257 49 190 53 c 1
 183 53 l 2
 124 53 67 15 37 -21 c 1
 37 -21 36 -21 36 -21 c 1
 36 -10 36 0 37 10 c 1
 82 64 130 115 177 167 c 2
 604 643 l 1
EndSplineSet
Validated: 1
EndChar

StartChar: a
Encoding: 97 97 60
Width: 360
Flags: W
HStem: 208 21<133.697 225> 427 66<171 229>
VStem: 35.6569 84.3431<113.412 158.689> 42 21<281.97 351.428> 225.16 84.0539<114.817 208 230 415.391>
LayerCount: 2
Fore
SplineSet
101 225 m 1xe8
 76 242 42 268 42 311 c 0xd8
 42 350 55 366 75 386 c 0
 98 409 127 426 153 445 c 2
 202 479 l 2
 206 481 217 493 226 493 c 0
 232 493 320 440 341 429 c 1
 331 419 320 410 310 400 c 1
 308.934846923 363.784795376 308.626061231 326.056855982 308.626061231 287.621828866 c 0
 308.626061231 234.589336145 309.213938769 180.210663855 309.213938769 126.602171134 c 0
 309.213938769 109.635266479 309.155051026 92.7455107779 309 76 c 1
 291 76 l 1
 326 32 l 1
 263 -21 l 1
 262 -21 l 1
 202 50 l 1
 195 55 l 1
 155 34 120 8 83 -15 c 1
 73 -19 l 1
 43 9 20 44 -8 75 c 1
 -8 76 l 1
 6 88 21 100 34 113 c 1
 35.1715728753 121.786796564 35.6568542495 130.573593129 35.6568542495 139.56139982 c 0
 35.6568542495 145.916738879 35.4142135624 152.372583002 35 159 c 1
 14 202 l 1
 101 225 l 1xe8
225 230 m 1
 225 386 l 1
 225 392 l 2
 225 405 214 407 207 413 c 0
 199 418 190 427 178 427 c 0
 164 427 133 404 123 396 c 0
 104 383 82 367 70 347 c 0
 65 338 63 329 63 320 c 0
 63 275 102 244 141 234 c 0
 156 230 171 229 186 229 c 0
 199 229 212 230 225 230 c 1
181 77 m 1
 195 89 210 100 223 114 c 1
 224.8 131.4 225.16 150.24 225.16 169.44 c 0
 225.16 182.24 225 195.2 225 208 c 1
 172 208 l 1
 163 208 l 2
 129 208 120 185 120 153 c 2
 120 136 l 1
 120 76 l 1xe8
 102 76 l 1
 111 65 119 53 131 45 c 1
 150 53 165 64 182 74 c 1
 181 77 l 1
EndSplineSet
Validated: 1
EndChar

StartChar: b
Encoding: 98 98 61
Width: 367
Flags: HMW
HStem: 655 14<185 204.5>
VStem: 54 84<148 339 339 348 390 487 487 522 522 525 525 550.5> 246 85<55 94 94 94 94 338>
LayerCount: 2
Fore
SplineSet
77 601 m 1
 90 613 107 621 121 631 c 0
 140 643 168 669 202 669 c 0
 214 669 232 662 232 649 c 0
 232 642 225 637 221 634 c 1
 218 647 211 655 198 655 c 0
 170 655 151 628 144 606 c 0
 139 590 138 574 138 558 c 2
 138 525 l 1
 138 390 l 1
 218 465 l 1
 227 471 l 1
 240 466 249 458 259 451 c 2
 341 395 l 1
 330 373 l 1
 330.155051026 358.735305634 330.213938769 344.350407164 330.213938769 329.890035239 c 0
 330.213938769 284.201162762 329.626061231 237.758837238 329.626061231 191.973964761 c 0
 329.626061231 158.791613246 329.934846923 125.954592315 331 94 c 1
 341 73 l 1
 192 -13 l 1
 177 -19 l 1
 159 -13 145 -3 130 6 c 2
 10 76 l 1
 19 93 30 110 39 127 c 0
 43 134 47 144 54 148 c 1
 54 487 l 1
 54 522 l 2
 54 579 34 614 -2 636 c 1
 2 641 8 649 14 649 c 2
 15 649 l 2
 21 649 27 642 31 638 c 2
 59 616 l 2
 65 611 71 607 76 601 c 1
 77 601 l 1
138 111 m 2
 138 102 140 96 147 94 c 2
 162 85 l 1
 218 53 l 2
 223 50 232 42 239 42 c 0
 245 42 246 49 246 55 c 2
 246 65 l 1
 246 338 l 1
 246 346 l 2
 246 362 237 363 228 370 c 2
 199 390 l 2
 195 393 189 399 183 399 c 0
 177 398 155 374 150 370 c 0
 142 364 138 360 138 348 c 2
 138 339 l 1
 138 118 l 1
 138 111 l 2
EndSplineSet
Validated: 1
EndChar

StartChar: c
Encoding: 99 99 62
Width: 267
Flags: HMW
VStem: 35 85<116 124 124 130 130 315>
LayerCount: 2
Fore
SplineSet
152 495 m 1
 252 438 l 1
 243 419 231 401 221 383 c 0
 218 378 214 367 208 367 c 0
 202 367 195 373 190 376 c 0
 177 384 163 391 150 399 c 0
 145 401 139 407 133 407 c 0
 132 407 130 407 129 406 c 0
 121 398 120 391 120 382 c 2
 120 376 l 1
 120 130 l 1
 120 124 l 2
 120 108 129 108 137 102 c 2
 162 88 l 2
 187 74 212 58 237 45 c 0
 240 43 243 42 246 42 c 0
 251 44 255 49 261 49 c 0
 268 49 272 37 274 32 c 1
 192 -16 l 1
 182 -20 l 1
 124 10 71 45 14 76 c 1
 21 89 29 101 35 115 c 1
 35.6076252185 153.888013985 36.5844588432 195.729695219 36.5844588432 236.935598287 c 0
 36.5844588432 263.544364216 36.1771243445 289.888013985 35 315 c 1
 29 329 21 341 14 354 c 1
 50 370 85 390 112 419 c 0
 131 440 145 468 152 495 c 1
EndSplineSet
Validated: 1
EndChar

StartChar: d
Encoding: 100 100 63
Width: 367
Flags: HMW
VStem: 54 84<125 338> 246 84
LayerCount: 2
Fore
SplineSet
42 580 m 1
 44 580 l 1
 58 558 l 1
 150 509 247 464 341 417 c 1
 331 396 l 1
 330.392374781 337.060353804 329.415541157 274.428623547 329.415541157 212.367275659 c 0
 329.415541157 172.291078894 329.822875656 132.452728586 331 94 c 1
 341 73 l 1
 192 -13 l 1
 177 -19 l 1
 161 -13 149 -3 136 6 c 2
 32 76 l 2
 32 77 52 110 53 115 c 0
 54 115 54.25 128.25 54.25 142.25 c 0
 54.25 156.25 54 171 54 174 c 2
 54 338 l 1
 54 348 l 2
 54 365 66 373 76 381 c 0
 93 397 110 412 127 429 c 1
 124 430 43 469 24 480 c 0
 17 482 14 485 14 494 c 0
 14 523 30 557 42 580 c 1
238 39 m 1
 245 46 l 1
 246 95.5 246.25 146 246.25 196.875 c 0
 246.25 247.75 246 299 246 350 c 1
 244 369 l 1
 215 386 184 401 152 415 c 1
 144 410 143 398 139 389 c 0
 138 346 137.75 302.25 137.75 258.125 c 0
 137.75 214 138 169.5 138 125 c 1
 140 107 l 1
 170 82 206 62 238 39 c 1
EndSplineSet
Validated: 1
EndChar

StartChar: e
Encoding: 101 101 64
Width: 306
Flags: HMW
VStem: 35 85
LayerCount: 2
Fore
SplineSet
182 495 m 1
 193 486 202 476 212 466 c 2
 281 397 l 2
 284 394 288 391 288 387 c 0
 288 382 275 369 272 365 c 2
 223 308 l 1
 150 222 l 1
 131 199 l 2
 124 192 120 187 120 174 c 2
 120 164 l 1
 120 126 l 1
 120 115 l 2
 120 100 130 99 138 92 c 2
 170 69 l 2
 175 66 198 47 210 45 c 2
 214 45 l 2
 233 45 252 59 268 67 c 1
 266 46 l 1
 229 24 193 0 153 -19 c 1
 138 -13 127 -4 115 5 c 2
 14 76 l 1
 14 77 l 1
 21 87 29 97 35 108 c 1
 36.0651530772 138.889439238 36.3739387691 170.535245861 36.3739387691 202.534596345 c 0
 36.3739387691 246.687168854 35.7860612309 291.512831146 35.7860612309 335.953403655 c 0
 35.7860612309 350.018692908 35.8449489743 364.045407685 36 378 c 1
 32 376 28 374 24 374 c 0
 17 374 10 383 7 389 c 1
 76 412 133 450 182 495 c 1
120 221 m 1
 211 328 l 2
 213 331 217 334 217 338 c 0
 217 344 204 355 200 359 c 2
 148 411 l 2
 143 416 137 424 131 424 c 0
 123 424 120 416 120 410 c 2
 120 406 l 1
 120 221 l 1
EndSplineSet
Validated: 1
EndChar

StartChar: f
Encoding: 102 102 65
Width: 260
Flags: HMW
HStem: 347 67<142 226 142 226>
VStem: 58 84<117 347 347 347>
LayerCount: 2
Fore
SplineSet
194 664 m 1
 201 660 206 655 212 650 c 2
 240 627 l 2
 244 623 254 618 254 611 c 0
 254 604 247 596 244 591 c 2
 214 540 l 1
 195 555 176 571 158 587 c 1
 157 587 l 1
 143 570 l 1
 141.934846923 552.247448714 141.626061231 533.990652504 141.626061231 515.498160387 c 0
 141.626061231 489.982295637 142.213938769 464.017704363 142.213938769 438.309839613 c 0
 142.213938769 430.173388316 142.155051026 422.062653338 142 414 c 1
 226 414 l 1
 226 347 l 1
 142 347 l 1
 142.155051026 333.355509736 142.213938769 319.59081537 142.213938769 305.750647547 c 0
 142.213938769 262.021366864 141.626061231 217.538633136 141.626061231 173.713352453 c 0
 141.626061231 141.95120504 141.934846923 110.534388212 143 80 c 1
 153 65 164 52 175 38 c 1
 249 81 l 2
 251 82 253 83 255 83 c 0
 263 83 267 71 269 66 c 1
 264 64 168 8 159 3 c 2
 131 -13 l 2
 127 -15 122 -19 118 -19 c 0
 113 -19 102 -2 99 1 c 2
 55 53 l 1
 55 53 38 69 38 76 c 0
 38 82 46 89 50 93 c 0
 57 101 58 107 58 117 c 2
 58 347 l 1
 -19 347 l 5
 -19 437 56 408 57 414 c 4
 58 420 59 426 59 432 c 0
 59 440 58 448 58 456 c 2
 58 514 l 2
 58 518 57 524 57 529 c 0
 57 545 66 545 75 551 c 0
 113 575 143 599 172 634 c 0
 180 644 188 653 194 664 c 1
EndSplineSet
EndChar

StartChar: g
Encoding: 103 103 66
Width: 431
Flags: HMW
VStem: 35 85<100 107 107 119 119 373 373 373> 255 84<137 145 145 157 157 360>
LayerCount: 2
Fore
SplineSet
23 392 m 1
 34 397 45 400 55 405 c 0
 101 427 128 449 160 481 c 0
 163 484 168 493 174 493 c 0
 178 493 207 477 211 475 c 1
 205 466 l 1
 400 438 l 1
 422 437 l 1
 440 447 l 1
 431 427 420 407 410 387 c 0
 402 372 396 355 374 355 c 0
 369 355 345 358 339 360 c 1
 339 157 l 1
 339 145 l 2
 339 125 354 108 362 95 c 2
 408 15 l 2
 413 5 431 -23 431 -28 c 0
 431 -34 422 -41 418 -45 c 2
 335 -128 l 2
 329 -134 321 -145 313 -148 c 0
 311 -149 310 -149 308 -149 c 0
 304 -149 185 -132 151 -128 c 0
 136 -126 119 -122 104 -122 c 0
 82 -122 66 -135 53 -148 c 0
 43 -158 40 -166 22 -166 c 2
 7 -166 l 1
 109 -51 l 1
 144 -10 l 1
 14 52 l 1
 21 68 29 83 35 100 c 1
 35.6076252185 153.471019229 36.5844588432 209.895705707 36.5844588432 265.908954358 c 0
 36.5844588432 302.079583111 36.1771243445 338.078644447 35 373 c 1
 23 392 l 1
120 392 m 1
 120 119 l 1
 120 107 l 2
 120 91 130 91 139 85 c 2
 183 64 l 2
 187 62 195 57 201 57 c 0
 208 57 214 67 218 71 c 2
 242 98 l 2
 249 106 256 110 256 123 c 0
 256 128 255 133 255 137 c 2
 255 372 l 1
 120 392 l 1
147 -43 m 1
 220 -50 289 -62 360 -71 c 1
 329 -17 297 36 267 91 c 1
 147 -43 l 1
EndSplineSet
Validated: 1
EndChar

StartChar: h
Encoding: 104 104 67
Width: 378
Flags: HMW
HStem: 655 13<188.5 202>
VStem: 54 84<132 159 159 315 390 524 524 548> 247 83<82 87 87 101>
LayerCount: 2
Fore
SplineSet
-2 636 m 1
 2 640 8 649 14 649 c 0
 19 649 24 643 28 640 c 0
 39 632 49 623 60 615 c 0
 64 611 71 603 77 603 c 0
 81 603 137 641 144 645 c 0
 160 656 176 668 201 668 c 0
 213 668 232 662 232 649 c 0
 232 642 225 636 221 633 c 1
 220 636 220 640 218 643 c 0
 214 651 206 655 198 655 c 0
 170 655 151 627 144 606 c 0
 139 590 138 574 138 557 c 2
 138 524 l 1
 138 390 l 1
 218 465 l 1
 227 471 l 1
 271 448 311 420 352 394 c 0
 352 393 332 360 331 355 c 0
 330 351 330 346 330 342 c 2
 330 328 l 1
 330 87 l 1
 330 80 l 2
 330 59 335 43 351 35 c 1
 346 26 337 19 330 11 c 2
 297 -26 l 2
 255 -73 210 -124 149 -144 c 0
 132 -150 114 -152 96 -153 c 1
 96 -131 l 1
 188 -125 236 -45 245 41 c 0
 246 57 247 74 247 90 c 0
 247 112 246 134 246 156 c 2
 246 348 l 1
 246 353 l 2
 246 364 238 368 230 371 c 2
 199 391 l 2
 195 394 188 399 183 399 c 0
 178 398 155 375 150 370 c 0
 146 367 141 363 139 358 c 0
 138 358 137.75 348.5 137.75 338.375 c 0
 137.75 328.25 138 317.5 138 315 c 2
 138 76 l 1
 120 76 l 1
 145 47 l 2
 147 44 153 39 153 34 c 2
 153 33 l 2
 153 27 143 22 139 18 c 2
 92 -21 l 1
 91 -21 l 1
 18 66 l 2
 16 68 13 72 13 75 c 2
 13 76 l 2
 13 80 20 84 23 87 c 0
 30 93 38 99 45 106 c 0
 54 113 54 117 54 132 c 2
 54 159 l 2
 54 217.666666667 54.4444444444 371 54.4444444444 466.703703704 c 0
 54.4444444444 514.555555556 54.3333333333 548 54 548 c 0
 49 589 27 616 -2 636 c 1
EndSplineSet
Validated: 1
EndChar

StartChar: i
Encoding: 105 105 68
Width: 183
Flags: HMW
VStem: 68 86
LayerCount: 2
Fore
SplineSet
108 652 m 1
 175 652 l 1
 158 610 140 568 124 525 c 1
 115 508 l 1
 108 652 l 1
115 495 m 1
 197 399 l 1
 197 398 l 1
 182 385 167 373 154 359 c 1
 152.934846923 326.690356659 152.626061231 293.498284703 152.626061231 259.916123992 c 0
 152.626061231 213.579596428 153.213938769 166.500403572 153.213938769 119.971876008 c 0
 153.213938769 105.245756118 153.155051026 90.5747964178 153 76 c 1
 135 76 l 1
 159 47 l 2
 162 44 168 39 168 34 c 2
 168 33 l 2
 168 27 158 22 154 19 c 2
 107 -21 l 1
 106 -21 l 1
 25 75 l 1
 25 76 l 1
 40 89 55 101 68 115 c 1
 69.0651530772 147.309643341 69.3739387691 180.501715297 69.3739387691 214.083876008 c 0
 69.3739387691 260.420403572 68.7860612309 307.499596428 68.7860612309 354.028123992 c 0
 68.7860612309 368.754243882 68.8449489743 383.425203582 69 398 c 1
 87 398 l 1
 63 427 l 2
 60 430 54 435 54 440 c 2
 54 441 l 2
 54 447 64 452 68 455 c 2
 115 495 l 1
EndSplineSet
Validated: 1
EndChar

StartChar: j
Encoding: 106 106 69
Width: 174
Flags: HMW
HStem: -153 22<-77 -71.5>
VStem: 69 83<75 157 345.5 354.5>
LayerCount: 2
Fore
SplineSet
108 652 m 1
 175 652 l 1
 158 610 140 568 124 525 c 1
 115 508 l 1
 108 652 l 1
115 495 m 1
 197 399 l 2
 197 397 170 375 167 372 c 0
 158 365 152 361 152 348 c 0
 152 343 153 338 153 333 c 2
 153 115 l 2
 153 107 152 97 152 88 c 0
 152 62 159 50 175 39 c 1
 168 30 160 22 152 14 c 0
 98 -46 43 -132 -44 -150 c 0
 -55 -152 -66 -153 -77 -153 c 1
 -77 -131 l 1
 0 -131 41 -65 58 -6 c 0
 68 29 69 64 69 100 c 2
 69 157 l 1
 69 398 l 1
 87 398 l 1
 63 427 l 2
 60 430 54 435 54 440 c 2
 54 441 l 2
 54 447 64 452 68 455 c 2
 115 495 l 1
EndSplineSet
Validated: 1
EndChar

StartChar: k
Encoding: 107 107 70
Width: 389
Flags: HMW
HStem: 655 13<188.5 202>
VStem: 54 84<76 159 411 484 484 490> 246 83
LayerCount: 2
Fore
SplineSet
-5 640 m 1
 0 643 7 649 13 649 c 2
 14 649 l 2
 20 649 24 644 28 640 c 0
 38 632 49 624 59 615 c 0
 64 612 71 603 77 603 c 0
 81 603 137 641 144 645 c 0
 160 656 176 668 201 668 c 0
 213 668 232 662 232 649 c 0
 232 642 225 636 221 633 c 1
 220 636 220 640 218 643 c 0
 214 651 206 655 198 655 c 0
 171 655 152 629 145 609 c 0
 139 592 138 574 138 556 c 2
 138 532 l 1
 138 411 l 1
 246 473 l 1
 330 327 l 1
 304 312 277 296 250 282 c 1
 250 281 l 1
 374 224 l 1
 374 223 l 1
 360 215 345 207 332 197 c 1
 330.197936278 184.385553948 329.694846019 170.212339741 329.694846019 155.416690559 c 0
 329.694846019 136.711566642 330.498925607 117.011616749 330.498925607 98.2087928522 c 0
 330.498925607 90.6181659106 330.367884312 83.1737440881 330 76 c 1
 312 76 l 1
 336 47 l 2
 339 44 345 39 345 34 c 2
 345 33 l 2
 345 27 335 22 331 19 c 2
 284 -21 l 1
 283 -21 l 1
 202 75 l 1
 202 76 l 1
 216 88 231 100 244 113 c 1
 245.5 127.5 246.25 143.5 246.25 159.5 c 0
 246.25 175.5 245.5 191.5 244 206 c 1
 224 218 203 230 177 237 c 1
 164 231 151 224 140 216 c 1
 138.197936278 201.223077482 137.694846019 184.887386809 137.694846019 167.882444502 c 0
 137.694846019 146.384262898 138.498925607 123.816429144 138.498925607 101.976297611 c 0
 138.498925607 93.1595213792 138.367884312 84.4613391809 138 76 c 1
 120 76 l 1
 145 47 l 2
 147 44 153 39 153 34 c 2
 153 33 l 2
 153 27 143 22 139 18 c 2
 92 -21 l 1
 91 -21 l 1
 18 66 l 2
 16 68 13 72 13 75 c 2
 13 76 l 2
 13 80 20 84 23 87 c 0
 30 93 38 99 45 106 c 0
 54 113 54 117 54 132 c 2
 54 159 l 1
 54 484 l 2
 54 496 55 509 55 521 c 0
 55 583 32 614 -5 640 c 1
138 242 m 1
 239 300 l 1
 178 407 l 1
 165 400 151 393 140 384 c 1
 138.197936278 368.862664738 137.694846019 352.16656132 137.694846019 334.848022928 c 0
 137.694846019 312.953383314 138.498925607 290.063917724 138.498925607 268.07157813 c 0
 138.498925607 259.193356096 138.367884312 250.461339181 138 242 c 1
EndSplineSet
Validated: 1
EndChar

StartChar: l
Encoding: 108 108 71
Width: 210
Flags: HMW
HStem: 640 15<169.5 187>
VStem: 30 84<122 129 129 513 513 528 528 547 547 548.5>
LayerCount: 2
Fore
SplineSet
51 602 m 1
 64 610 75 621 88 628 c 0
 118 646 152 655 187 655 c 1
 187 640 l 1
 149 637 119 613 115 579 c 0
 114 574 114 569 114 563 c 2
 114 547 l 1
 114 76 l 1
 96 76 l 1
 131 32 l 1
 68 -21 l 1
 67 -21 l 1
 15 41 l 1
 -14 77 l 1
 16 102 l 2
 22 107 30 112 30 122 c 2
 30 129 l 1
 30 513 l 1
 30 528 l 2
 30 569 26 596 10 622 c 0
 8 625 1 630 1 636 c 0
 1 643 10 648 15 651 c 1
 51 602 l 1
EndSplineSet
Validated: 1
EndChar

StartChar: m
Encoding: 109 109 72
Width: 528
Flags: HMW
HStem: 475 20<82 82 271 271 457 458 458 458>
VStem: 35 86 223 85 411 85
LayerCount: 2
Fore
SplineSet
82 495 m 1
 98 478 113 460 127 441 c 1
 120 441 l 1
 120 369 l 1
 171 411 219 455 271 495 c 1
 315 441 l 1
 308 441 l 1
 308 370 l 1
 457 495 l 1
 458 495 l 1
 485 463 513 431 539 397 c 1
 524 385 509 373 496 359 c 1
 494.934846923 326.690356659 494.626061231 293.498284703 494.626061231 259.916123992 c 0
 494.626061231 213.579596428 495.213938769 166.500403572 495.213938769 119.971876008 c 0
 495.213938769 105.245756118 495.155051026 90.5747964178 495 76 c 1
 477 76 l 1
 502 47 l 2
 504 44 510 39 510 34 c 2
 510 33 l 2
 510 27 500 22 496 18 c 2
 449 -21 l 1
 448 -21 l 1
 430 2 411 24 392 46 c 2
 377 64 l 2
 375 66 370 70 370 75 c 0
 370 81 377 85 381 88 c 2
 401 105 l 2
 406 109 411 113 411 120 c 2
 411 398 l 1
 429 398 l 1
 408 424 l 1
 407 424 l 1
 375 395 340 370 310 340 c 1
 307.869693846 310.885815891 307.252122462 280.13283578 307.252122462 248.680981224 c 0
 307.252122462 205.283841352 308.427877538 160.556158648 308.427877538 116.967018776 c 0
 308.427877538 103.17120504 308.310102051 89.4894392378 308 76 c 1
 290 76 l 1
 302 62 314 47 325 32 c 1
 262 -21 l 1
 261 -21 l 1
 234 11 206 43 180 77 c 1
 195 89 210 101 223 115 c 1
 224.065153077 147.309643341 224.373938769 180.501715297 224.373938769 214.083876008 c 0
 224.373938769 260.420403572 223.786061231 307.499596428 223.786061231 354.028123992 c 0
 223.786061231 368.754243882 223.844948974 383.425203582 224 398 c 1
 241 398 l 1
 221 424 l 1
 188 395 152 370 121 339 c 1
 119.934846923 308.820662814 119.626061231 277.884958242 119.626061231 246.640467979 c 0
 119.626061231 203.529448506 120.213938769 159.830551494 120.213938769 116.719532021 c 0
 120.213938769 103.075041758 120.155051026 89.4894392378 120 76 c 1
 102 76 l 1
 126 47 l 2
 129 44 135 39 135 34 c 2
 135 33 l 2
 135 27 125 22 121 19 c 2
 74 -21 l 1
 73 -21 l 1
 -8 75 l 1
 -8 76 l 1
 7 89 22 101 35 115 c 1
 36.0651530772 147.309643341 36.3739387691 180.501715297 36.3739387691 214.083876008 c 0
 36.3739387691 260.420403572 35.7860612309 307.499596428 35.7860612309 354.028123992 c 0
 35.7860612309 368.754243882 35.8449489743 383.425203582 36 398 c 1
 54 398 l 1
 30 427 l 2
 27 430 21 435 21 440 c 2
 21 441 l 2
 21 447 31 452 35 455 c 2
 82 495 l 1
EndSplineSet
Validated: 1
EndChar

StartChar: n
Encoding: 110 110 73
Width: 344
Flags: W
HStem: 475 20G<58.5 90 245 276.5>
VStem: 35.7861 84.2139<95.125 358.587 369 398> 224.374 83.6261<95.8367 379.125>
LayerCount: 2
Fore
SplineSet
82 495 m 1
 98 478 113 460 127 441 c 1
 120 441 l 1
 120 369 l 1
 171 411 219 455 271 495 c 1
 282 480 325 431 343 409 c 0
 345 406 349 403 349 399 c 0
 349 394 342 390 339 387 c 2
 318 369 l 2
 309 362 308 359 308 345 c 2
 308 324 l 1
 308 76 l 1
 290 76 l 1
 302 62 314 47 325 32 c 1
 262 -21 l 1
 261 -21 l 1
 234 11 206 43 180 77 c 1
 195 89 210 101 223 115 c 1
 224.065153077 147.309643341 224.373938769 180.501715297 224.373938769 214.083876008 c 0
 224.373938769 260.420403572 223.786061231 307.499596428 223.786061231 354.028123992 c 0
 223.786061231 368.754243882 223.844948974 383.425203582 224 398 c 1
 241 398 l 1
 221 424 l 1
 188 395 152 370 121 339 c 1
 119.934846923 308.820662814 119.626061231 277.884958242 119.626061231 246.640467979 c 0
 119.626061231 203.529448506 120.213938769 159.830551494 120.213938769 116.719532021 c 0
 120.213938769 103.075041758 120.155051026 89.4894392378 120 76 c 1
 102 76 l 1
 126 47 l 2
 129 44 135 39 135 34 c 2
 135 33 l 2
 135 27 125 22 121 19 c 2
 74 -21 l 1
 73 -21 l 1
 -8 75 l 1
 -8 76 l 1
 7 89 22 101 35 115 c 1
 36.0651530772 147.309643341 36.3739387691 180.501715297 36.3739387691 214.083876008 c 0
 36.3739387691 260.420403572 35.7860612309 307.499596428 35.7860612309 354.028123992 c 0
 35.7860612309 368.754243882 35.8449489743 383.425203582 36 398 c 1
 54 398 l 1
 30 427 l 2
 27 430 21 435 21 440 c 2
 21 441 l 2
 21 447 31 452 35 455 c 2
 82 495 l 1
EndSplineSet
Validated: 1
EndChar

StartChar: o
Encoding: 111 111 74
Width: 356
Flags: HMW
VStem: 32 84<127 135 135 337 337 338.5> 224 84
LayerCount: 2
Fore
SplineSet
170 489 m 1
 221 466 270 441 319 417 c 1
 309 396 l 1
 308.392374781 337.060353804 307.415541157 274.428623547 307.415541157 212.367275659 c 0
 307.415541157 172.291078894 307.822875656 132.452728586 309 94 c 1
 319 73 l 1
 170 -13 l 1
 155 -19 l 1
 139 -13 127 -3 114 6 c 2
 10 76 l 2
 10 77 30 110 31 115 c 0
 32 118 32 122 32 125 c 2
 32 135 l 1
 32 337 l 2
 32 340 31 345 31 349 c 0
 31 363 41 362 50 366 c 0
 105 388 151 435 170 489 c 1
216 39 m 1
 223 46 l 1
 224 95 224.25 145 224.25 195.375 c 0
 224.25 245.75 224 296.5 224 347 c 1
 224 347 223 368 223 368 c 1
 204 380 184 390 162 399 c 1
 144 387 129 372 116 356 c 1
 116 127 l 1
 118 107 l 1
 148 82 184 62 216 39 c 1
EndSplineSet
Validated: 1
EndChar

StartChar: p
Encoding: 112 112 75
Width: 367
Flags: HMW
HStem: -195 14<188.5 204.5 185.5 208.5>
VStem: 54 84<-41 -16 -16 -1 -87 23 137 336 336 347> 246 85<94 94 94 336>
LayerCount: 2
Fore
SplineSet
100 495 m 1
 121 473 139 449 159 426 c 1
 166 420 l 1
 189 432 203 453 222 469 c 2
 251 495 l 1
 263 479 l 1
 258 472 252 465 246 459 c 1
 279 439 309 416 341 395 c 1
 330 373 l 1
 330.155051026 358.735305634 330.213938769 344.350407164 330.213938769 329.890035239 c 0
 330.213938769 284.201162762 329.626061231 237.758837238 329.626061231 191.973964761 c 0
 329.626061231 158.791613246 329.934846923 125.954592315 331 94 c 1
 341 73 l 1
 286 43 234 9 177 -20 c 1
 163 -15 151 -8 138 -1 c 1
 138 -75 l 2
 138 -99 138 -124 150 -146 c 0
 157 -159 174 -181 197 -181 c 0
 212 -181 218 -173 221 -160 c 1
 225 -163 232 -168 232 -175 c 0
 232 -187 215 -195 202 -195 c 0
 175 -195 155 -179 137 -167 c 0
 117 -154 96 -141 76 -127 c 1
 34 -188 l 1
 14 -178 l 1
 24 -165 33 -153 40 -138 c 0
 53 -107 54 -74 54 -41 c 2
 54 -16 l 1
 54 23 l 1
 54 30 l 2
 54 46 44 48 33 53 c 0
 18 60 3 68 -12 76 c 1
 30 149 l 1
 54 137 l 1
 54 398 l 1
 72 398 l 1
 48 427 l 2
 45 430 39 435 39 440 c 2
 39 441 l 2
 39 447 49 452 53 455 c 0
 69 469 85 481 100 495 c 1
181 400 m 1
 182 397 l 1
 172 389 162 381 152 372 c 0
 143 365 138 362 138 347 c 2
 138 336 l 1
 138 115 l 1
 138 106 l 2
 138 89 149 87 160 82 c 0
 179 73 228 47 233 45 c 0
 233 43 240 43 242 43 c 0
 246 45 247 50 247 55 c 0
 247 60 246 64 246 67 c 2
 246 336 l 1
 246 346 l 2
 246 361 238 364 229 369 c 0
 228 369 191 399 181 400 c 1
EndSplineSet
Validated: 1
EndChar

StartChar: q
Encoding: 113 113 76
Width: 351
Flags: HMW
HStem: -197 20<179 183 176 199.5>
VStem: 37 84<116 118 118 121 121 126 126 133 133 339 339 347 347 348> 230 84<-83 -45 -66.5 -45 -45 -11 -11 19 19 19 55 66 66 352 352 360 360 362 362 367>
LayerCount: 2
Fore
SplineSet
175 488 m 1
 230 465 282 440 336 417 c 1
 332 408 316 382 315 377 c 0
 314 374 314 372 314 369 c 2
 314 360 l 1
 314 -11 l 1
 314 -45 l 2
 314 -88 317 -133 352 -162 c 1
 352 -163 l 1
 348 -167 342 -175 336 -175 c 0
 331 -175 326 -167 323 -163 c 0
 312 -151 301 -140 292 -127 c 1
 291 -127 l 1
 279 -143 263 -157 247 -170 c 0
 231 -183 213 -197 186 -197 c 0
 172 -197 155 -188 155 -175 c 0
 155 -168 162 -163 166 -160 c 1
 169 -169 171 -177 181 -177 c 0
 185 -177 190 -175 194 -172 c 0
 221 -156 230 -122 230 -83 c 2
 230 -70 l 1
 230 19 l 1
 207 6 185 -8 161 -19 c 1
 123 0 93 26 58 47 c 2
 16 75 l 1
 20 90 34 101 37 116 c 2
 37 121 l 1
 37 133 l 1
 37 347 l 1
 37 352 l 2
 37 362 48 364 55 367 c 0
 108 390 153 437 175 488 c 1
121 118 m 2
 121 101 135 96 146 90 c 2
 201 53 l 2
 206 50 215 42 222 42 c 0
 228 42 230 48 230 55 c 2
 230 66 l 1
 230 352 l 1
 230 362 l 2
 230 372 226 373 220 377 c 0
 212 380 172 399 168 399 c 0
 161 399 138 375 133 370 c 0
 125 364 121 360 121 348 c 2
 121 339 l 1
 121 126 l 1
 121 118 l 2
EndSplineSet
Validated: 1
EndChar

StartChar: r
Encoding: 114 114 77
Width: 302
Flags: HMW
VStem: 65 85<142 142>
LayerCount: 2
Fore
SplineSet
231 495 m 1
 249 447 269 400 286 350 c 1
 268 314 248 281 227 248 c 1
 212 288 196 328 182 369 c 1
 180 366 154 327 151 315 c 0
 150 312 150 310 150 307 c 2
 150 298 l 1
 150 117 l 2
 150 113 149 108 149 103 c 0
 149 90 154 90 160 84 c 0
 170 77 192 63 203 55 c 0
 209 51 214 47 224 47 c 0
 238 47 253 58 266 63 c 1
 266 54 265 45 263 37 c 1
 236 17 204 1 174 -16 c 1
 164 -19 l 1
 115 11 70 45 22 76 c 1
 22 77 l 1
 65 142 l 1
 66.0651530772 169.338928981 66.3739387691 197.308164115 66.3739387691 225.54964005 c 0
 66.3739387691 264.517112673 65.7860612309 304.002887327 65.7860612309 343.06635995 c 0
 65.7860612309 355.429815474 65.8449489743 367.750968968 66 380 c 1
 84 380 l 1
 48 424 l 1
 69 441 89 459 111 475 c 1
 128 465 137 448 149 433 c 1
 150 408 150 381 150 355 c 1
 151 355 l 1
 231 495 l 1
EndSplineSet
Validated: 1
EndChar

StartChar: s
Encoding: 115 115 78
Width: 372
Flags: HMW
VStem: -31 40<-21 -20 -21 -4.5> 52 85 256 85<88 129 129 129 129 233> 340 33
LayerCount: 2
Fore
SplineSet
322 405 m 1xd0
 332 421 349 431 350 452 c 0
 350 469 342 485 340 501 c 0
 340 509 348 517 356 517 c 0
 369 517 374 507 374 494 c 2
 374 484 l 2
 374 431 364 420 339 391 c 0
 319 369 298 347 279 325 c 1
 384 257 l 1
 376 239 364 222 354 205 c 0
 351 198 347 188 340 185 c 1
 340 166 340 147 341 129 c 1xf0
 354 111 l 1
 335 99 224 36 189 15 c 0
 174 7 132 -19 126 -19 c 0
 119 -19 111 -10 106 -5 c 2
 57 36 l 2
 52 40 38 52 35 52 c 2
 34 52 l 2
 28 52 21 42 18 37 c 0
 10 27 0 15 0 1 c 0
 0 -8 4 -15 9 -20 c 1
 9 -21 l 1
 -27 -56 l 1
 -30 -47 -31 -38 -31 -29 c 0
 -31 20 11 63 43 98 c 0
 56 113 69 130 84 142 c 1
 84 143 l 1
 9 217 l 1
 9 218 l 1
 24 234 38 250 52 267 c 1
 53.0651530772 281.557092055 53.3739387691 296.870551494 53.3739387691 312.492796626 c 0
 53.3739387691 334.048306363 52.7860612309 356.191693637 52.7860612309 377.747203374 c 0
 52.7860612309 384.569448506 52.8449489743 391.332805894 53 398 c 1
 103 398 158 409 195 445 c 0
 209 459 220 476 229 494 c 1
 230 494 l 1
 230 461 249 453 270 439 c 0
 287 428 305 417 322 405 c 1xd0
141 205 m 1
 230 305 l 1
 264 343 l 1
 237 360 209 377 183 395 c 1
 173 400 l 1
 137 388 l 1
 137 217 l 1
 128 217 l 1
 141 205 l 1
94 118 m 0
 94 114 100 110 103 108 c 0
 113 100 122 92 132 83 c 2
 167 54 l 2
 170 52 178 41 185 41 c 0
 191 41 249 75 253 79 c 0
 256 81 256 84 256 88 c 2
 256 92 l 1
 256 233 l 2
 255 244 240 250 232 255 c 0
 230 257 226 260 222 260 c 0
 217 260 213 252 210 249 c 2
 191 228 l 1
 191 228 109 137 101 129 c 0
 99 126 94 122 94 118 c 0
EndSplineSet
Validated: 1
EndChar

StartChar: t
Encoding: 116 116 79
Width: 230
Flags: HMW
HStem: 398 64<134 218 134 218>
VStem: 50 84<131 398 398 398>
LayerCount: 2
Fore
SplineSet
8 398 m 1
 113 572 l 1
 124 586 l 1
 145 587 l 1
 139 545 134 504 134 462 c 1
 218 462 l 1
 218 398 l 1
 134 398 l 1
 134.155051026 381.719642299 134.213938769 365.319080496 134.213938769 348.843045236 c 0
 134.213938769 296.785499427 133.626061231 243.974500573 133.626061231 191.820954764 c 0
 133.626061231 154.022939915 133.934846923 116.570255649 135 80 c 1
 145 65 156 52 167 38 c 1
 241 81 l 2
 243 82 245 83 247 83 c 0
 255 83 259 71 261 66 c 1
 256 64 160 8 151 3 c 2
 123 -13 l 2
 119 -15 114 -19 110 -19 c 0
 105 -19 94 -2 91 1 c 2
 47 53 l 2
 44 56 32 68 30 75 c 0
 30 81 45 97 48 101 c 0
 50 105 50 110 50 116 c 2
 50 131 l 1
 50 398 l 1
 8 398 l 1
EndSplineSet
Validated: 1
EndChar

StartChar: u
Encoding: 117 117 80
Width: 344
Flags: W
HStem: 475 20G<58.5 99.0833 260 276.5>
VStem: 36.3739 83.2521<95.723 378.277> 224.748 83.2521<76 105 136.366 379.125>
LayerCount: 2
Fore
SplineSet
82 495 m 1
 164 399 l 1
 164 398 l 1
 149 385 134 373 121 359 c 1
 119.934846923 326.690356659 119.626061231 293.498284703 119.626061231 259.916123992 c 0
 119.626061231 213.579596428 120.213938769 166.500403572 120.213938769 119.971876008 c 0
 120.213938769 105.245756118 120.155051026 90.5747964178 120 76 c 1
 102 76 l 1
 109 68 115 59 124 53 c 1
 134 57 140 65 148 71 c 0
 173 92 198 113 222 135 c 1
 224.130306154 164.114184109 224.747877538 194.741102989 224.747877538 226.030351422 c 0
 224.747877538 269.203128033 223.572122462 313.636871967 223.572122462 357.097648578 c 0
 223.572122462 370.85283578 223.689897949 384.510560762 224 398 c 1
 241 398 l 1
 206 442 l 1
 227 460 249 478 271 495 c 1
 282 480 325 431 343 409 c 0
 345 406 349 403 349 399 c 0
 349 394 342 390 339 387 c 2
 318 369 l 2
 309 362 308 359 308 345 c 2
 308 324 l 1
 308 76 l 1
 290 76 l 1
 302 62 314 47 325 32 c 1
 262 -21 l 1
 261 -21 l 1
 249 -7 236 7 225 23 c 1
 224 49 224 77 224 105 c 1
 74 -21 l 1
 73 -21 l 1
 -8 75 l 1
 -8 76 l 1
 7 89 22 101 35 115 c 1
 36.0651530772 147.309643341 36.3739387691 180.501715297 36.3739387691 214.083876008 c 0
 36.3739387691 260.420403572 35.7860612309 307.499596428 35.7860612309 354.028123992 c 0
 35.7860612309 368.754243882 35.8449489743 383.425203582 36 398 c 1
 54 398 l 1
 30 427 l 2
 27 430 21 435 21 440 c 2
 21 441 l 2
 21 447 31 452 35 455 c 2
 82 495 l 1
EndSplineSet
Validated: 1
EndChar

StartChar: v
Encoding: 118 118 81
Width: 367
Flags: HMW
VStem: 54 84<148 339 339 348 390 404 404 404> 246 85<55 94 94 94 94 338>
LayerCount: 2
Fore
SplineSet
53 630 m 1
 70 614 l 1
 61 605 54 592 54 575 c 0
 54 531 89 510 109 482 c 0
 128 454 138 431 138 390 c 1
 176 425 212 461 251 495 c 1
 263 479 l 1
 258 472 252 465 246 459 c 1
 279 439 309 416 341 395 c 1
 330 373 l 1
 330.155051026 358.735305634 330.213938769 344.350407164 330.213938769 329.890035239 c 0
 330.213938769 284.201162762 329.626061231 237.758837238 329.626061231 191.973964761 c 0
 329.626061231 158.791613246 329.934846923 125.954592315 331 94 c 1
 341 73 l 1
 192 -13 l 1
 177 -19 l 1
 159 -13 145 -3 130 6 c 2
 10 76 l 1
 19 93 30 110 39 127 c 0
 43 134 47 144 54 148 c 1
 54 404 l 1
 49 433 20 449 8 474 c 0
 1 487 -1 501 -1 514 c 0
 -1 545 12 576 29 601 c 2
 53 630 l 1
138 111 m 2
 138 102 140 96 147 94 c 2
 162 85 l 1
 218 53 l 2
 223 50 232 42 239 42 c 0
 245 42 246 49 246 55 c 2
 246 65 l 1
 246 338 l 1
 246 346 l 2
 246 362 237 363 228 370 c 2
 199 390 l 2
 194.887187752 392.83642224 176.91796875 415.986328125 171 415 c 0
 165 414 150.122070312 397.841796875 145 394 c 4
 137 388 138 360 138 348 c 2
 138 339 l 1
 138 118 l 1
 138 111 l 2
EndSplineSet
Validated: 33
EndChar

StartChar: w
Encoding: 119 119 82
Width: 578
Flags: HMW
HStem: 475 20<251 252 252 252>
VStem: 54 84<148 336 336 347 390 405 405 405> 247 84<55 112 106.5 112 112 121 121 336 336 338 338 346 346 347> 440 84
LayerCount: 2
Fore
SplineSet
54 630 m 1
 70 615 l 1
 70 615 61 603 59 597 c 0
 56 590 54 582 54 574 c 0
 54 531 91 508 110 480 c 0
 124 460 134 437 138 413 c 1
 138 390 l 1
 251 495 l 1
 252 495 l 1
 256 491 264 485 264 479 c 0
 264 477 249 462 247 459 c 1
 279 441 306 417 338 399 c 1
 368 420 391 448 420 471 c 1
 432 467 441 459 451 453 c 2
 535 395 l 1
 525 373 l 1
 524.392374781 318.921355553 523.415541157 261.51983545 523.415541157 204.384885107 c 0
 523.415541157 167.489916015 523.822875656 130.706105116 525 95 c 1
 535 74 l 1
 384 -13 l 1
 369 -19 l 1
 339 -4 311 13 283 30 c 0
 280.166422283 31.525772617 277.427864242 32.1488583055 274.79468148 32.1488583055 c 0
 265.347244147 32.1488583055 257.256259866 24.1281299331 251 21 c 0
 227 7 203 -7 178 -19 c 1
 160 -13 146 -3 131 6 c 2
 11 75 l 1
 24 100 37 126 54 148 c 1
 54 405 l 1
 49 434 21 449 8 473 c 0
 1 486 -2 500 -2 514 c 0
 -2 557 25 601 54 630 c 1
238 137 m 1
 239 111 239 83 239 56 c 1
 204 75 l 1
 214 97 226 117 238 137 c 1
183 402 m 1
 174 391 141 364 139 358 c 0
 138 355 138 351 138 347 c 2
 138 336 l 1
 138 121 l 1
 138 112 l 2
 138 101 140 98 148 94 c 0
 160 86 207 59 221 51 c 0
 225 48 233 42 239 42 c 0
 246 42 247 49 247 55 c 2
 247 66 l 1
 247 338 l 1
 247 346 l 2
 247 362 237 364 227 372 c 0
 212 382 197 391 183 402 c 1
376 402 m 1
 367 391 334 364 332 358 c 0
 331 355 331 351 331 347 c 2
 331 336 l 1
 331 121 l 1
 331 112 l 2
 331 101 333 98 341 94 c 0
 353 86 400 59 414 51 c 0
 418 48 426 42 432 42 c 0
 439 42 440 49 440 55 c 2
 440 66 l 1
 440 338 l 1
 440 346 l 2
 440 362 430 364 420 372 c 0
 405 382 390 391 376 402 c 1
EndSplineSet
Validated: 1
EndChar

StartChar: x
Encoding: 120 120 83
Width: 302
Flags: HMW
HStem: 56 324<66 67.5>
VStem: 67 82<107 113.5>
LayerCount: 2
Fore
SplineSet
231 495 m 1
 249 447 269 400 286 350 c 1
 268 314 248 281 227 248 c 1
 212 288 196 328 182 369 c 1
 180 366 154 327 151 315 c 0
 150 312 150 310 150 307 c 2
 150 299 l 1
 150 126 l 2
 150 121 149 116 149 111 c 0
 149 98 153 98 160 91 c 0
 175 78 192 67 208 53 c 0
 214 48 219 42 229 42 c 0
 242 42 254 49 265 55 c 1
 265 48 l 2
 265 31 253 30 243 23 c 2
 195 -4 l 1
 176 -15 l 2
 173 -17 170 -19 167 -19 c 0
 160 -19 153 -12 149 -8 c 2
 116 18 l 1
 79 48 l 2
 75 50 70 56 65 56 c 0
 61 56 57 50 55 47 c 2
 34 22 l 1
 -44 -73 l 2
 -49 -73 -59 -62 -59 -59 c 0
 -59 -54 -46 -40 -43 -36 c 2
 3 24 l 1
 45 78 l 2
 55 89 67 97 67 117 c 0
 67 122 66 128 66 133 c 2
 66 380 l 1
 84 380 l 1
 48 424 l 1
 69 441 89 459 111 475 c 1
 128 465 137 448 149 433 c 1
 150 408 150 381 150 355 c 1
 151 355 l 1
 231 495 l 1
EndSplineSet
Validated: 1
EndChar

StartChar: y
Encoding: 121 121 84
Width: 339
Flags: W
HStem: -169 22<69.9023 115.319> 475 20G<58.5 90 245 276.5>
VStem: 13 26<-114.591 -8.87323> 36 84.2139<75.5157 358.587 369 398> 84 84<-130.624 -65.956> 224 84<131.447 379.125>
LayerCount: 2
Fore
SplineSet
82 495 m 1xd4
 98 478 113 460 127 441 c 1
 120 441 l 1
 120 369 l 1
 171 411 219 455 271 495 c 1
 282 480 325 431 343 409 c 0
 345 406 349 403 349 399 c 0
 349 394 342 390 339 387 c 2
 318 369 l 2
 309 362 308 360 308 346 c 2
 308 325 l 1
 308 179 l 2
 308 170 307 160 307 150 c 0
 307 132 311 129 315 115 c 1
 315 115 121 54 104 45 c 0
 68 26 39 -15 39 -63 c 0
 39 -104 62 -147 100 -147 c 0
 105 -147 111 -146 116 -144 c 1
 108 -141 100 -138 94 -131 c 0
 87 -123 84 -113 84 -103 c 0
 84 -77 103 -61 127 -61 c 0
 152 -61 168 -81 168 -103 c 0
 168 -140 136 -169 100 -169 c 0
 67 -169 44 -150 30 -128 c 0
 20 -110 13 -90 13 -66 c 0xec
 13 -30 26 6 32 41 c 0
 36 63 36 84 36 106 c 2
 36 398 l 1
 54 398 l 1
 30 427 l 2
 27 430 21 435 21 440 c 2
 21 441 l 2
 21 447 31 452 35 455 c 2
 82 495 l 1xd4
224 398 m 1
 241 398 l 1
 221 424 l 1
 188 395 152 370 121 339 c 1
 119.934846923 308.820662814 119.626061231 277.884958242 119.626061231 246.595709809 c 0
 119.626061231 203.422933198 120.213938769 159.577066802 120.213938769 116.116290191 c 0xd4
 120.213938769 102.361102989 120.155051026 88.6444902635 120 75 c 1
 137 81 187 98 212 105 c 0
 220 108 224 110 224 120 c 2
 224 131 l 1
 224 398 l 1
EndSplineSet
Validated: 1
EndChar

StartChar: z
Encoding: 122 122 85
Width: 374
Flags: HMW
HStem: -183 22<54 91 54 104.5>
VStem: 175 109<-43 80>
LayerCount: 2
Fore
SplineSet
308.096679688 -19.322265625 m 1
 308.096679688 -19.322265625 231.67578125 -3.69921875 155.618164062 2.974609375 c 0
 97.3046875 8.0908203125 54.1708984375 -11.673828125 23.57421875 -18.55859375 c 0
 17.291015625 -19.9736328125 11.533203125 -20.84375 6.2841796875 -20.84375 c 0
 4.7109375 -20.84375 143.459960938 198.680664062 143.459960938 198.680664062 c 1
 139.622070312 199.271484375 122.059570312 215.956054688 45.0751953125 209.610351562 c 0
 42.95703125 209.435546875 32.3212890625 204.228515625 30.5107421875 203.176757812 c 0
 21.078125 197.700195312 9.14746060255 198.610927915 10.0751953125 198.610351562 c 0
 14.791015625 198.607421875 52.6083984375 266.358398438 51 266 c 1
 51 266 82.1571668951 280.332792107 110.075195312 272.610351562 c 0
 140.91015625 264.081054688 152.171875 259.284179688 160.567382812 258.09375 c 0
 164.120117188 257.58984375 166.912109375 258.380859375 170 261 c 0
 208.051757812 293.284179688 250.27734375 387.204101562 252 395 c 1
 244.05859375 395.965820312 234.079101562 367.887695312 195.561523438 394.015625 c 0
 133.180664062 436.331054688 -8.416015625 464.204101562 61.453125 332.815429688 c 1
 61.453125 332.815429688 64.59765625 326.201171875 58.3095703125 326.7265625 c 0
 55.1650390625 326.991210938 56.095703125 326.7265625 55.1650390625 328.249023438 c 0
 54.5390625 329.272460938 53.716796875 330.337890625 53.59375 331.29296875 c 0
 52.6103515625 338.903320312 -14.984375 401.033203125 43.0751953125 461.610351562 c 0
 112.583007812 534.130859375 213.44140625 466.356445312 249 454 c 0
 299.36328125 436.499023438 313.684570312 463.400390625 336.928710938 463.874023438 c 1
 348.490234375 462.423828125 350.829101562 477.662109375 354.219726562 474.529296875 c 1
 362.940429688 464.544921875 351.075195312 445.610351562 351.075195312 445.610351562 c 1
 266.903320312 312.490234375 l 0
 225.075195312 247.610351562 l 1
 225.256835938 246.515625 275.939453125 240.779296875 318.075195312 263.610351562 c 0
 349.482421875 280.627929688 337.482421875 275 337.482421875 269.045898438 c 3
 337.482421875 251.928710938 291.225585938 189.302734375 291.075195312 189.610351562 c 1
 291.546875 190.19921875 241.94632061 170.315493874 208 187 c 0
 185.490234375 198.063476562 185 174.577148438 185 175 c 5
 185 175 179.757427989 174.824418401 170.2734375 156.55859375 c 0
 154.141601562 125.489257812 120 77 120 77 c 1
 117.90234375 76.146484375 212.914761204 105.38920726 276.075195312 65.6103515625 c 0
 321.662109375 36.8994140625 330.775390625 104.3671875 333.075195312 101.610351562 c 1
 360.100585938 100.618164062 l 1
 308.096679688 -19.322265625 l 1
EndSplineSet
Validated: 33
EndChar

StartChar: bar
Encoding: 124 124 86
Width: 300
Flags: HMW
HStem: 282 22<0 999 0 999>
VStem: 0 999<282 304 282 304>
LayerCount: 2
Fore
SplineSet
146 -202 m 1
 146 797 l 1
 168 797 l 1
 168 -202 l 1
 146 -202 l 1
EndSplineSet
Validated: 1
EndChar

StartChar: sfthyphen
Encoding: 173 173 89
Width: 100
Flags: HMW
HStem: 282 22<0.666667 499.667 0.666667 499.667>
VStem: 0.666667 499<282 304 282 304>
LayerCount: 2
Fore
SplineSet
0 304 m 1
 99.7998046875 304 l 1
 99.7998046875 282 l 1
 0 282 l 1
 0 304 l 1
EndSplineSet
Validated: 1
EndChar

StartChar: exclamdown
Encoding: 161 161 113
Width: 278
Flags: W
HStem: 508 20G<119.5 157> 587 21G<118.661 159> 686 20G<118 159>
VStem: 127 23<413.517 528>
LayerCount: 2
Fore
SplineSet
139 -21 m 1
 119 -1 98 18 80 39 c 1
 94 203 112 365 127 528 c 1
 150 528 l 1
 164 364 184 205 197 39 c 1
 179 18 159 -1 139 -21 c 1
139 587 m 1
 79 646 l 1
 79 647 l 1
 138 706 l 1
 139 706 l 1
 198 647 l 1
 198 646 l 1
 139 587 l 1
EndSplineSet
Validated: 1
EndChar

StartChar: questiondown
Encoding: 191 191 114
Width: 450
Flags: W
HStem: 508 20G<219 241> 587 21G<210.661 251> 686 20G<210 251>
VStem: 58 100<162.073 301.101> 219 22<477.318 528> 371 26<220.86 329.613>
LayerCount: 2
Fore
SplineSet
231 -21 m 1
 220 -12 154 51 141 64 c 0
 107 98 58 152 58 226 c 0
 58 269 75 299 98 330 c 0
 144 391 219 445 219 528 c 1
 241 528 l 1
 241 422 163 343 158 230 c 0
 158 169 199 135 235 106 c 0
 241 101 258 87 261 87 c 2
 262 87 l 2
 268 87 273 95 276 99 c 0
 307 132 343 180 360 225 c 0
 366 243 371 262 371 281 c 0
 370 299 366 315 359 332 c 1
 379 341 l 1
 391 317 397 291 397 265 c 0
 397 192 354 121 316 74 c 0
 311 67 301 59 301 50 c 2
 301 49 l 1
 231 -21 l 1
231 587 m 1
 171 646 l 1
 171 647 l 1
 230 706 l 1
 231 706 l 1
 290 647 l 1
 290 646 l 1
 231 587 l 1
EndSplineSet
Validated: 1
EndChar

StartChar: adieresis
Encoding: 228 228 149
Width: 365
Flags: W
HStem: 208 21<133.862 224> 427 66<169.5 229.5> 516 114<141.312 190.688>
VStem: 35.6569 84.3431<113.412 158.689> 42 21<282.366 351.637> 109 114<548.344 597.656> 224.16 84.0539<114.817 208 230 415.695> 228 113<548.125 597.366>
LayerCount: 2
Fore
SplineSet
165 630 m 0xf0
 171 630 192 607 196 603 c 2
 215 584 l 2
 217 582 223 578 223 573 c 0
 223 567 215 562 212 559 c 2
 181 528 l 2
 177 524 172 517 167 516 c 0
 161 516 140 539 136 543 c 2
 117 562 l 2
 115 564 109 568 109 573 c 0xe4
 109 579 117 584 120 587 c 2
 151 618 l 2
 155 622 160 629 165 630 c 0xf0
284 632 m 1
 300 620 313 604 327 590 c 0
 331 586 341 579 341 573 c 0
 341 567 331 560 327 556 c 2
 285 514 l 1
 284 514 l 1
 242 556 l 2
 238 560 228 567 228 573 c 0xe1
 228 579 238 586 242 590 c 2
 284 632 l 1
101 225 m 1
 70 245 42 270 42 319 c 0xe8
 42 376 108 414 151 443 c 2
 201 478 l 2
 207 482 216 493 226 493 c 0
 233 493 251 481 256 477 c 2
 340 429 l 1
 329 420 318 411 309 400 c 1
 307.934846923 363.784795376 307.626061231 326.056855982 307.626061231 287.621828866 c 0
 307.626061231 234.589336145 308.213938769 180.210663855 308.213938769 126.602171134 c 0
 308.213938769 109.635266479 308.155051026 92.7455107779 308 76 c 1
 290 76 l 1
 314 47 l 2
 317 44 323 39 323 34 c 2
 323 33 l 2
 323 27 313 22 309 19 c 0
 293 5 277 -7 262 -21 c 1
 261 -21 l 1
 201 50 l 1
 194 55 l 1
 155 34 120 8 83 -15 c 1
 73 -19 l 1
 43 9 20 44 -8 75 c 1
 -8 76 l 1
 6 88 21 100 34 113 c 1
 35.1715728753 121.786796564 35.6568542495 130.573593129 35.6568542495 139.56139982 c 0xf2
 35.6568542495 145.916738879 35.4142135624 152.372583002 35 159 c 1
 14 202 l 1
 101 225 l 1
224 230 m 1
 224 387 l 1
 224 393 l 2
 224 405 213 409 206 413 c 0
 199 418 190 427 178 427 c 0
 161 427 133 403 122 395 c 0
 101 380 63 357 63 319 c 0
 63 275 103 244 141 234 c 0
 156 230 171 229 186 229 c 0
 199 229 212 230 224 230 c 1
181 74 m 1
 193 89 210 99 222 114 c 1
 223.8 131.4 224.16 150.24 224.16 169.44 c 0
 224.16 182.24 224 195.2 224 208 c 1
 171 208 l 1
 162 208 l 2
 155 208 147 208 141 204 c 0
 124 194 120 176 120 153 c 2
 120 136 l 1
 120 76 l 1xf2
 102 76 l 1
 108 69 126 46 130 45 c 2
 132 45 l 2
 137 45 142 49 145 51 c 0
 157 59 168 67 181 74 c 1
EndSplineSet
Validated: 1
EndChar

StartChar: ae
Encoding: 230 230 151
Width: 501
Flags: W
HStem: 208 21<159.005 225> 427 66<191.047 218.448>
VStem: 36 84<113.422 159> 42 21<282.647 350.556> 225 84<89.6455 185.859 230 378 400 414.908>
LayerCount: 2
Fore
SplineSet
101 226 m 1xe8
 79 236 42 270 42 309 c 0xd8
 42 322 42 335 47 348 c 0
 53 363 64 376 76 387 c 0
 100 411 130 429 158 448 c 2
 205 481 l 2
 211 485 218 493 225 493 c 2
 226 493 l 2
 232 493 281 463 288 459 c 0
 295 455 304 452 309 445 c 1
 372 495 l 1
 373 495 l 1
 472 396 l 2
 474 393 478 390 478 386 c 0
 477 380 470 374 466 370 c 2
 435 334 l 1
 349 233 l 2
 348 232 315 195 310 186 c 0
 309 183 309 180 309 176 c 2
 309 166 l 1
 309 125 l 2
 309 122 308 118 308 114 c 0
 308 100 319 98 327 92 c 2
 359 70 l 1
 382 54 l 2
 388 49 393 45 403 45 c 0
 422 45 441 59 458 67 c 1
 456 47 l 1
 421 22 382 1 342 -19 c 1
 307 -1 279 24 246 45 c 2
 214 69 l 1
 213 69 l 1
 171 40 127 13 84 -15 c 1
 73 -19 l 1
 43 9 20 44 -8 75 c 1
 -8 76 l 1
 6 88 21 100 34 113 c 1
 35 122 36 131 36 140 c 0
 36 146 35 152 35 159 c 1
 14 202 l 1
 101 225 l 1
 101 226 l 1xe8
196 389 m 1
 225 400 l 1
 225 402 l 1
 215 406 205 414 196 420 c 0
 191 424 185 427 179 427 c 0
 163 427 135 405 125 397 c 0
 99 378 63 355 63 319 c 2
 63 316 l 2
 63 291 82 266 98 254 c 0
 116 241 137 233 159 230 c 0
 159 229 166 229 175 229 c 0
 194 229 222 230 225 230 c 1
 225 378 l 1
 221 376 217 374 213 374 c 0
 206 374 199 383 196 389 c 1
309 221 m 1
 410 339 l 1
 401 346 393 355 385 363 c 2
 329 419 l 2
 327 421 324 424 320 424 c 2
 319 424 l 2
 309 424 308 412 308 402 c 0
 308 394 309 385 309 377 c 2
 309 221 l 1
102 76 m 1
 109 68 115 61 121 53 c 0
 124 50 127 45 131 45 c 2
 133 45 l 2
 139 45 196 84 202 88 c 0
 216 97 226 102 226 123 c 0
 226 128 225 134 225 139 c 2
 225 208 l 1
 172 208 l 1
 163 208 l 2
 155 208 147 208 141 204 c 0
 124 194 120 174 120 156 c 2
 120 76 l 1xe8
 102 76 l 1
EndSplineSet
Validated: 1
EndChar

StartChar: edieresis
Encoding: 235 235 156
Width: 311
Flags: W
HStem: 374 15<12.6323 26.0931> 475 20G<157.5 187.5> 516 114<217.312 266.688>
VStem: 36.3739 83.6261<89.4844 212.297 221 378> 67 113<548.125 597.366> 185 114<548.344 597.656> 217 71<336 389>
LayerCount: 2
Fore
SplineSet
123 632 m 1xe8
 139 620 152 604 166 590 c 0
 170 586 180 579 180 573 c 0
 180 567 170 560 166 556 c 2
 124 514 l 1
 123 514 l 1
 81 556 l 2
 77 560 67 567 67 573 c 0
 67 579 77 586 81 590 c 2
 123 632 l 1xe8
241 630 m 0
 247 630 268 607 272 603 c 2
 291 584 l 2
 293 582 299 578 299 573 c 0xe4
 299 567 291 562 288 559 c 2xe2
 257 528 l 2
 253 524 248 517 243 516 c 0
 237 516 216 539 212 543 c 2
 193 562 l 2
 191 564 185 568 185 573 c 0xe4
 185 579 193 584 196 587 c 2
 227 618 l 2
 231 622 236 629 241 630 c 0
182 495 m 1
 193 486 202 476 212 466 c 2
 281 397 l 2
 284 394 288 391 288 387 c 0
 288 382 275 369 272 365 c 2
 223 308 l 1
 150 222 l 1
 131 199 l 2
 124 192 120 187 120 174 c 2
 120 164 l 1
 120 126 l 1
 120 115 l 2
 120 100 130 99 138 92 c 2
 170 69 l 2
 175 66 198 47 210 45 c 2
 214 45 l 2
 233 45 252 59 268 67 c 1
 266 46 l 1
 229 24 193 0 153 -19 c 1
 138 -13 127 -4 115 5 c 2
 14 76 l 1
 14 77 l 1
 21 87 29 97 35 108 c 1
 36.0651530772 138.889439238 36.3739387691 170.535245861 36.3739387691 202.534596345 c 0xf2
 36.3739387691 246.687168854 35.7860612309 291.512831146 35.7860612309 335.953403655 c 0
 35.7860612309 350.018692908 35.8449489743 364.045407685 36 378 c 1
 32 376 28 374 24 374 c 0
 17 374 10 383 7 389 c 1
 76 412 133 450 182 495 c 1
120 221 m 1
 211 328 l 2
 213 331 217 334 217 338 c 0
 217 344 204 355 200 359 c 2
 148 411 l 2
 143 416 137 424 131 424 c 0
 123 424 120 416 120 410 c 2
 120 406 l 1
 120 221 l 1
EndSplineSet
Validated: 1
EndChar

StartChar: odieresis
Encoding: 246 246 167
Width: 345
Flags: W
HStem: 470 20G<150 199.548> 516 114<75.3125 124.688 194.312 243.688>
VStem: 21 84<107 367.059> 43 114<548.344 597.656> 162 114<548.344 597.656> 212 93<59.2812 94.7606> 213.25 83.75<76.101 379.707>
LayerCount: 2
Fore
SplineSet
99 630 m 0xd0
 105 630 126 607 130 603 c 2
 149 584 l 2
 151 582 157 578 157 573 c 0
 157 567 149 562 146 559 c 2
 115 528 l 2
 111 524 106 517 101 516 c 0
 95 516 74 539 70 543 c 2
 51 562 l 2
 49 564 43 568 43 573 c 0
 43 579 51 584 54 587 c 2
 85 618 l 2
 89 622 94 629 99 630 c 0xd0
218 630 m 0
 224 630 245 607 249 603 c 2
 268 584 l 2
 270 582 276 578 276 573 c 0
 276 567 268 562 265 559 c 2
 234 528 l 2
 230 524 225 517 220 516 c 0
 214 516 193 539 189 543 c 2
 170 562 l 2
 168 564 162 568 162 573 c 0xc8
 162 579 170 584 173 587 c 2
 204 618 l 2
 208 622 213 629 218 630 c 0
159 490 m 1
 307 417 l 1
 305 410 299 404 298 396 c 0
 297 392 297 387 297 382 c 2
 297 368 l 1
 297 95 l 2xe2
 298 90 305 78 305 76 c 0
 305 69 293 65 288 62 c 2
 238 33 l 1
 171 -6 l 2
 170 -6 150 -19 144 -19 c 0
 139 -19 135 -15 131 -13 c 2
 104 5 l 2
 69 29 33 51 -1 76 c 1
 -1 76 19 108 20 115 c 0
 21 118 21 122 21 125 c 2
 21 135 l 1
 21 337 l 2xe4
 21 340 20 345 20 349 c 0
 20 363 30 362 39 366 c 0
 92 389 141 434 159 490 c 1
205 39 m 1
 212 46 l 1xe4
 213 95 213.25 145 213.25 195.375 c 0xc2
 213.25 245.75 213 296.5 213 347 c 1
 213 347 212 368 212 368 c 1xc4
 193 380 173 390 151 399 c 1
 133 387 118 372 105 356 c 1
 105 127 l 1
 107 107 l 1
 137 81 173 62 205 39 c 1
EndSplineSet
Validated: 1
EndChar

StartChar: oe
Encoding: 339 339 168
Width: 506
Flags: W
HStem: 475 14G<149.5 173.5 350 364.5>
VStem: 21 84<92.3202 367.049> 213 84.2991<89.25 211.159 221 366.858>
LayerCount: 2
Fore
SplineSet
359 495 m 1
 370 486 379 476 389 466 c 2
 459 396 l 2
 461 393 465 390 465 386 c 0
 464 380 457 374 453 370 c 2
 453 370 320 213 311 203 c 0
 304 194 297 190 297 176 c 2
 297 166 l 1
 297 125 l 2
 297 122 296 118 296 114 c 0
 296 100 307 98 315 92 c 2
 347 70 l 2
 352 66 374 47 387 45 c 2
 390 45 l 2
 410 45 428 60 446 67 c 1
 444 47 l 1
 412 23 373 6 339 -16 c 1
 327 -19 l 1
 299 -1 273 18 246 36 c 1
 210 20 181 -3 145 -19 c 1
 107 0 77 26 42 47 c 2
 -1 76 l 2
 -1 77 19 110 20 115 c 0
 21 118 21 122 21 125 c 2
 21 135 l 1
 21 337 l 2
 21 340 20 345 20 349 c 0
 20 363 30 362 39 366 c 0
 94 388 140 435 159 489 c 1
 188 479 215 461 243 449 c 0
 245 448 268 434 276 434 c 0
 281 434 297 446 301 448 c 0
 321 462 341 478 359 495 c 1
300 422 m 0
 300 417 306 419 308 417 c 2
 298 396 l 1
 297.261203875 375.313708499 297.068227464 353.945142355 297.068227464 332.297551058 c 0
 297.068227464 308.618629427 297.299119474 284.605860368 297.299119474 260.786997047 c 0
 297.299119474 247.432709046 297.22654092 234.13937334 297 221 c 1
 388 328 l 2
 390 331 394 334 394 338 c 2
 394 339 l 2
 394 343 378 358 375 361 c 2
 326 410 l 2
 322 414 315 424 308 425 c 0
 305 425 302 423 300 422 c 0
213 76 m 1
 213 339 l 2
 213 344 214 349 214 355 c 0
 214 359 213 364 212 367 c 0
 210 374 202 372 197 375 c 0
 193 377 191 380 187 382 c 0
 180 386 156 399 151 399 c 0
 146 399 141 393 138 390 c 2
 117 370 l 2
 110 363 105 362 105 349 c 2
 105 336 l 1
 105 127 l 1
 105 119 l 2
 105 107 109 104 116 99 c 0
 130 90 189 51 205 39 c 1
 209 43 213 46 213 53 c 0
 213 63 199 70 192 75 c 1
 192 76 l 1
 213 76 l 1
EndSplineSet
Validated: 1
EndChar

StartChar: oslash
Encoding: 248 248 169
Width: 339
Flags: W
HStem: 489 8G<154.5 207.448 239.333 267>
VStem: 26 84<130 367.049> 75 18<8.63636 15> 218.374 83.0416<94 368>
LayerCount: 2
Fore
SplineSet
246 517 m 1xd0
 267 509 l 1
 246 449 l 1
 313 417 l 1
 303 396 l 1
 302.392374781 337.060353804 301.415541157 274.428623547 301.415541157 212.367275659 c 0
 301.415541157 172.291078894 301.822875656 132.452728586 303 94 c 1
 313 73 l 1
 164 -13 l 1
 149 -19 l 1
 129 -9 111 3 93 15 c 1
 87 -5 80 -24 73 -43 c 1
 53 -35 l 1
 75 29 l 1xb0
 4 76 l 2
 4 77 24 110 25 115 c 0
 26 118 26 122 26 125 c 2
 26 135 l 1
 26 337 l 2
 26 340 25 345 25 349 c 0
 25 363 35 362 44 366 c 0
 99 388 145 435 164 489 c 1
 227 460 l 1
 246 517 l 1xd0
111 130 m 1
 198 380 l 1
 188 384 161 399 157 399 c 0
 150 399 126 374 121 369 c 0
 113 361 110 360 110 347 c 2
 110 330 l 1
 110 130 l 1xd0
 111 130 l 1
217 368 m 1
 130 118 l 1
 125 98 l 1
 151 76 182 59 210 39 c 1
 217 46 l 1
 218.065153077 82.9253066751 218.373938769 120.733041966 218.373938769 158.930866011 c 0
 218.373938769 211.636066906 217.786061231 265.083933094 217.786061231 317.981133989 c 0
 217.786061231 334.722917213 217.844948974 351.409540248 218 368 c 1
 217 368 l 1
EndSplineSet
Validated: 1
EndChar

StartChar: udieresis
Encoding: 252 252 173
Width: 344
Flags: W
HStem: 475 20G<58.5 99.0833 260 276.5> 516 114<73.3125 122.688>
VStem: 36.3739 83.2521<95.723 378.277> 41 114<548.344 597.656> 160 113<548.125 597.366> 224.748 83.2521<76 105 136.366 379.125>
LayerCount: 2
Fore
SplineSet
97 630 m 0xd0
 103 630 124 607 128 603 c 2
 147 584 l 2
 149 582 155 578 155 573 c 0
 155 567 147 562 144 559 c 2
 113 528 l 2
 109 524 104 517 99 516 c 0
 93 516 72 539 68 543 c 2
 49 562 l 2
 47 564 41 568 41 573 c 0
 41 579 49 584 52 587 c 2
 83 618 l 2
 87 622 92 629 97 630 c 0xd0
216 632 m 1
 232 620 245 604 259 590 c 0
 263 586 273 579 273 573 c 0
 273 567 263 560 259 556 c 2
 217 514 l 1
 216 514 l 1
 174 556 l 2
 170 560 160 567 160 573 c 0xc8
 160 579 170 586 174 590 c 2
 216 632 l 1
82 495 m 1
 164 399 l 1
 164 398 l 1
 149 385 134 373 121 359 c 1
 119.934846923 326.690356659 119.626061231 293.498284703 119.626061231 259.916123992 c 0
 119.626061231 213.579596428 120.213938769 166.500403572 120.213938769 119.971876008 c 0
 120.213938769 105.245756118 120.155051026 90.5747964178 120 76 c 1
 102 76 l 1
 109 68 115 59 124 53 c 1
 134 57 140 65 148 71 c 0
 173 92 198 113 222 135 c 1
 224.130306154 164.114184109 224.747877538 194.741102989 224.747877538 226.030351422 c 0
 224.747877538 269.203128033 223.572122462 313.636871967 223.572122462 357.097648578 c 0
 223.572122462 370.85283578 223.689897949 384.510560762 224 398 c 1
 241 398 l 1
 206 442 l 1
 227 460 249 478 271 495 c 1
 282 480 325 431 343 409 c 0
 345 406 349 403 349 399 c 0
 349 394 342 390 339 387 c 2
 318 369 l 2
 309 362 308 359 308 345 c 2
 308 324 l 1
 308 76 l 1
 290 76 l 1
 302 62 314 47 325 32 c 1
 262 -21 l 1
 261 -21 l 1
 249 -7 236 7 225 23 c 1
 224 49 224 77 224 105 c 1
 74 -21 l 1
 73 -21 l 1
 -8 75 l 1
 -8 76 l 1
 7 89 22 101 35 115 c 1
 36.0651530772 147.309643341 36.3739387691 180.501715297 36.3739387691 214.083876008 c 0xe4
 36.3739387691 260.420403572 35.7860612309 307.499596428 35.7860612309 354.028123992 c 0
 35.7860612309 368.754243882 35.8449489743 383.425203582 36 398 c 1
 54 398 l 1
 30 427 l 2
 27 430 21 435 21 440 c 2
 21 441 l 2
 21 447 31 452 35 455 c 2
 82 495 l 1
EndSplineSet
Validated: 1
EndChar

StartChar: germandbls
Encoding: 223 223 174
Width: 444
Flags: W
HStem: -141 21G<29 39 229 239> 539 21G<362.25 397.351>
VStem: 29 83.418<-42.2169 347 347.679 553.25> 229 83.418<-42.2169 347 348.308 502.573>
LayerCount: 2
Fore
SplineSet
165 664 m 1
 187 647 209 630 228 610 c 1
 229 588 229 564 229 541 c 1
 282 573 332 612 365 664 c 1
 387 648 407 630 428 613 c 1
 386 539 l 1
 329 587 l 1
 328 587 l 1
 314 571 l 1
 312.81748766 527.956550827 312.418043163 483.73849989 312.418043163 438.861754447 c 0
 312.418043163 345.406707037 314.150327824 249.095076554 314.150327824 154.586111394 c 0
 314.150327824 102.586327717 313.62591136 51.1322669214 312 1 c 1
 292 -44 268 -85 247 -128 c 1
 239 -139 l 1
 229 -141 l 1
 229 347 l 1
 207 347 l 1
 215 375 228 397 229 432 c 0
 228.839642543 435.848578958 228.782143142 439.748586944 228.782143142 443.67115936 c 0
 228.782143142 453.61614415 229.151741155 463.7061699 229.151741155 473.470839138 c 0
 229.151741155 483.872629455 228.732338917 493.905220684 227 503 c 1
 195 532 161 559 129 587 c 1
 128 587 l 1
 114 571 l 1
 112.81748766 527.956550827 112.418043163 483.73849989 112.418043163 438.861754447 c 0
 112.418043163 345.406707037 114.150327824 249.095076554 114.150327824 154.586111394 c 0
 114.150327824 102.586327717 113.62591136 51.1322669214 112 1 c 1
 92 -44 68 -85 47 -128 c 1
 39 -139 l 1
 29 -141 l 1
 29 347 l 1
 7 347 l 1
 12 361 27 406 28 414 c 0
 29 420 30 426 30 432 c 0
 30 440 29 448 29 456 c 2
 29 514 l 2
 29 518 28 524 28 529 c 0
 28 545 37 545 46 551 c 0
 84 575 114 599 143 634 c 0
 151 644 159 653 165 664 c 1
EndSplineSet
Validated: 1
EndChar

StartChar: NameMe.204
Encoding: 1114113 -1 175
Width: 344
Flags: W
HStem: 347 67<142 184> 475 20G<279.897 321.706> 506 56G<203.5 212.5 303.041 313.082>
VStem: 58 84.2139<76.282 347 414.002 553.25> 258.374 83.6261<95.8367 379.25>
LayerCount: 2
Fore
SplineSet
194 664 m 1
 199 661 209 657 209 648 c 0
 209 646 209 643 208 641 c 2
 208 625 l 2
 211 597 212 569 213 541 c 1
 194 556 176 571 158 587 c 1
 157 587 l 1
 143 570 l 1
 141.934846923 552.247448714 141.626061231 533.990652504 141.626061231 515.498160387 c 0
 141.626061231 489.982295637 142.213938769 464.017704363 142.213938769 438.309839613 c 0
 142.213938769 430.173388316 142.155051026 422.062653338 142 414 c 1
 184 414 l 1
 184 347 l 1
 142 347 l 1
 142.155051026 333.355509736 142.213938769 319.59081537 142.213938769 305.750647547 c 0
 142.213938769 262.021366864 141.626061231 217.538633136 141.626061231 173.713352453 c 0
 141.626061231 141.95120504 141.934846923 110.534388212 143 80 c 1
 153 65 164 52 175 38 c 1
 223 65 l 1
 214 77 l 1
 229 89 244 101 257 115 c 1
 258.065153077 147.309643341 258.373938769 180.501715297 258.373938769 214.083876008 c 0
 258.373938769 260.420403572 257.786061231 307.499596428 257.786061231 354.028123992 c 0
 257.786061231 368.754243882 257.844948974 383.425203582 258 398 c 1
 276 398 l 1
 251 427 l 2
 249 430 243 435 243 440 c 2
 243 441 l 2
 243 447 253 452 257 456 c 2
 304 495 l 1
 305 495 l 1
 376 410 l 2
 378 408 383 404 383 399 c 0
 383 393 376 389 372 386 c 2
 353 370 l 2
 348 365 342 362 342 354 c 2
 342 76 l 1
 324 76 l 1
 348 47 l 2
 351 44 357 39 357 34 c 2
 357 33 l 2
 357 27 347 22 343 19 c 0
 327 5 311 -7 296 -21 c 1
 295 -21 l 1
 276 2 256 24 238 48 c 1
 208 33 136 -10 129 -15 c 0
 126 -16 122 -19 118 -19 c 0
 113 -19 102 -2 99 1 c 2
 55 53 l 1
 55 53 38 69 38 76 c 0
 38 82 46 89 50 93 c 0
 57 101 58 107 58 117 c 2
 58 347 l 1
 36 347 l 1
 41 361 56 406 57 414 c 0
 58 420 59 426 59 432 c 0
 59 440 58 448 58 456 c 2
 58 514 l 2
 58 518 57 524 57 529 c 0
 57 545 66 545 75 551 c 0
 113 575 143 599 172 634 c 0
 180 644 188 653 194 664 c 1
297 652 m 1
 364 652 l 1
 305 506 l 1
 304 506 l 1
 297 652 l 1
EndSplineSet
Validated: 1
EndChar

StartChar: NameMe.205
Encoding: 1114114 -1 176
Width: 549
Flags: W
HStem: -152 22<304 352.282> 475 20G<148 186.737> 655 13<383.415 421.292>
VStem: 35 85<99.9355 353.391> 262 84<114.188 379.678 391 602.448> 428 11<636.455 647.365> 453 84<41.5171 354.812>
LayerCount: 2
Fore
SplineSet
206 637 m 1
 210 640 216 649 222 649 c 0
 228 649 234 642 238 639 c 0
 249 630 259 621 270 613 c 0
 274 610 279 603 284 603 c 0
 290 603 343 640 352 646 c 0
 368 656 384 668 408 668 c 0
 420 668 439 663 439 648 c 0
 439 640 432 637 428 633 c 1
 428 647 416 655 405 655 c 0
 377 655 359 626 352 606 c 0
 347 590 346 574 346 558 c 2
 346 525 l 1
 346 391 l 1
 376 417 402 446 433 471 c 1
 446 467 455 459 466 453 c 2
 559 394 l 2
 559 393 539 360 538 355 c 0
 537 351 537 346 537 342 c 2
 537 328 l 1
 537 86 l 1
 537 79 l 2
 537 65 538 52 549 41 c 2
 558 35 l 1
 553 26 544 19 537 11 c 2
 504 -26 l 2
 458 -77 407 -135 336 -149 c 0
 325 -151 315 -152 304 -152 c 1
 304 -130 l 1
 352 -130 389 -103 411 -72 c 0
 449 -20 453 41 453 103 c 2
 453 161 l 1
 453 347 l 1
 453 354 l 2
 453 361 448 365 443 368 c 2
 427 378 l 1
 427 378 396 398 392 399 c 0
 386 399 366 378 361 373 c 0
 354 367 346 362 346 350 c 2
 346 344 l 1
 346 76 l 1
 328 76 l 1
 352 47 l 2
 355 44 361 39 361 34 c 2
 361 33 l 2
 361 27 351 22 347 19 c 0
 331 5 315 -7 300 -21 c 1
 299 -21 l 1
 272 11 l 2
 269 15 265 21 260 22 c 0
 254 22 247 16 242 13 c 0
 228 5 189 -19 183 -19 c 0
 175 -19 133 7 126 11 c 0
 89 33 50 53 14 76 c 1
 21 89 29 101 35 115 c 1
 35.6076252185 153.888013985 36.5844588432 195.729695219 36.5844588432 236.935598287 c 0
 36.5844588432 263.544364216 36.1771243445 289.888013985 35 315 c 1
 29 329 21 341 14 354 c 1
 52 372 91 393 118 427 c 0
 134 447 144 471 152 495 c 1
 251 438 l 1
 238 413 224 389 210 365 c 1
 195 372 158 394 138 406 c 0
 137 407 135 407 133 407 c 0
 127 407 121 397 120 392 c 2
 120 341 l 1
 120 133 l 1
 120 125 l 2
 120 112 124 109 133 105 c 2
 156 91 l 1
 245 40 l 1
 246 41 l 1
 218 77 l 1
 228 84 258 109 260 114 c 0
 262 118 262 122 262 126 c 2
 262 545 l 1
 258 584 238 614 206 636 c 1
 206 637 l 1
EndSplineSet
Validated: 1
EndChar

StartChar: NameMe.206
Encoding: 1114115 -1 177
Width: 444
Flags: W
HStem: 398 64<383 467> 466 21<92.6964 153.712> 473 20G<156.5 166.5> 666 22<126.737 244.052>
VStem: 47.5845 83.1655<113 352.784> 299 84.2139<101.188 398>
LayerCount: 2
Fore
SplineSet
154 469 m 1xbc
 144 467 134 466 124 466 c 0
 67 466 35 516 35 562 c 0
 35 638 107 688 187 688 c 0
 254 688 315 652 352 612 c 0
 353 611 368 591 374 588 c 0
 377 587 380 587 384 587 c 2
 394 587 l 1
 388 545 383 504 383 462 c 1
 467 462 l 1
 467 398 l 1
 383 398 l 1
 383.155051026 381.719642299 383.213938769 365.319080496 383.213938769 348.843045236 c 0
 383.213938769 296.785499427 382.626061231 243.974500573 382.626061231 191.820954764 c 0
 382.626061231 154.022939915 382.934846923 116.570255649 384 80 c 1
 394 65 405 52 416 38 c 1
 444 54 471 71 500 85 c 1
 510 66 l 1
 472 45 438 23 400 3 c 2
 372 -13 l 2
 368 -15 363 -19 359 -19 c 0
 354 -19 343 -2 340 1 c 2
 296 53 l 2
 293 56 281 68 279 75 c 0
 279 81 294 97 297 101 c 0
 299 105 300 110 300 116 c 0
 300 121 299 126 299 131 c 2
 299 398 l 1
 257 398 l 1
 292 454 324 513 361 568 c 1
 361 569 l 1
 355 574 351 580 346 586 c 0
 308 628 250 666 185 666 c 0
 124 666 65 634 57 572 c 0
 56 572 56 562 56 562 c 1
 56 562 57 545 58 545 c 0
 68 511 94 487 131 487 c 0xdc
 147 487 150 492 163 493 c 0
 170 493 175 489 179 486 c 2
 198 475 l 1
 263 438 l 1
 250 413 236 389 222 365 c 1
 195 379 168 395 142 410 c 1
 132 394 l 1
 131 352 130.75 309 130.75 265.625 c 0
 130.75 222.25 131 178.5 131 135 c 1
 133 113 l 1
 167 88 207 70 243 47 c 1
 253 42 l 1
 275 51 l 1
 285 32 l 1
 203 -16 l 1
 193 -20 l 1
 135 10 82 45 25 76 c 1
 32 89 40 101 46 115 c 1
 46.6076252185 153.888013985 47.5844588432 195.729695219 47.5844588432 236.935598287 c 0
 47.5844588432 263.544364216 47.1771243445 289.888013985 46 315 c 1
 40 329 32 341 25 354 c 1
 61 371 98 391 125 421 c 0
 137 435 146 452 154 469 c 1xbc
EndSplineSet
Validated: 1
EndChar

StartChar: NameMe.207
Encoding: 1114116 -1 178
Width: 590
Flags: W
HStem: -195 14<176.148 215.675> 475 20G<76.2264 110 229.246 264 394 439.548>
VStem: 54 84<-125.777 -1 137 379> 222 11<-173.167 -163.015> 247 97<94 372.104> 452.25 83.5<74.4197 380.457>
LayerCount: 2
Fore
SplineSet
100 495 m 1
 120 473 140 450 159 426 c 1
 166 420 l 1
 176 424 182 432 189 438 c 2
 251 495 l 1
 252 495 l 1
 264 480 l 1
 260 471 252 467 246 461 c 1
 246 460 l 1
 254 455 262 449 270 444 c 2
 308 418 l 2
 310 417 327 404 333 402 c 0
 340 402 350 415 354 419 c 0
 374 439 389 464 399 490 c 1
 547 417 l 1
 537 395 l 1
 536 346 535.75 296.25 535.75 246.25 c 0
 535.75 196.25 536 146 536 96 c 0
 539 89 543 83 545 74 c 1
 496 43 445 14 393 -15 c 1
 383 -19 l 1
 356 -8 337 11 313 25 c 2
 288 43 l 1
 287 43 l 1
 251 22 217 -2 177 -20 c 1
 164 -14 151 -7 138 -1 c 1
 138 -75 l 2
 138 -99 138 -125 151 -147 c 0
 158 -161 176 -181 199 -181 c 0
 213 -181 219 -173 222 -160 c 1
 226 -163 233 -167 233 -175 c 0
 233 -189 216 -195 201 -195 c 0
 178 -195 159 -181 144 -171 c 0
 121 -157 99 -141 76 -127 c 1
 34 -188 l 1
 14 -178 l 1
 24 -164 34 -151 41 -135 c 0
 53 -107 54 -78 54 -48 c 2
 54 -15 l 1
 54 25 l 1
 54 32 l 2
 54 46 44 47 34 52 c 0
 19 60 4 68 -11 75 c 1
 2 101 16 125 30 149 c 1
 54 137 l 1
 54 398 l 1
 72 398 l 1
 37 442 l 1
 100 495 l 1
184 402 m 0
 181 402 183 398 182 397 c 0
 172 389 162 381 153 373 c 0
 145 366 138 362 138 348 c 2
 138 341 l 1
 138 116 l 1
 138 105 l 2
 138 89 152 87 161 82 c 0
 162 81 216 53 230 47 c 0
 233 45 236 43 240 43 c 0
 246 43 247 49 247 54 c 0
 247 64 247 70 238 75 c 1
 247 94 l 1
 247 335 l 1
 245 357 l 1
 225 373 204 387 184 402 c 0
444 39 m 1
 451 46 l 1
 452 95 452.25 145 452.25 195.375 c 0
 452.25 245.75 452 296.5 452 347 c 1
 452 347 451 368 451 368 c 1
 432 380 413 391 390 399 c 1
 372 387 357 373 344 357 c 1
 344 126 l 1
 346 107 l 1
 376 81 412 62 444 39 c 1
EndSplineSet
Validated: 1
EndChar

StartChar: NameMe.208
Encoding: 1114117 -1 179
Width: 338
Flags: W
HStem: -153 22<106 154.166> 475 20G<86.5 127.037 273 304.5> 507 22G<109.028 119 296.897 307>
VStem: 63.7861 84.2139<95.125 358.587 369 398> 103 67<598.769 652> 252 84<76 379.125>
LayerCount: 2
Fore
SplineSet
103 652 m 1xec
 170 652 l 1
 153 610 135 568 119 525 c 1
 110 508 l 1
 103 652 l 1xec
290 652 m 1
 357 652 l 1
 299 507 l 1
 298 507 l 1
 290 652 l 1
110 495 m 1
 156 441 l 1
 148 441 l 1
 148 369 l 1
 199 411 247 455 299 495 c 1
 310 480 353 431 371 409 c 0
 373 406 377 403 377 399 c 0
 377 394 370 390 367 387 c 2
 346 369 l 2
 338 363 336 361 336 348 c 2
 336 331 l 1
 336 76 l 1
 336 76 336 65 337 65 c 0
 340 54 348 45 358 39 c 1
 353 32 346 26 340 20 c 0
 285 -40 226 -133 138 -150 c 0
 127 -152 117 -153 106 -153 c 1
 106 -131 l 1
 183 -131 223 -65 240 -6 c 0
 251 29 252 66 252 103 c 2
 252 157 l 1
 252 398 l 1
 269 398 l 1
 249 424 l 1
 216 395 180 370 149 339 c 1
 147.934846923 308.820662814 147.626061231 277.884958242 147.626061231 246.640467979 c 0
 147.626061231 203.529448506 148.213938769 159.830551494 148.213938769 116.719532021 c 0
 148.213938769 103.075041758 148.155051026 89.4894392378 148 76 c 1
 130 76 l 1
 154 47 l 2
 157 44 163 39 163 34 c 2
 163 33 l 2
 163 27 153 22 149 19 c 2
 102 -21 l 1
 101 -21 l 1
 20 75 l 1
 20 76 l 1
 35 89 50 101 63 115 c 1
 64.0651530772 147.309643341 64.3739387691 180.501715297 64.3739387691 214.083876008 c 0
 64.3739387691 260.420403572 63.7860612309 307.499596428 63.7860612309 354.028123992 c 0xf4
 63.7860612309 368.754243882 63.8449489743 383.425203582 64 398 c 1
 82 398 l 1
 58 427 l 2
 55 430 49 435 49 440 c 2
 49 441 l 2
 49 447 59 452 63 455 c 2
 110 495 l 1
EndSplineSet
Validated: 1
EndChar

StartChar: NameMe.209
Encoding: 1114118 -1 180
Width: 573
Flags: W
HStem: -195 14<175.505 209.714 369.148 408.675> 475 20G<76.2264 110 229.246 264 422.31 457>
VStem: 54 84<-125.777 -1 137 378.979> 247 84<-125.738 -1 137 357> 415 11<-173.167 -163.015> 440 84.2139<94 372.469>
LayerCount: 2
Fore
SplineSet
100 495 m 1
 120 473 140 450 159 426 c 1
 166 420 l 1
 176 424 182 432 189 438 c 2
 251 495 l 1
 252 495 l 1
 264 480 l 1
 260 471 252 467 246 461 c 1
 246 460 l 1
 329 403 l 1
 338 399 l 1
 349 406 358 415 367 424 c 2
 444 495 l 1
 445 495 l 1
 457 480 l 1
 453 471 445 467 439 461 c 1
 439 460 l 1
 535 395 l 1
 524 373 l 1
 524.155051026 358.735305634 524.213938769 344.350407164 524.213938769 329.890035239 c 0
 524.213938769 284.201162762 523.626061231 237.758837238 523.626061231 191.973964761 c 0
 523.626061231 158.791613246 523.934846923 125.954592315 525 94 c 1
 535 74 l 1
 385 -13 l 1
 370 -20 l 1
 357 -14 344 -7 331 -1 c 1
 331 -75 l 2
 331 -99 331 -125 344 -147 c 0
 351 -161 369 -181 392 -181 c 0
 406 -181 412 -173 415 -160 c 1
 419 -163 426 -167 426 -175 c 0
 426 -189 409 -195 394 -195 c 0
 371 -195 352 -181 337 -171 c 0
 314 -157 292 -141 269 -127 c 1
 264 -138 255 -148 248 -158 c 2
 235 -177 l 2
 226 -188 220 -195 202 -195 c 0
 178 -195 160 -182 144 -171 c 0
 121 -157 99 -141 76 -127 c 1
 34 -188 l 1
 14 -178 l 1
 24 -164 34 -151 41 -135 c 0
 53 -107 54 -78 54 -48 c 2
 54 -15 l 1
 54 25 l 1
 54 32 l 2
 54 46 44 47 34 52 c 0
 19 60 4 68 -11 75 c 1
 2 101 16 125 30 149 c 1
 54 137 l 1
 54 398 l 1
 72 398 l 1
 37 442 l 1
 100 495 l 1
184 402 m 0
 181 402 183 398 182 397 c 0
 172 389 162 381 152 372 c 0
 143 365 138 362 138 348 c 2
 138 339 l 1
 138 115 l 2
 138 112 137 107 137 104 c 0
 137 94 141 93 147 89 c 0
 152 87 200 62 219 52 c 0
 226 48 234 43 242 43 c 0
 244 43 245 42 245 44 c 2
 182 75 l 1
 195 101 209 125 223 149 c 1
 247 137 l 1
 247 338 l 1
 245 357 l 1
 225 373 204 387 184 402 c 0
376 402 m 1
 367 391 355 382 345 372 c 0
 336 365 331 361 331 347 c 2
 331 337 l 1
 331 116 l 2
 331 113 330 108 330 104 c 0
 330 89 342 88 352 83 c 0
 376 69 402 58 426 45 c 0
 426 43 433 43 435 43 c 0
 440 44 441 50 441 56 c 0
 441 60 440 64 440 67 c 2
 440 338 l 1
 440 346 l 2
 440 362 429 365 419 372 c 2
 376 402 l 1
207 -178 m 1
 218 -163 229 -149 236 -131 c 0
 246 -103 247 -74 247 -44 c 2
 247 19 l 1
 224 6 202 -8 177 -20 c 1
 164 -14 151 -7 138 -1 c 1
 138 -75 l 2
 138 -99 138 -124 150 -146 c 0
 159 -164 178 -181 198 -181 c 0
 202 -181 206 -180 210 -179 c 2
 207 -178 l 1
EndSplineSet
Validated: 1
EndChar

StartChar: NameMe.210
Encoding: 1114119 -1 181
Width: 422
Flags: W
HStem: 347 67<142 226> 539 21G<191.25 226.29> 639 15<393.198 449>
VStem: 58 84.2139<76.282 347 414.002 553.25> 251.602 83.3977<95.375 601>
LayerCount: 2
Fore
SplineSet
194 664 m 1
 216 648 236 630 257 613 c 1
 251 601 l 1
 262 601 l 2
 279 601 283 608 294 614 c 0
 342 638 388 654 449 654 c 1
 449 639 l 1
 411 639 358 630 340 591 c 0
 336 580 335 568 335 556 c 2
 335 536 l 1
 335 76 l 1
 318 76 l 1
 353 32 l 1
 332 14 310 -4 288 -21 c 1
 275 -4 261 12 247 28 c 0
 244 32 238 43 231 43 c 0
 228 43 225 41 222 39 c 2
 206 30 l 1
 206 30 122 -19 119 -19 c 0
 114 -19 112 -15 109 -12 c 2
 98 2 l 1
 43 67 l 2
 42 68 38 72 38 76 c 0
 38 82 46 89 50 93 c 0
 57 101 58 107 58 117 c 2
 58 347 l 1
 36 347 l 1
 41 361 56 406 57 414 c 0
 58 420 59 426 59 432 c 0
 59 440 58 448 58 456 c 2
 58 514 l 2
 58 518 57 524 57 529 c 0
 57 545 66 545 75 551 c 0
 113 575 143 599 172 634 c 0
 180 644 188 653 194 664 c 1
142 414 m 1
 226 414 l 1
 226 347 l 1
 142 347 l 1
 142.155051026 333.355509736 142.213938769 319.59081537 142.213938769 305.750647547 c 0
 142.213938769 262.021366864 141.626061231 217.538633136 141.626061231 173.713352453 c 0
 141.626061231 141.95120504 141.934846923 110.534388212 143 80 c 1
 153 65 164 52 175 38 c 1
 218 62 l 1
 210 76 l 1
 222 90 237 101 250 114 c 1
 251.219223594 162.159331947 251.602287466 211.247730251 251.602287466 260.783780572 c 0
 251.602287466 344.542973236 250.507087534 429.582026764 250.507087534 513.573641303 c 0
 250.507087534 542.876189588 250.640388203 572.051250358 251 601 c 1
 250 601 l 1
 215 539 l 1
 158 587 l 1
 157 587 l 1
 143 570 l 1
 141.934846923 552.247448714 141.626061231 533.990652504 141.626061231 515.498160387 c 0
 141.626061231 489.982295637 142.213938769 464.017704363 142.213938769 438.309839613 c 0
 142.213938769 430.173388316 142.155051026 422.062653338 142 414 c 1
EndSplineSet
Validated: 5
EndChar

StartChar: NameMe.211
Encoding: 1114120 -1 182
Width: 578
Flags: W
HStem: -153 22<96 144.995> 469 20G<393 422.5> 655 13<175.859 213.774>
VStem: 54.4444 83.5556<94.9587 357.993 390 547.976> 221 11<636.413 642.859> 246 97<91.4794 357.859> 451 83.75<74.419 380.408>
LayerCount: 2
Fore
SplineSet
-2 636 m 1
 2 640 8 649 14 649 c 0
 19 649 24 643 28 640 c 0
 39 632 49 623 60 615 c 0
 64 611 71 603 77 603 c 0
 81 603 137 641 144 645 c 0
 160 656 176 668 201 668 c 0
 213 668 232 662 232 649 c 0
 232 642 225 636 221 633 c 1
 220 636 220 640 218 643 c 0
 214 651 206 655 198 655 c 0
 170 655 151 627 144 606 c 0
 139 590 138 574 138 557 c 2
 138 524 l 1
 138 390 l 1
 168 416 194 446 226 471 c 1
 267 452 301 426 337 403 c 0
 338 403 359 425 361 428 c 0
 376 446 389 467 397 489 c 1
 448 467 496 441 546 417 c 1
 536 396 l 1
 535 347 534.75 297 534.75 246.625 c 0
 534.75 196.25 535 145.5 535 95 c 0
 538 88 542 83 543 74 c 1
 497 41 443 16 394 -14 c 1
 382 -19 l 1
 364 -10 348 2 332 13 c 1
 331 13 l 1
 318 -6 300 -23 284 -40 c 0
 247 -82 204 -126 149 -144 c 0
 132 -150 114 -152 96 -153 c 1
 96 -131 l 1
 113 -130 129 -127 145 -121 c 0
 207 -94 238 -24 245 40 c 0
 245 46 246 54 246 61 c 0
 246 70 240 71 239 78 c 0
 240 85 245 90 246 97 c 2
 246 111 l 1
 246 140 l 1
 246 348 l 1
 246 353 l 2
 246 364 238 368 230 371 c 2
 199 391 l 2
 195 394 188 399 183 399 c 0
 178 398 155 375 150 370 c 0
 146 367 141 363 139 358 c 0
 138 358 137.75 348.5 137.75 338.375 c 0
 137.75 328.25 138 317.5 138 315 c 2
 138 76 l 1
 120 76 l 1
 145 47 l 2
 147 44 153 39 153 34 c 2
 153 33 l 2
 153 27 143 22 139 18 c 2
 92 -21 l 1
 91 -21 l 1
 18 66 l 2
 16 68 13 72 13 75 c 2
 13 76 l 2
 13 80 20 84 23 87 c 0
 30 93 38 99 45 106 c 0
 54 113 54 117 54 132 c 2
 54 159 l 2
 54 217.666666667 54.4444444444 371 54.4444444444 466.703703704 c 0
 54.4444444444 514.555555556 54.3333333333 548 54 548 c 0
 49 589 27 616 -2 636 c 1
343 118 m 2
 343 101 356 98 367 90 c 2
 422 53 l 2
 427 50 436 42 443 42 c 0
 449 42 452 48 452 55 c 0
 452 59 451 63 451 66 c 2
 451 348 l 2
 451 351 452 355 452 358 c 0
 452 375 434 377 424 383 c 2
 401 394 l 2
 397 396 393 399 389 399 c 0
 386 399 348 368 344 358 c 0
 343 355 343 352 343 348 c 2
 343 339 l 1
 343 126 l 1
 343 118 l 2
EndSplineSet
Validated: 1
EndChar

StartChar: NameMe.212
Encoding: 1114121 -1 183
Width: 606
Flags: W
HStem: 208 21<381.375 471> 610 20G<36.4483 70 231.5 263 447 476.5>
VStem: -1 55<507.5 587.654> 54 84<115.047 379.172 390 441.506> 246 121<76 76.7209 77.2351 203.531> 246 84<220 237 249.45 372.266> 471.16 84.2679<114.817 208 230 415.694>
LayerCount: 2
Fore
SplineSet
53 630 m 1xe2
 70 614 l 1
 61 605 54 592 54 575 c 0xe2
 54 531 89 510 109 482 c 0
 128 454 138 431 138 390 c 1
 176 425 212 461 251 495 c 1
 263 479 l 1
 258 472 252 465 246 459 c 1
 274 442 300 423 327 404 c 1
 335 400 l 1
 381 430 424 463 470 493 c 1
 483 491 491 484 501 478 c 0
 530 462 559 446 587 428 c 1
 577 419 566 411 557 401 c 1
 554.869693846 364.784795376 554.252122462 326.804733521 554.252122462 288.089252327 c 0
 554.252122462 234.669790222 555.427877538 179.850209778 555.427877538 126.334747673 c 0
 555.427877538 109.39728689 555.310102051 92.5904597522 555 76 c 1
 537 76 l 1
 561 47 l 2
 564 44 570 39 570 34 c 2
 570 33 l 2
 570 27 560 22 556 19 c 0
 540 6 524 -7 509 -21 c 1
 508 -21 l 1
 449 49 l 1
 442 55 l 1
 430 51 420 43 410 37 c 2
 321 -21 l 1
 320 -21 l 1
 304 -3 289 16 274 35 c 1
 188 -15 l 1
 177 -19 l 1
 159 -13 145 -3 130 6 c 2
 10 76 l 1
 19 93 30 110 39 127 c 0
 43 134 47 144 54 148 c 1
 54 404 l 1xd6
 49 433 20 449 8 474 c 0
 1 487 -1 501 -1 514 c 0
 -1 545 12 576 29 601 c 2
 53 630 l 1xe2
471 230 m 1
 471 386 l 1
 471 392 l 2
 471 404 460 409 453 413 c 0
 446 418 437 427 425 427 c 0
 406 427 359 389 343 375 c 0
 337 370 330 366 330 356 c 2
 330 350 l 1
 330 287 l 1
 330 278 l 2xc6
 330 265 336 261 344 255 c 0
 366 237 393 229 430 229 c 0
 444 229 458 230 471 230 c 1
330 220 m 1
 348 225 l 1
 330 237 l 1
 330 220 l 1
427 77 m 1
 441 89 456 100 469 114 c 1
 470.8 131.4 471.16 150.24 471.16 169.44 c 0
 471.16 182.24 471 195.2 471 208 c 1
 418 208 l 1
 409 208 l 2
 376 208 367 182 367 156 c 2
 367 76 l 1xca
 349 76 l 1
 376 42 l 1
 428 74 l 1
 427 77 l 1
239 77 m 1
 245 82 246 88 246 95 c 2
 246 104 l 1xca
 246 335 l 1
 246 345 l 2
 246 359 241 362 232 367 c 0
 221 375 189 398 184 399 c 0
 179 399 174 393 171 390 c 2
 149 369 l 2
 145 366 140 362 138 356 c 2
 138 294 l 1
 138 117 l 1
 138 110 l 2
 138 106 138 101 140 99 c 0
 145 93 156 89 163 85 c 2
 163 85 225 48 231 45 c 0
 233 44 236 42 239 42 c 0
 244 43 246 48 246 52 c 2
 246 59 l 2xd6
 246 68 242 71 239 77 c 1
EndSplineSet
Validated: 1
EndChar

StartChar: NameMe.213
Encoding: 1114122 -1 184
Width: 577
Flags: W
HStem: 347 67<108 224 308 392> 539 21G<357.25 392.29> 639 15<559.198 615>
VStem: 24 84<76.282 347 414.002 553.25> 224 84<73.6505 347 414 501.249> 417 84<95.375 601>
LayerCount: 2
Fore
SplineSet
160 664 m 5
 182 647 204 630 223 610 c 5
 224 588 224 564 224 541 c 5
 277 573 327 612 360 664 c 5
 382 648 402 630 423 613 c 5
 417 601 l 5
 428 601 l 6
 445 601 449 608 460 614 c 4
 508 638 554 654 615 654 c 5
 615 639 l 5
 577 639 524 630 506 591 c 4
 502 580 501 568 501 556 c 6
 501 536 l 5
 501 76 l 5
 484 76 l 5
 519 32 l 5
 498 14 476 -4 454 -21 c 5
 442 -4 428 11 414 27 c 4
 410 32 404 42 398 43 c 4
 389 43 313 -5 292 -16 c 4
 292 -18 285 -19 285 -19 c 5
 277 -18 272 -8 268 -3 c 4
 257 10 246 24 234 37 c 4
 230 42 224 54 216 54 c 4
 214 54 114 -3 93 -16 c 4
 91 -17 88 -19 85 -19 c 4
 80 -19 77 -14 75 -12 c 6
 64 2 l 5
 9 67 l 6
 8 68 4 72 4 76 c 4
 4 82 12 89 16 93 c 4
 23 101 24 107 24 117 c 6
 24 347 l 5
 2 347 l 5
 7 361 22 406 23 414 c 4
 24 420 25 426 25 432 c 4
 25 440 24 448 24 456 c 6
 24 514 l 6
 24 518 23 524 23 529 c 4
 23 545 32 545 41 551 c 4
 79 575 109 599 138 634 c 4
 146 644 154 653 160 664 c 5
108 414 m 5
 224 414 l 5
 224 426 224 438 224 450 c 4
 224 468 224 486 222 502 c 5
 192 533 156 558 124 587 c 5
 123 587 l 5
 109 570 l 5
 108 552 108 534 108 515 c 4
 108 490 108 464 108 438 c 4
 108 430 108 422 108 414 c 5
308 414 m 5
 392 414 l 5
 392 347 l 5
 308 347 l 5
 308 333 308 320 308 306 c 4
 308 262 308 218 308 174 c 4
 308 142 308 111 309 80 c 5
 319 65 330 52 341 38 c 5
 384 62 l 5
 376 76 l 5
 388 90 403 101 416 114 c 5
 417 162 418 211 418 261 c 4
 418 345 417 430 417 514 c 4
 417 543 417 572 417 601 c 5
 416 601 l 5
 381 539 l 5
 324 587 l 5
 323 587 l 5
 309 570 l 5
 308 552 308 534 308 515 c 4
 308 490 308 464 308 438 c 4
 308 430 308 422 308 414 c 5
203 73 m 5
 204 87 222 93 224 107 c 6
 224 187 l 5
 224 347 l 5
 108 347 l 5
 108 333 108 320 108 306 c 4
 108 262 108 218 108 174 c 4
 108 142 108 111 109 80 c 5
 119 65 130 52 141 38 c 5
 161 50 182 62 203 73 c 5
EndSplineSet
Validated: 5
EndChar

StartChar: NameMe.214
Encoding: 1114123 -1 185
Width: 377
Flags: W
HStem: -141 21G<53 63> 398 64<301 385> 540 21G<199.5 220.765> 567 20G<291 307.5>
VStem: 53 83.418<-42.2169 347 347.679 553.25> 217 84<101.188 398>
LayerCount: 2
Fore
SplineSet
189 664 m 1
 196 660 201 655 207 650 c 2
 235 627 l 2
 239 623 249 618 249 611 c 0
 249 604 242 596 239 591 c 2
 209 540 l 1
 190 555 171 571 153 587 c 1
 152 587 l 1
 138 571 l 1
 136.81748766 527.956550827 136.418043163 483.73849989 136.418043163 438.861754447 c 0
 136.418043163 345.406707037 138.150327824 249.095076554 138.150327824 154.586111394 c 0
 138.150327824 102.586327717 137.62591136 51.1322669214 136 1 c 1
 116 -44 92 -85 71 -128 c 1
 63 -139 l 1
 53 -141 l 1
 53 347 l 1
 31 347 l 1
 36 361 51 406 52 414 c 0
 53 420 54 426 54 432 c 0
 54 440 53 448 53 456 c 2
 53 514 l 2
 53 518 52 524 52 529 c 0
 52 545 61 545 70 551 c 0
 108 575 138 599 167 634 c 0
 175 644 183 653 189 664 c 1
175 398 m 1
 208 454 l 1
 281 573 l 1
 291 586 l 1
 311 587 l 1
 304 549 302 506 301 462 c 1
 385 462 l 1
 385 398 l 1
 301 398 l 1
 301 95 l 1
 302 79 l 1
 313 67 320 50 335 41 c 1
 365 53 389 71 417 85 c 1
 427 66 l 1
 391 44 354 24 318 3 c 2
 290 -13 l 2
 286 -15 281 -19 277 -19 c 0
 272 -19 259 -2 257 1 c 2
 213 53 l 2
 210 58 197 72 197 75 c 1
 196.509803922 75 196.288735102 75.2499038831 196.288735102 75.700710888 c 0
 196.288735102 79.8481353326 215 101 215 101 c 2
 217 105 218 110 218 115 c 0
 218 120 217 124 217 129 c 2
 217 398 l 1
 175 398 l 1
EndSplineSet
Validated: 1
EndChar

StartChar: NameMe.215
Encoding: 1114124 -1 186
Width: 377
Flags: W
HStem: 637 18<148.708 194.982 337.837 375>
VStem: 30 84<95.3594 601.84> 218 84<95.375 601.117> 218 21<601 631.3>
LayerCount: 2
Fore
SplineSet
51 602 m 1xe0
 63 610 73 619 85 627 c 0
 114 644 148 655 182 655 c 0
 215 655 239 636 239 601 c 1xd0
 274 633 320 655 375 655 c 1
 375 640 l 1
 337 637 307 613 303 579 c 0
 302 574 302 569 302 563 c 2
 302 547 l 1
 302 76 l 1
 284 76 l 1
 319 32 l 1
 256 -21 l 1
 255 -21 l 1
 203 41 l 1
 174 77 l 1
 203 101 l 2
 209 106 218 111 218 122 c 2
 218 128 l 1
 218 574 l 1
 218 599 l 2
 218 620 212 634 195 638 c 0
 195 642 170 637 168 637 c 0
 144 630 123 612 116 588 c 0
 114 580 113 571 113 562 c 0
 113 551 114 539 114 529 c 2
 114 76 l 1
 96 76 l 1
 131 32 l 1
 68 -21 l 1
 67 -21 l 1
 15 41 l 1
 -14 77 l 1
 16 102 l 2
 22 107 30 112 30 122 c 2
 30 129 l 1
 30 513 l 1
 30 528 l 2
 30 569 26 596 10 622 c 0
 8 625 1 630 1 636 c 0
 1 643 10 648 15 651 c 1
 51 602 l 1xe0
EndSplineSet
Validated: 1
EndChar

StartChar: NameMe.216
Encoding: 1114125 -1 187
Width: 562
Flags: W
HStem: -197 20<157.644 189.705 350.644 382.705> 468 20G<153 170.5 353 384.5>
VStem: 26 84<116 368.096> 144 11<-172.724 -163.201> 219 84<-125.639 5 91.6718 379.54> 337 11<-172.724 -163.201> 412 84<-125.371 19 42.0044 381.777>
LayerCount: 2
Fore
SplineSet
164 488 m 1
 177 485 190 478 202 472 c 2
 274 440 l 2
 283 435 308 424 312 424 c 0
 319 424 324 434 328 439 c 0
 340 454 349 471 357 488 c 1
 412 465 464 440 518 417 c 1
 514 408 498 382 497 377 c 0
 496 374 496 372 496 369 c 2
 496 360 l 1
 496 -11 l 1
 496 -45 l 2
 496 -88 499 -133 534 -162 c 1
 534 -163 l 1
 530 -167 524 -175 518 -175 c 0
 513 -175 508 -167 505 -163 c 0
 494 -151 483 -140 474 -127 c 1
 473 -127 l 1
 461 -143 445 -157 429 -170 c 0
 413 -183 395 -197 368 -197 c 0
 354 -197 337 -188 337 -175 c 0
 337 -168 344 -163 348 -160 c 1
 351 -169 353 -177 363 -177 c 0
 367 -177 372 -175 376 -172 c 0
 403 -156 412 -122 412 -83 c 2
 412 -70 l 1
 412 19 l 1
 396 9 379 0 363 -9 c 0
 357 -13 350 -19 343 -19 c 2
 342 -19 l 2
 337 -19 333 -15 329 -12 c 2
 303 5 l 1
 303 -39 l 2
 303 -83 304 -131 341 -162 c 1
 341 -163 l 1
 337 -167 331 -175 325 -175 c 0
 320 -175 315 -167 312 -163 c 0
 301 -151 290 -140 281 -127 c 1
 280 -127 l 1
 268 -143 252 -157 236 -170 c 0
 220 -183 202 -197 175 -197 c 0
 161 -197 144 -188 144 -175 c 0
 144 -168 151 -163 155 -160 c 1
 158 -169 160 -177 170 -177 c 0
 174 -177 179 -175 183 -172 c 0
 210 -156 219 -122 219 -83 c 2
 219 -70 l 1
 219 19 l 1
 196 6 174 -8 150 -19 c 1
 112 0 82 26 47 47 c 2
 5 75 l 1
 9 90 23 101 26 116 c 2
 26 121 l 1
 26 133 l 1
 26 347 l 1
 26 352 l 2
 26 362 37 364 44 367 c 0
 97 390 142 437 164 488 c 1
198 75 m 1
 202 89 215 100 218 115 c 0
 219 120 219 124 219 129 c 2
 219 143 l 1
 219 346 l 2
 219 350 220 355 220 360 c 0
 220 371 217 374 210 376 c 0
 196 383 161 399 157 399 c 0
 150 399 128 376 123 371 c 0
 114 365 110 360 110 346 c 2
 110 331 l 1
 110 116 l 1
 110 116 110 108 111 108 c 0
 116 101 129 94 136 89 c 2
 183 58 l 2
 186 56 202 41 211 41 c 0
 216 41 219 47 219 53 c 0
 219 66 206 70 198 75 c 1
303 118 m 2
 303 101 317 96 328 90 c 2
 383 53 l 2
 388 50 397 42 404 42 c 0
 410 42 412 48 412 55 c 2
 412 66 l 1
 412 352 l 1
 412 362 l 2
 412 372 408 373 402 377 c 0
 394 380 354 399 350 399 c 0
 343 399 320 375 315 370 c 0
 307 364 303 360 303 348 c 2
 303 339 l 1
 303 126 l 1
 303 118 l 2
EndSplineSet
Validated: 1
EndChar

StartChar: NameMe.217
Encoding: 1114126 -1 188
Width: 438
Flags: W
HStem: 540 21G<370.5 391.765>
VStem: 24 83.3469<80 347 347.679 553.25> 224 83.3469<80 347 348.308 501.593>
LayerCount: 2
Fore
SplineSet
160 664 m 1
 182 647 204 630 223 610 c 1
 224 588 224 564 224 541 c 1
 277 573 327 612 360 664 c 1
 367 660 372 655 378 650 c 2
 406 627 l 2
 410 623 420 618 420 611 c 0
 420 604 413 596 410 591 c 2
 380 540 l 1
 361 555 342 571 324 587 c 1
 323 587 l 1
 309 571 l 1
 307.714285714 505 307.346938776 437.163265306 307.346938776 368.591836735 c 0
 307.346938776 277.163265306 308 184.428571429 308 93 c 1
 308 93 309 80 309 80 c 1
 319 65 330 52 341 38 c 1
 415 81 l 2
 417 82 419 83 421 83 c 0
 429 83 433 71 435 66 c 1
 428 62 304 -9 295 -15 c 0
 292 -16 288 -19 284 -19 c 0
 278 -19 271 -7 268 -3 c 0
 257 10 246 24 234 37 c 0
 230 42 224 53 217 54 c 0
 213 54 210 52 207 50 c 2
 188 39 l 2
 157 21 126 2 94 -15 c 0
 91 -17 88 -19 84 -19 c 0
 79 -19 68 -2 65 1 c 2
 21 53 l 1
 21 53 4 69 4 76 c 0
 4 82 12 89 16 93 c 0
 23 101 24 107 24 117 c 2
 24 347 l 1
 2 347 l 1
 7 361 22 406 23 414 c 0
 24 420 25 426 25 432 c 0
 25 440 24 448 24 456 c 2
 24 514 l 2
 24 518 23 524 23 529 c 0
 23 545 32 545 41 551 c 0
 79 575 109 599 138 634 c 0
 146 644 154 653 160 664 c 1
202 347 m 1
 210 375 223 397 224 432 c 0
 223.839642543 435.688221502 223.782143142 439.479301059 223.782143142 443.327880017 c 0
 223.782143142 453.085267555 224.151741155 463.212253106 224.151741155 472.969640644 c 0
 224.151741155 483.363674148 223.732338917 493.338305414 222 502 c 1
 191 532 156 558 123 587 c 1
 109 571 l 1
 107.714285714 505 107.346938776 437.163265306 107.346938776 368.591836735 c 0
 107.346938776 277.163265306 108 184.428571429 108 93 c 1
 108 93 109 80 109 80 c 1
 119 65 130 52 141 38 c 1
 161 50 182 62 203 73 c 1
 204 87 222 93 224 107 c 2
 224 187 l 1
 224 347 l 1
 202 347 l 1
EndSplineSet
Validated: 1
EndChar

StartChar: NameMe.218
Encoding: 1114127 -1 189
Width: 519
Flags: W
HStem: -141 21G<32 42 232 242> 475 20G<453.897 483.5> 506 56G<377.5 386.5 477.041 487.082>
VStem: 32 83.418<-42.2169 347 347.679 553.25> 232 83.418<-42.2169 347 348.308 502.573> 432.374 83.6261<95.8367 379.125>
LayerCount: 2
Fore
SplineSet
168 664 m 1
 190 647 212 630 231 610 c 1
 232 588 232 564 232 541 c 1
 285 573 335 612 368 664 c 1
 373 661 383 657 383 648 c 0
 383 646 383 643 382 641 c 2
 382 625 l 2
 385 597 386 569 387 541 c 1
 368 556 350 571 332 587 c 1
 331 587 l 1
 317 571 l 1
 315.81748766 527.956550827 315.418043163 483.73849989 315.418043163 438.861754447 c 0
 315.418043163 345.406707037 317.150327824 249.095076554 317.150327824 154.586111394 c 0
 317.150327824 102.586327717 316.62591136 51.1322669214 315 1 c 1
 295 -44 271 -85 250 -128 c 1
 242 -139 l 1
 232 -141 l 1
 232 347 l 1
 210 347 l 1
 218 375 231 397 232 432 c 0
 231.839642543 435.848578958 231.782143142 439.748586944 231.782143142 443.67115936 c 0
 231.782143142 453.61614415 232.151741155 463.7061699 232.151741155 473.470839138 c 0
 232.151741155 483.872629455 231.732338917 493.905220684 230 503 c 1
 198 532 164 559 132 587 c 1
 131 587 l 1
 117 571 l 1
 115.81748766 527.956550827 115.418043163 483.73849989 115.418043163 438.861754447 c 0
 115.418043163 345.406707037 117.150327824 249.095076554 117.150327824 154.586111394 c 0
 117.150327824 102.586327717 116.62591136 51.1322669214 115 1 c 1
 95 -44 71 -85 50 -128 c 1
 42 -139 l 1
 32 -141 l 1
 32 347 l 1
 10 347 l 1
 15 361 30 406 31 414 c 0
 32 420 33 426 33 432 c 0
 33 440 32 448 32 456 c 2
 32 514 l 2
 32 518 31 524 31 529 c 0
 31 545 40 545 49 551 c 0
 87 575 117 599 146 634 c 0
 154 644 162 653 168 664 c 1
471 652 m 1
 538 652 l 1
 479 506 l 1
 478 506 l 1
 471 652 l 1
478 495 m 1
 489 484 534 429 552 408 c 0
 554 406 557 402 557 399 c 2
 557 398 l 2
 557 394 550 390 547 387 c 2
 526 369 l 2
 517 360 516 360 516 345 c 2
 516 324 l 1
 516 76 l 1
 498 76 l 1
 522 47 l 2
 525 44 531 39 531 34 c 2
 531 33 l 2
 531 27 521 22 517 19 c 0
 501 5 485 -7 470 -21 c 1
 469 -21 l 1
 388 77 l 1
 403 89 418 101 431 115 c 1
 432.065153077 147.309643341 432.373938769 180.501715297 432.373938769 214.083876008 c 0
 432.373938769 260.420403572 431.786061231 307.499596428 431.786061231 354.028123992 c 0
 431.786061231 368.754243882 431.844948974 383.425203582 432 398 c 1
 450 398 l 1
 425 427 l 2
 423 430 417 435 417 440 c 2
 417 441 l 2
 417 447 427 452 431 456 c 2
 478 495 l 1
EndSplineSet
Validated: 1
EndChar

StartChar: NameMe.219
Encoding: 1114128 -1 190
Width: 522
Flags: W
HStem: 475 20G<445.897 487.706> 506 56G<369.5 378.5 469.041 479.082>
VStem: 24 83.3469<80 347 347.679 553.25> 224 83.3469<80 347 348.308 501.593> 424.374 83.6261<95.8367 379.25>
LayerCount: 2
Fore
SplineSet
160 664 m 1
 182 647 204 630 223 610 c 1
 224 588 224 564 224 541 c 1
 277 573 327 612 360 664 c 1
 365 661 375 657 375 648 c 0
 375 646 375 643 374 641 c 2
 374 625 l 2
 377 597 378 569 379 541 c 1
 360 556 342 571 324 587 c 1
 323 587 l 1
 309 571 l 1
 307.714285714 505 307.346938776 437.163265306 307.346938776 368.591836735 c 0
 307.346938776 277.163265306 308 184.428571429 308 93 c 1
 308 93 309 80 309 80 c 1
 319 65 330 52 341 38 c 1
 389 65 l 1
 380 77 l 1
 395 89 410 101 423 115 c 1
 424.065153077 147.309643341 424.373938769 180.501715297 424.373938769 214.083876008 c 0
 424.373938769 260.420403572 423.786061231 307.499596428 423.786061231 354.028123992 c 0
 423.786061231 368.754243882 423.844948974 383.425203582 424 398 c 1
 442 398 l 1
 417 427 l 2
 415 430 409 435 409 440 c 2
 409 441 l 2
 409 447 419 452 423 456 c 2
 470 495 l 1
 471 495 l 1
 542 410 l 2
 544 408 549 404 549 399 c 0
 549 393 542 389 538 386 c 2
 519 370 l 2
 514 365 508 362 508 354 c 2
 508 76 l 1
 490 76 l 1
 514 47 l 2
 517 44 523 39 523 34 c 2
 523 33 l 2
 523 27 513 22 509 19 c 0
 493 5 477 -7 462 -21 c 1
 461 -21 l 1
 442 2 422 24 404 48 c 1
 373 33 344 14 314 -4 c 2
 292 -16 l 2
 290 -17 288 -19 285 -19 c 0
 277 -19 271 -7 267 -2 c 2
 235 36 l 1
 235 36 222 54 217 54 c 0
 213 54 210 52 207 50 c 2
 188 39 l 2
 157 21 126 2 94 -15 c 0
 91 -17 88 -19 84 -19 c 0
 79 -19 68 -2 65 1 c 2
 21 53 l 1
 21 53 4 69 4 76 c 0
 4 82 12 89 16 93 c 0
 23 101 24 107 24 117 c 2
 24 347 l 1
 2 347 l 1
 7 361 22 406 23 414 c 0
 24 420 25 426 25 432 c 0
 25 440 24 448 24 456 c 2
 24 514 l 2
 24 518 23 524 23 529 c 0
 23 545 32 545 41 551 c 0
 79 575 109 599 138 634 c 0
 146 644 154 653 160 664 c 1
463 652 m 1
 530 652 l 1
 471 506 l 1
 470 506 l 1
 463 652 l 1
202 347 m 1
 210 375 223 397 224 432 c 0
 223.839642543 435.688221502 223.782143142 439.479301059 223.782143142 443.327880017 c 0
 223.782143142 453.085267555 224.151741155 463.212253106 224.151741155 472.969640644 c 0
 224.151741155 483.363674148 223.732338917 493.338305414 222 502 c 1
 191 532 156 558 123 587 c 1
 109 571 l 1
 107.714285714 505 107.346938776 437.163265306 107.346938776 368.591836735 c 0
 107.346938776 277.163265306 108 184.428571429 108 93 c 1
 108 93 109 80 109 80 c 1
 119 65 130 52 141 38 c 1
 161 50 182 62 203 73 c 1
 204 87 222 93 224 107 c 2
 224 187 l 1
 224 347 l 1
 202 347 l 1
EndSplineSet
Validated: 1
EndChar

StartChar: NameMe.220
Encoding: 1114129 -1 191
Width: 534
Flags: W
HStem: 475 20G<381.5 413> 655 14<174.641 214.274>
VStem: 54 84<115.047 379.172 390 600.539> 221 11<637.201 646.767> 246 84<89.5938 211.159 221 372.266>
LayerCount: 2
Fore
SplineSet
77 601 m 1
 90 613 107 621 121 631 c 0
 140 643 168 669 202 669 c 0
 214 669 232 662 232 649 c 0
 232 642 225 637 221 634 c 1
 218 647 211 655 198 655 c 0
 170 655 151 628 144 606 c 0
 139 590 138 574 138 558 c 2
 138 525 l 1
 138 390 l 1
 163 415 191 439 217 464 c 0
 219 466 222 471 227 471 c 0
 233 471 273 441 279 437 c 0
 281 436 291 427 297 427 c 0
 302 427 318 438 322 440 c 0
 347 456 371 474 392 495 c 1
 393 495 l 1
 492 396 l 2
 494 393 498 390 498 386 c 0
 497 380 490 374 486 370 c 2
 486 370 353 213 344 203 c 0
 337 194 330 190 330 176 c 2
 330 166 l 1
 330 125 l 1
 330 114 l 2
 330 100 340 98 348 92 c 2
 380 70 l 2
 385 66 407 47 420 45 c 2
 423 45 l 2
 443 45 461 60 479 67 c 1
 477 47 l 1
 445 23 406 6 372 -16 c 1
 360 -19 l 1
 332 -1 306 18 279 36 c 1
 243 20 214 -3 178 -19 c 1
 161 -13 147 -3 132 5 c 2
 10 76 l 1
 19 93 30 110 39 127 c 0
 43 134 47 144 54 148 c 1
 54 487 l 1
 54 522 l 2
 54 579 34 614 -2 636 c 1
 2 641 8 649 14 649 c 2
 15 649 l 2
 21 649 27 642 31 638 c 2
 59 616 l 2
 65 611 71 607 76 601 c 1
 77 601 l 1
330 221 m 1
 421 328 l 2
 423 331 427 334 427 338 c 2
 427 339 l 2
 427 343 413 356 410 359 c 2
 358 411 l 2
 353 416 347 424 341 424 c 0
 333 424 330 416 330 410 c 2
 330 406 l 1
 330 221 l 1
246 76 m 1
 246 328 l 2
 246 333 247 338 247 344 c 0
 247 358 241 362 232 367 c 0
 221 375 189 398 184 399 c 0
 179 399 174 393 171 390 c 2
 149 369 l 2
 145 365 139 361 138 355 c 2
 138 293 l 1
 138 119 l 1
 138 109 l 2
 138 102 141 96 147 94 c 2
 162 85 l 1
 231 45 l 2
 233 44 236 42 239 42 c 0
 245 43 246 49 246 53 c 0
 246 64 231 70 225 76 c 1
 246 76 l 1
EndSplineSet
Validated: 1
EndChar

StartChar: NameMe.221
Encoding: 1114130 -1 192
Width: 572
Flags: W
HStem: 475 20G<150 187.088> 655 14<383.274 423.121>
VStem: 35 84.75<112 353.391> 262 84<95.0024 228.797 242 397.332 411 602.537> 429 11<635.814 647.788> 454.394 83.301<112.749 196.408>
LayerCount: 2
Fore
SplineSet
203 640 m 1
 208 643 215 649 221 649 c 2
 222 649 l 2
 227 649 232 644 236 640 c 2
 267 616 l 2
 272 612 279 604 285 603 c 0
 288 603 348 642 355 647 c 0
 369 657 388 669 411 669 c 0
 423 669 440 662 440 648 c 0
 440 641 434 636 429 633 c 1
 429 648 417 655 406 655 c 0
 379 655 361 629 353 609 c 0
 347 592 346 573 346 555 c 2
 346 531 l 1
 346 411 l 1
 455 473 l 1
 538 327 l 1
 459 282 l 1
 459 281 l 1
 500 262 542 243 582 223 c 1
 568 215 553 207 540 197 c 1
 538.197936278 184.385553948 537.694846019 170.212339741 537.694846019 155.416690559 c 0
 537.694846019 136.711566642 538.498925607 117.011616749 538.498925607 98.2087928522 c 0
 538.498925607 90.6181659106 538.367884312 83.1737440881 538 76 c 1
 520 76 l 1
 556 32 l 1
 491 -21 l 1
 417 67 l 1
 413 76 l 1
 424 90 439 100 452 112 c 1
 453.651530772 127.964797459 454.393876913 145.444902635 454.393876913 163.105607622 c 0
 454.393876913 177.525512861 453.898979486 192.065817974 453 206 c 1
 432 218 411 230 385 237 c 1
 371 231 358 224 347 215 c 1
 345.934846923 199.377754868 345.626061231 183.125203582 345.626061231 166.600411496 c 0
 345.626061231 143.799571176 346.213938769 120.480428824 346.213938769 97.5835885037 c 0
 346.213938769 90.3368168281 346.155051026 83.1323471832 346 76 c 1
 328 76 l 1
 364 34 l 1
 364 33 l 1
 299 -21 l 1
 272 11 l 2
 269 15 265 21 260 22 c 0
 254 22 247 16 242 13 c 0
 228 5 189 -19 183 -19 c 0
 175 -19 133 7 126 11 c 0
 89 33 50 53 14 76 c 1
 21 89 29 101 35 115 c 1
 35.6076252185 153.888013985 36.5844588432 195.729695219 36.5844588432 236.935598287 c 0
 36.5844588432 263.544364216 36.1771243445 289.888013985 35 315 c 1
 29 329 21 341 14 354 c 1
 50 371 87 391 114 421 c 0
 126 435 148 470 152 495 c 1
 252 438 l 1
 239 413 225 389 211 365 c 1
 184 379 157 395 131 410 c 1
 121 394 l 1
 120 352 119.75 308.75 119.75 265 c 0
 119.75 221.25 120 177 120 133 c 1
 122 112 l 1
 161 86 205 65 245 40 c 1
 248 43 230 61 227 65 c 0
 225 68 221 71 221 75 c 2
 221 76 l 2
 221 80 237 93 240 95 c 0
 250 103 262 106 262 124 c 2
 262 133 l 1
 262 521 l 2
 262 566 255 589 232 615 c 0
 224 625 214 633 203 640 c 1
346 242 m 1
 447 300 l 1
 390 399 l 1
 384 405 l 1
 370 399 355 392 346 381 c 1
 346 242 l 1
EndSplineSet
Validated: 1
EndChar

StartChar: NameMe.222
Encoding: 1114131 -1 193
Width: 612
Flags: W
HStem: -195 14<176.148 215.675> 208 21<383.856 475> 475 20G<76.2264 110 229.246 264 464 496.5>
VStem: 54 84<-125.777 -1 137 379> 222 11<-173.167 -163.015> 247 123<76 76.6257 77.2344 203.688> 247 84<220 239 250.944 370.729> 475.16 84.0539<114.817 208 230 414.804>
LayerCount: 2
Fore
SplineSet
100 495 m 1xf9
 120 473 140 450 159 426 c 1
 166 420 l 1
 176 424 182 432 189 438 c 2
 251 495 l 1
 252 495 l 1
 264 480 l 1
 260 471 252 467 246 461 c 1
 246 460 l 1
 337 397 l 1
 338 397 l 1
 379 428 421 458 464 487 c 1
 476 493 l 1
 517 475 551 450 590 429 c 1
 580 420 569 411 560 400 c 1
 558.934846923 363.784795376 558.626061231 326.056855982 558.626061231 287.621828866 c 0
 558.626061231 234.589336145 559.213938769 180.210663855 559.213938769 126.602171134 c 0
 559.213938769 109.635266479 559.155051026 92.7455107779 559 76 c 1
 541 76 l 1
 576 32 l 1
 513 -21 l 1
 512 -21 l 1
 452 50 l 1
 445 55 l 1
 405 34 370 8 333 -15 c 1
 323 -19 l 1
 306 -2 291 17 276 36 c 1
 275 36 l 1
 246 18 216 2 187 -16 c 1
 177 -20 l 1
 164 -14 151 -7 138 -1 c 1
 138 -75 l 2
 138 -99 138 -125 151 -147 c 0
 158 -161 176 -181 199 -181 c 0
 213 -181 219 -173 222 -160 c 1
 226 -163 233 -167 233 -175 c 0
 233 -189 216 -195 201 -195 c 0
 178 -195 159 -181 144 -171 c 0
 121 -157 99 -141 76 -127 c 1
 34 -188 l 1
 14 -178 l 1
 24 -164 34 -151 41 -135 c 0
 53 -107 54 -78 54 -48 c 2
 54 -15 l 1
 54 25 l 1
 54 32 l 2
 54 46 44 47 34 52 c 0
 19 60 4 68 -11 75 c 1
 2 101 16 125 30 149 c 1
 54 137 l 1
 54 398 l 1
 72 398 l 1
 37 442 l 1
 100 495 l 1xf9
183 402 m 1
 182 397 l 1
 172 389 162 381 153 373 c 0
 145 366 138 362 138 348 c 2
 138 341 l 1
 138 116 l 1
 138 105 l 2
 138 88 153 87 162 81 c 2
 217 53 l 2
 222 51 237 43 240 43 c 0
 246 43 247 48 247 53 c 0xfb
 247 62 246 69 242 77 c 1
 246 82 247 87 247 92 c 2
 247 98 l 1xfd
 247 336 l 1
 247 346 l 2xfb
 247 363 237 364 227 371 c 0
 213 381 196 390 184 402 c 1
 183 402 l 1
475 230 m 1
 475 384 l 1
 475 390 l 2
 475 404 465 408 456 413 c 0
 449 418 440 427 428 427 c 0
 411 427 361 388 346 375 c 0
 340 370 331 364 331 353 c 2
 331 347 l 1
 331 288 l 1
 331 280 l 2
 331 267 339 261 346 256 c 0
 370 237 396 229 434 229 c 0
 448 229 462 230 475 230 c 1
331 220 m 1
 351 225 l 1
 331 239 l 1
 331 220 l 1
431 77 m 1
 445 89 460 100 473 114 c 1
 474.8 131.4 475.16 150.24 475.16 169.44 c 0
 475.16 182.24 475 195.2 475 208 c 1
 421 208 l 1
 412 208 l 2
 380 208 370 183 370 157 c 2
 370 76 l 1xfd
 352 76 l 1
 361 65 369 53 381 45 c 1
 400 53 415 64 432 74 c 1
 431 77 l 1
EndSplineSet
Validated: 1
EndChar

StartChar: NameMe.223
Encoding: 1114132 -1 194
Width: 397
Flags: W
HStem: -184 22<179 223.199> 398 64<150 234> 495 72G<140 158 328.5 349>
VStem: 46 104<53.2408 100.804> 66 84<101.188 149.184 168 273.657 278 398> 301 109<-44 86.6947>
LayerCount: 2
Fore
SplineSet
24 398 m 1xec
 129 572 l 1
 140 586 l 1
 161 587 l 1
 155 545 150 504 150 462 c 1
 234 462 l 1
 234 459 l 1
 260 460 287 462 310 476 c 0
 318 481 325 488 332 495 c 1
 333 495 l 1
 349 481 l 1
 349 480 l 1
 266 381 l 1
 280 374 292 365 308 360 c 1
 318 367 325 376 332 385 c 2
 394 459 l 1
 395 459 l 1
 411 446 l 1
 364 386 315 328 265 271 c 1
 265 270 l 1
 282 258 298 242 312 226 c 0
 343 193 380 144 402 97 c 0
 405 92 410 85 410 77 c 0
 410 66 384 6 379 -4 c 0
 347 -76 302 -158 220 -179 c 0
 206 -183 193 -184 179 -184 c 1
 179 -162 l 1
 252 -162 301 -85 301 -3 c 0
 301 50 282 88 257 121 c 0
 249 133 239 145 228 155 c 0
 221 161 214 163 206 163 c 0
 192 163 177 154 166 145 c 0
 154 137 150 133 150 116 c 2xec
 150 95 l 1
 150 88 l 2
 150 77 156 73 161 66 c 0
 168 57 177 48 183 38 c 1
 257 81 l 2
 259 82 261 83 263 83 c 0
 271 83 275 71 277 66 c 1
 272 64 176 8 167 3 c 2
 139 -13 l 2
 135 -15 130 -19 126 -19 c 0
 121 -19 110 -2 107 1 c 2
 63 53 l 2
 60 56 48 68 46 75 c 0xf4
 46 81 61 97 64 101 c 0
 66 105 66 110 66 116 c 2
 66 131 l 1
 66 398 l 1
 24 398 l 1xec
151 278 m 1
 277 431 l 1
 234 441 l 1
 234 398 l 1
 150 398 l 1
 150 278 l 1
 151 278 l 1
151 168 m 1
 185 210 l 1
 249 286 l 1
 238 291 228 300 215 300 c 0
 193 300 176 279 163 264 c 0
 155 251 150 249 150 232 c 2
 150 219 l 1
 150 168 l 1
 151 168 l 1
EndSplineSet
Validated: 1
EndChar

StartChar: NameMe.224
Encoding: 1114133 -1 195
Width: 606
Flags: W
HStem: -153 22<96 141.659> 208 21<378.336 468> 473 20G<444.5 489> 655 13<175.859 213.774>
VStem: 54.4444 83.5556<94.9587 379.576 390 547.976> 221 11<636.413 642.859> 246 118<77.2344 203.531> 246 84<221 235 247.431 355.859> 468.16 84.0539<114.817 208 230 415.695>
LayerCount: 2
Fore
SplineSet
-2 636 m 1xfd80
 2 640 8 649 14 649 c 0
 19 649 24 643 28 640 c 0
 39 632 49 623 60 615 c 0
 64 611 71 603 77 603 c 0
 81 603 137 641 144 645 c 0
 160 656 176 668 201 668 c 0
 213 668 232 662 232 649 c 0
 232 642 225 636 221 633 c 1
 220 636 220 640 218 643 c 0
 214 651 206 655 198 655 c 0
 170 655 151 627 144 606 c 0
 139 590 138 574 138 557 c 2
 138 524 l 1
 138 390 l 1
 219 466 l 1
 228 471 l 1
 264 452 295 429 329 409 c 1
 339 405 l 1
 384 433 421 467 468 493 c 1
 510 475 544 449 584 429 c 1
 573 420 562 411 553 400 c 1
 551.934846923 363.784795376 551.626061231 326.056855982 551.626061231 287.621828866 c 0
 551.626061231 234.589336145 552.213938769 180.210663855 552.213938769 126.602171134 c 0
 552.213938769 109.635266479 552.155051026 92.7455107779 552 76 c 1
 534 76 l 1
 558 47 l 2
 561 44 567 39 567 34 c 2
 567 33 l 2
 567 27 557 22 553 19 c 0
 537 5 521 -7 506 -21 c 1
 505 -21 l 1
 446 49 l 1
 439 55 l 1
 427 51 417 43 407 37 c 2
 318 -21 l 1
 317 -21 l 2
 313 -19 314 -13 309 -12 c 1
 294 -32 276 -50 258 -68 c 0
 213 -113 173 -149 96 -153 c 1
 96 -131 l 1
 176 -126 218 -67 236 -4 c 0
 243 18 244 32 246 55 c 1xfd80
 246 55 246 61 245 61 c 0
 244 67 239 72 236 77 c 1
 243 82 246 87 246 97 c 2
 246 109 l 1xfe80
 246 342 l 1
 246 351 l 2
 246 364 240 366 231 371 c 2
 199 391 l 2
 195 394 189 399 184 399 c 0
 177 399 171 390 166 385 c 0
 161 381 155 375 150 370 c 0
 143 365 137 360 137 348 c 0
 137 344 138 339 138 335 c 2
 138 76 l 1
 120 76 l 1
 145 47 l 2
 147 44 153 39 153 34 c 2
 153 33 l 2
 153 27 143 22 139 18 c 2
 92 -21 l 1
 91 -21 l 1
 18 66 l 2
 16 68 13 72 13 75 c 2
 13 76 l 2
 13 80 20 84 23 87 c 0
 30 93 38 99 45 106 c 0
 54 113 54 117 54 132 c 2
 54 159 l 2
 54 217.666666667 54.4444444444 371 54.4444444444 466.703703704 c 0
 54.4444444444 514.555555556 54.3333333333 548 54 548 c 0
 49 589 27 616 -2 636 c 1xfd80
468 230 m 1
 468 386 l 1
 468 392 l 2
 468 404 457 409 450 413 c 0
 443 418 434 427 422 427 c 0
 408 427 379 405 369 398 c 0
 353 387 337 375 331 356 c 0
 330 353 330 350 330 346 c 2
 330 337 l 1
 330 278 l 2
 330 261 336 259 346 251 c 0
 367 235 394 229 428 229 c 0
 441 229 455 230 468 230 c 1
330 221 m 1
 345 225 l 1
 330 235 l 1
 330 221 l 1
424 77 m 1
 438 89 453 100 466 114 c 1
 467.8 131.4 468.16 150.24 468.16 169.44 c 0
 468.16 182.24 468 195.2 468 208 c 1
 415 208 l 1
 406 208 l 2
 373 208 364 182 364 156 c 2
 364 76 l 1xfe80
 346 76 l 1
 373 42 l 1
 425 74 l 1
 424 77 l 1
EndSplineSet
Validated: 1
EndChar

StartChar: NameMe.225
Encoding: 1114134 -1 196
Width: 556
Flags: W
HStem: -195 14<175.471 214.617> 475 20G<92.5 110.5 228.692 263 418.5 453>
VStem: 54 84<-126.285 -1 137 378.979> 221 11<-172.767 -163.201> 246 123<89.5938 210.875 221 368.767>
LayerCount: 2
Fore
SplineSet
100 495 m 1
 121 473 139 449 159 426 c 1
 166 420 l 1
 189 432 203 453 222 469 c 2
 251 495 l 1
 263 479 l 1
 258 472 252 465 246 459 c 1
 253 456 259 451 265 447 c 2
 293 428 l 2
 299 424 306 417 313 415 c 0
 313 414.636363636 313.26446281 414.47107438 313.746055597 414.47107438 c 0
 318.561983471 414.47107438 345.090909091 431 346 431 c 0
 377 449 405 471 432 495 c 1
 433 495 l 1
 540 388 l 1
 540 387 l 1
 419 244 l 1
 385 204 l 2
 376 194 369 190 369 174 c 2
 369 164 l 1
 369 125 l 2
 369 122 368 118 368 114 c 0
 368 100 379 98 387 92 c 2
 419 70 l 2
 425 66 447 47 459 45 c 2
 463 45 l 2
 482 45 501 59 518 67 c 1
 516 47 l 1
 484 23 446 5 411 -16 c 1
 399 -19 l 1
 368 1 339 23 309 44 c 1
 299 48 l 1
 257 26 219 1 177 -20 c 1
 163 -15 151 -8 138 -1 c 1
 138 -75 l 2
 138 -99 138 -124 150 -146 c 0
 157 -159 174 -181 197 -181 c 0
 212 -181 218 -173 221 -160 c 1
 225 -163 232 -168 232 -175 c 0
 232 -187 215 -195 202 -195 c 0
 175 -195 155 -179 137 -167 c 0
 117 -154 96 -141 76 -127 c 1
 34 -188 l 1
 14 -178 l 1
 24 -165 33 -153 40 -138 c 0
 53 -107 54 -74 54 -41 c 2
 54 -16 l 1
 54 23 l 1
 54 30 l 2
 54 46 44 48 33 53 c 0
 18 60 3 68 -12 76 c 1
 30 149 l 1
 54 137 l 1
 54 398 l 1
 72 398 l 1
 48 427 l 2
 45 430 39 435 39 440 c 2
 39 441 l 2
 39 447 49 452 53 455 c 0
 69 469 85 481 100 495 c 1
181 400 m 1
 182 397 l 1
 172 389 162 381 152 372 c 0
 143 365 138 362 138 347 c 2
 138 336 l 1
 138 115 l 1
 138 106 l 2
 138 89 149 87 160 82 c 0
 179 73 228 47 233 45 c 0
 233 43 240 43 242 43 c 0
 246 45 247 50 247 55 c 0
 247 60 246 64 246 67 c 2
 246 336 l 1
 246 346 l 2
 246 361 238 364 229 369 c 0
 228 369 191 399 181 400 c 1
369 221 m 1
 470 339 l 1
 461 346 453 355 445 363 c 2
 389 419 l 2
 387 421 384 424 380 424 c 0
 373 424 369 419 369 411 c 2
 369 402 l 1
 369 221 l 1
EndSplineSet
Validated: 1
EndChar

StartChar: NameMe.226
Encoding: 1114135 -1 197
Width: 601
Flags: W
HStem: 208 21<381.148 472> 475 20G<210.048 250.759 461 493.5> 656 13<174.496 213.274>
VStem: 54 84<114.147 354.859 390 603.09> 247 120<76 202.898> 247 84<220 237 249.45 382.881> 472.576 83.6376<113.515 208 230 414.5>
LayerCount: 2
Fore
SplineSet
0 635 m 0xf2
 0 639 10 649 15 649 c 0
 20 649 25 644 28 641 c 2
 60 615 l 2
 65 612 71 604 77 604 c 2
 78 604 l 2
 83 604 104 620 109 623 c 2
 148 648 l 2
 163 657 180 669 203 669 c 0
 216 669 232 662 232 648 c 0
 232 641 226 637 222 634 c 1
 218 648 210 656 196 656 c 0
 168 656 150 630 144 609 c 0
 139 593 138 577 138 560 c 2
 138 527 l 1
 138 390 l 1
 227 495 l 1
 228 495 l 1
 327 408 l 1
 337 402 l 1
 381 428 420 459 461 487 c 1
 472 493 l 1
 515 476 549 450 588 429 c 1
 578 419 567 410 557 400 c 1
 555.934846923 363.784795376 555.626061231 325.930794752 555.626061231 287.377919681 c 0
 555.626061231 234.182820837 556.213938769 179.657179163 556.213938769 126.270080319 c 0
 556.213938769 109.373246069 556.155051026 92.5904597522 556 76 c 1
 538 76 l 1
 546 67 554 57 562 47 c 0
 565 44 571 39 571 34 c 2
 571 33 l 2
 571 27 561 22 557 18 c 2
 510 -21 l 1
 509 -21 l 1
 487 5 465 31 444 58 c 1
 320 -21 l 1
 287 19 l 2
 283 23 279 31 273 32 c 0
 267 32 256 24 251 21 c 2
 198 -9 l 2
 192 -13 184 -19 177 -19 c 0
 171 -19 164 -14 159 -11 c 2
 127 8 l 1
 11 75 l 1
 24 101 38 126 54 148 c 1
 54 525 l 1
 54 548 l 2
 54 591 26 616 0 635 c 0xf2
472 230 m 1
 472 386 l 1
 472 392 l 2
 472 404 461 409 453 413 c 0
 446 418 438 427 426 427 c 0
 408 427 362 390 345 377 c 0
 339 371 331 367 331 356 c 2
 331 350 l 1
 331 286 l 1
 331 277 l 2xf6
 331 264 337 260 345 255 c 0
 367 237 394 229 431 229 c 0
 445 229 458 230 472 230 c 1
331 220 m 1
 349 226 l 1
 331 237 l 1
 331 220 l 1
429 74 m 1
 441 89 457 99 470 113 c 1
 472.029776861 123.960795047 472.576355844 136.569587736 472.576355844 149.755956473 c 0
 472.576355844 165.146190562 471.831807421 181.323197193 471.831807421 196.585151399 c 0
 471.831807421 200.45830513 471.879758914 204.272526322 472 208 c 1
 420 208 l 1
 412 208 l 2
 383 208 370 191 367 168 c 2
 367 76 l 1xfa
 349 76 l 1
 358 65 367 54 378 45 c 1
 397 53 412 64 429 74 c 1
138 111 m 2
 138 94 151 91 162 85 c 0
 181 74 232 42 239 42 c 0
 245 42 248 48 248 55 c 0
 248 64 244 69 242 75 c 0
 242 81 250 87 247 97 c 2
 247 118 l 1xfa
 247 348 l 2xf6
 247 351 248 355 248 358 c 0
 248 371 239 374 232 381 c 2
 206 404 l 2
 202 407 196 414 191 414 c 0
 185 414 180 405 177 401 c 0
 169 391 142 361 139 355 c 0
 138 352 138 349 138 346 c 2
 138 336 l 1
 138 119 l 1
 138 111 l 2
EndSplineSet
Validated: 1
EndChar

StartChar: NameMe.227
Encoding: 1114136 -1 198
Width: 377
Flags: W
HStem: 398 64<301 385> 540 21G<199.5 220.765> 567 20G<291 307.5>
VStem: 53 83.3469<80 347 347.679 553.25> 217.602 83.3977<79 398>
LayerCount: 2
Fore
SplineSet
189 664 m 1
 196 660 201 655 207 650 c 2
 235 627 l 2
 239 623 249 618 249 611 c 0
 249 604 242 596 239 591 c 2
 209 540 l 1
 190 555 171 571 153 587 c 1
 152 587 l 1
 138 571 l 1
 136.714285714 505 136.346938776 437.163265306 136.346938776 368.591836735 c 0
 136.346938776 277.163265306 137 184.428571429 137 93 c 1
 137 93 138 80 138 80 c 1
 148 65 159 52 170 38 c 1
 208 59 l 1
 197 75 l 1
 202 86 209 95 216 104 c 1
 217.219223594 132.651754449 217.602287466 162.232575256 217.602287466 192.232729589 c 0
 217.602287466 242.959194264 216.507087534 294.884555736 216.507087534 345.544614161 c 0
 216.507087534 363.218626219 216.640388203 380.738633754 217 398 c 1
 175 398 l 1
 208 454 l 1
 281 573 l 1
 291 586 l 1
 311 587 l 1
 304 549 302 506 301 462 c 1
 385 462 l 1
 385 398 l 1
 301 398 l 1
 301 95 l 1
 302 79 l 1
 313 67 320 50 335 41 c 1
 365 53 389 71 417 85 c 1
 427 66 l 1
 288 -14 l 1
 276 -19 l 1
 256 0 240 22 223 43 c 1
 206 31 150 0 123 -15 c 0
 120 -17 117 -19 113 -19 c 0
 108 -19 97 -2 94 1 c 2
 50 53 l 1
 50 53 33 69 33 76 c 0
 33 82 41 89 45 93 c 0
 52 101 53 107 53 117 c 2
 53 347 l 1
 31 347 l 1
 36 361 51 406 52 414 c 0
 53 420 54 426 54 432 c 0
 54 440 53 448 53 456 c 2
 53 514 l 2
 53 518 52 524 52 529 c 0
 52 545 61 545 70 551 c 0
 108 575 138 599 167 634 c 0
 175 644 183 653 189 664 c 1
EndSplineSet
Validated: 1
EndChar

StartChar: NameMe.228
Encoding: 1114137 -1 199
Width: 149
Flags: W
HStem: -153 22<-93 -44.6375> 475 20G<75.5 116.083>
VStem: 53 84<39.5164 378.675>
LayerCount: 2
Fore
SplineSet
99 495 m 1
 181 399 l 2
 181 397 154 375 151 372 c 0
 142 365 136 361 136 348 c 0
 136 343 137 338 137 333 c 2
 137 115 l 2
 137 107 136 97 136 88 c 0
 136 62 143 50 159 39 c 1
 152 30 144 22 136 14 c 0
 82 -46 27 -132 -60 -150 c 0
 -71 -152 -82 -153 -93 -153 c 1
 -93 -131 l 1
 -16 -131 25 -65 42 -6 c 0
 52 29 53 64 53 100 c 2
 53 157 l 1
 53 398 l 1
 71 398 l 1
 47 427 l 2
 44 430 38 435 38 440 c 2
 38 441 l 2
 38 447 48 452 52 455 c 2
 99 495 l 1
EndSplineSet
Validated: 1
EndChar

StartChar: NameMe.229
Encoding: 1114138 -1 200
Width: 361
Flags: W
HStem: -184 22<149 192.256> -141 21G<58 66> 163 31<142.785 154.788> 475 20G<282.209 316> 539 21G<191.25 226.351>
VStem: 58 84.2139<-41.3125 144.812 194 295.492 308 347 347.679 553.25>
LayerCount: 2
Fore
SplineSet
194 664 m 1
 216 648 236 630 257 613 c 1
 215 539 l 1
 158 587 l 1
 157 587 l 1
 143 571 l 1
 141.934846923 540.820662814 141.626061231 509.884958242 141.626061231 478.640467979 c 0
 141.626061231 435.529448506 142.213938769 391.830551494 142.213938769 348.719532021 c 0
 142.213938769 335.075041758 142.155051026 321.489439238 142 308 c 1
 299 495 l 1
 300 495 l 1
 316 481 l 1
 316 480 l 1
 234 383 l 1
 248 375 262 366 278 360 c 1
 288 367 295 376 302 385 c 2
 363 458 l 1
 380 445 l 1
 377 438 372 433 367 427 c 2
 346 402 l 1
 274 316 l 1
 247 284 l 2
 244 281 238 275 238 270 c 0
 238 265 247 259 251 256 c 0
 292 218 328 175 356 125 c 0
 364 112 372 98 378 84 c 0
 379 84 379 78 379 78 c 1
 379 78 375 57 373 57 c 0
 338 -29 301 -132 214 -170 c 0
 193 -180 172 -182 149 -184 c 1
 149 -162 l 1
 155 -161 162 -161 168 -160 c 0
 211 -149 238 -120 253 -84 c 0
 265 -58 271 -30 271 -2 c 0
 271 59 241 105 211 141 c 0
 201 152 190 163 175 163 c 0
 164 163 144 156 142 145 c 0
 141 141 141 137 141 133 c 0
 141 124 142 116 142 108 c 2
 142 34 l 1
 142 13 l 2
 142 -8 135 -11 129 -25 c 2
 99 -83 l 2
 92 -95 86 -108 79 -121 c 0
 72 -134 74 -141 58 -141 c 1
 58 347 l 1
 36 347 l 1
 41 361 56 406 57 414 c 0
 58 420 59 426 59 432 c 0
 59 440 58 448 58 456 c 2
 58 514 l 2
 58 518 57 524 57 529 c 0
 57 545 66 545 75 551 c 0
 113 575 143 599 172 634 c 0
 180 644 188 653 194 664 c 1
143 194 m 1
 168 226 194 256 220 287 c 1
 208 291 200 301 185 301 c 0
 172 301 161 295 152 287 c 0
 145 282 141 275 141 264 c 0
 141 259 142 254 142 249 c 2
 142 194 l 1
 143 194 l 1
EndSplineSet
Validated: 1
EndChar

StartChar: NameMe.230
Encoding: 1114139 -1 201
Width: 272
Flags: W
HStem: 539 21G<191.25 226.351>
VStem: 58 83.3469<80 347 347.679 553.25>
LayerCount: 2
Fore
SplineSet
194 664 m 1
 216 648 236 630 257 613 c 1
 215 539 l 1
 158 587 l 1
 157 587 l 1
 143 571 l 1
 141.714285714 505 141.346938776 437.163265306 141.346938776 368.591836735 c 0
 141.346938776 277.163265306 142 184.428571429 142 93 c 1
 142 93 143 80 143 80 c 1
 153 65 164 52 175 38 c 1
 249 81 l 2
 251 82 253 83 255 83 c 0
 263 83 267 71 269 66 c 1
 264 64 168 8 159 3 c 2
 131 -13 l 2
 127 -15 122 -19 118 -19 c 0
 113 -19 102 -2 99 1 c 2
 55 53 l 1
 55 53 38 69 38 76 c 0
 38 82 46 89 50 93 c 0
 57 101 58 107 58 117 c 2
 58 347 l 1
 36 347 l 1
 41 361 56 406 57 414 c 0
 58 420 59 426 59 432 c 0
 59 440 58 448 58 456 c 2
 58 514 l 2
 58 518 57 524 57 529 c 0
 57 545 66 545 75 551 c 0
 113 575 143 599 172 634 c 0
 180 644 188 653 194 664 c 1
EndSplineSet
Validated: 1
EndChar

StartChar: NameMe.231
Encoding: 1114140 -1 202
Width: 573
Flags: W
HStem: 475 20G<210.048 228 394 439.548> 656 13<174.496 213.274>
VStem: 54 84<114.147 380.953 390 603.09> 247 97<107 379.953> 452.25 83.5<74.4197 380.457>
LayerCount: 2
Fore
SplineSet
0 635 m 0
 0 639 10 649 15 649 c 0
 20 649 25 644 28 641 c 2
 60 615 l 2
 65 612 71 604 77 604 c 2
 78 604 l 2
 83 604 104 620 109 623 c 2
 148 648 l 2
 163 657 180 669 203 669 c 0
 216 669 232 662 232 648 c 0
 232 641 226 637 222 634 c 1
 218 648 210 656 196 656 c 0
 168 656 150 630 144 609 c 0
 139 593 138 577 138 560 c 2
 138 527 l 1
 138 390 l 1
 227 495 l 2
 229 495 319 415 325 410 c 0
 328 407 331 403 335 403 c 0
 340 403 353 418 356 421 c 0
 375 441 389 465 399 490 c 1
 547 417 l 1
 537 395 l 1
 536 346 535.75 296.25 535.75 246.25 c 0
 535.75 196.25 536 146 536 96 c 0
 539 89 543 83 545 74 c 1
 496 43 445 14 393 -15 c 1
 383 -19 l 1
 356 -8 337 11 313 25 c 2
 288 43 l 1
 287 43 l 1
 255 23 221 4 188 -15 c 1
 177 -19 l 1
 118 9 67 44 11 75 c 1
 24 101 38 126 54 148 c 1
 54 525 l 1
 54 548 l 2
 54 591 26 616 0 635 c 0
444 39 m 1
 451 46 l 1
 452 95 452.25 145 452.25 195.375 c 0
 452.25 245.75 452 296.5 452 347 c 1
 452 347 451 368 451 368 c 1
 432 380 413 391 390 399 c 1
 372 387 357 373 344 357 c 1
 344 126 l 1
 346 107 l 1
 376 81 412 62 444 39 c 1
238 75 m 1
 240 82 245 87 247 94 c 0
 248 98 248 101 248 105 c 0
 248 113 247 121 247 128 c 2
 247 362 l 2
 246 369 241 373 236 377 c 2
 206 404 l 2
 202 407 197 414 191 414 c 0
 186 414 182 407 180 404 c 2
 158 379 l 2
 149 369 138 362 138 344 c 2
 138 335 l 1
 138 122 l 1
 138 111 l 2
 138 94 153 91 163 85 c 2
 215 55 l 1
 215 55 233 42 239 42 c 0
 245 42 247 48 247 53 c 0
 247 63 247 69 238 75 c 1
EndSplineSet
Validated: 1
EndChar

StartChar: NameMe.232
Encoding: 1114141 -1 203
Width: 590
Flags: W
HStem: 561 20G<36 56.0435 391.5 439.548>
VStem: 54 84<116 359> 247 97<107 379.998> 452.25 83.5<74.4197 380.457>
LayerCount: 2
Fore
SplineSet
43 581 m 1
 58 558 l 1
 124 523 193 491 260 457 c 2
 342 417 l 1
 332 398 l 1
 361 424 384 453 399 490 c 1
 547 417 l 1
 537 395 l 1
 536 346 535.75 296.25 535.75 246.25 c 0
 535.75 196.25 536 146 536 96 c 0
 539 89 543 83 545 74 c 1
 496 43 445 14 393 -15 c 1
 383 -19 l 1
 356 -8 337 11 313 25 c 2
 288 43 l 1
 287 43 l 1
 255 23 221 4 188 -15 c 1
 177 -19 l 1
 126 10 82 44 33 75 c 1
 54 116 l 1
 54 347 l 1
 55 359 l 1
 78 384 104 405 128 429 c 1
 117 433 107 439 97 444 c 2
 44 470 l 2
 42 471 19 481 15 486 c 0
 14 488 14 491 14 494 c 0
 14 525 29 558 43 581 c 1
238 75 m 1
 243 91 247 86 247 102 c 2
 247 119 l 1
 247 341 l 2
 247 346 248 351 248 356 c 0
 248 374 238 374 226 380 c 0
 208 388 164 411 159 413 c 0
 158 414 156 414 154 414 c 0
 146 414 143 403 141 398 c 0
 138 387 138 376 138 364 c 2
 138 347 l 1
 138 124 l 1
 138 118 l 2
 138 101 155 96 164 89 c 2
 210 58 l 1
 210 58 233 42 237 42 c 2
 238 42 l 2
 244 42 247 47 247 53 c 0
 247 63 247 69 238 75 c 1
444 39 m 1
 451 46 l 1
 452 95 452.25 145 452.25 195.375 c 0
 452.25 245.75 452 296.5 452 347 c 1
 452 347 451 368 451 368 c 1
 432 380 413 391 390 399 c 1
 372 387 357 373 344 357 c 1
 344 126 l 1
 346 107 l 1
 376 81 412 62 444 39 c 1
EndSplineSet
Validated: 1
EndChar

StartChar: NameMe.233
Encoding: 1114142 -1 204
Width: 553
Flags: W
HStem: -153 22<107 157.444> 399 72<194 238> 475 20G<393 424> 655 13<186.859 224.774>
VStem: 65.4444 83.5556<94.9587 379.767 390 547.976> 232 11<636.413 642.859> 257 84<89.5938 211.159 221 375.25>
LayerCount: 2
Fore
SplineSet
9 636 m 1
 13 640 19 649 25 649 c 0
 30 649 35 643 39 640 c 0
 50 632 60 623 71 615 c 0
 75 611 82 603 88 603 c 0
 92 603 148 641 155 645 c 0
 171 656 187 668 212 668 c 0
 224 668 243 662 243 649 c 0
 243 642 236 636 232 633 c 1
 231 636 231 640 229 643 c 0
 225 651 217 655 209 655 c 0
 181 655 162 627 155 606 c 0
 150 590 149 574 149 557 c 2
 149 524 l 1
 149 390 l 1
 174 415 202 439 228 464 c 0
 230 466 233 471 238 471 c 0
 244 471 252 464 257 461 c 2
 293 439 l 2
 297 436 305 429 312 429 c 0
 317 429 332 440 336 442 c 0
 360 457 383 475 403 495 c 1
 404 495 l 1
 503 396 l 2
 505 393 509 390 509 386 c 0
 508 380 501 374 497 370 c 2
 497 370 364 213 355 203 c 0
 348 194 341 190 341 176 c 2
 341 166 l 1
 341 125 l 2
 341 122 340 118 340 114 c 0
 340 100 351 98 359 92 c 2
 391 70 l 2
 396 66 418 47 431 45 c 2
 434 45 l 2
 454 45 472 60 490 67 c 1
 490 57 l 2
 490 45 485 44 479 40 c 0
 474 36 401 -5 391 -11 c 0
 386 -13 380 -19 374 -19 c 0
 365 -19 353 -7 346 -2 c 0
 343 -1 340 2 337 2 c 0
 329 2 320 -12 316 -17 c 0
 277 -63 222 -124 160 -144 c 0
 143 -150 125 -152 107 -153 c 1
 107 -131 l 1
 123 -130 138 -128 153 -122 c 0
 201 -103 230 -57 245 -10 c 0
 247 -4 257 37 257 53 c 0
 257 65 244 70 236 75 c 1
 236 76 l 1
 257 76 l 1
 257 328 l 2
 257 334 258 341 258 348 c 0
 258 362 253 365 244 370 c 2
 210 391 l 2
 206 394 199 399 194 399 c 0
 187 398 167 376 161 370 c 0
 153 364 148 359 148 346 c 0
 148 340 149 334 149 329 c 2
 149 76 l 1
 131 76 l 1
 156 47 l 2
 158 44 164 39 164 34 c 2
 164 33 l 2
 164 27 154 22 150 18 c 2
 103 -21 l 1
 102 -21 l 1
 29 66 l 2
 27 68 24 72 24 75 c 2
 24 76 l 2
 24 80 31 84 34 87 c 0
 41 93 49 99 56 106 c 0
 65 113 65 117 65 132 c 2
 65 159 l 2
 65 217.666666667 65.4444444444 371 65.4444444444 466.703703704 c 0
 65.4444444444 514.555555556 65.3333333333 548 65 548 c 0
 60 589 38 616 9 636 c 1
341 221 m 1
 432 328 l 2
 434 331 438 334 438 338 c 2
 438 339 l 2
 438 343 424 356 421 359 c 2
 369 411 l 2
 364 416 358 424 352 424 c 0
 344 424 341 416 341 410 c 2
 341 406 l 1
 341 221 l 1
EndSplineSet
Validated: 1
EndChar

